<?xml version="1.0" encoding="UTF-8"?>
<svg version="1.1" xmlns="http://www.w3.org/2000/svg" width="1024" height="1024">
<path d="M0 0 C337.92 0 675.84 0 1024 0 C1024 337.92 1024 675.84 1024 1024 C686.08 1024 348.16 1024 0 1024 C0 686.08 0 348.16 0 0 Z " fill="#030203" transform="translate(0,0)"/>
<path d="M0 0 C23.56249437 -0.03078185 47.1249883 -0.05113686 70.6875 -0.0625 C71.56218445 -0.0629343 72.43686891 -0.06336861 73.33805895 -0.06381607 C121.95706075 -0.0873026 170.57072456 0.00304245 219.1875 0.5 C220.35821926 0.51195782 221.52893852 0.52391563 222.73513412 0.53623581 C236.49024471 0.67786097 250.24519522 0.83128347 264 1 C264 3.31 264 5.62 264 8 C281.16 8 298.32 8 316 8 C316 10.31 316 12.62 316 15 C328.87 15 341.74 15 355 15 C355 17.31 355 19.62 355 22 C365.23 22 375.46 22 386 22 C386 24.64 386 27.28 386 30 C393.26 30 400.52 30 408 30 C408 32.31 408 34.62 408 37 C416.91 37 425.82 37 435 37 C435 39.64 435 42.28 435 45 C439.62 45 444.24 45 449 45 C449 47.31 449 49.62 449 52 C454.28 52 459.56 52 465 52 C465 54.64 465 57.28 465 60 C467.31 60 469.62 60 472 60 C472 62.64 472 65.28 472 68 C473.98 68 475.96 68 478 68 C478 73.28 478 78.56 478 84 C476.02 84 474.04 84 472 84 C472.0309375 85.2065625 472.0309375 85.2065625 472.0625 86.4375 C472 89 472 89 471 90 C469.00041636 90.04080783 466.99954746 90.04254356 465 90 C465 91.65 465 93.3 465 95 C460.05 95 455.1 95 450 95 C450 96.98 450 98.96 450 101 C447.36 101 444.72 101 442 101 C442 102.65 442 104.3 442 106 C437.9472484 106.98248524 434.16138263 107.08159574 430 107 C430.33 109.97 430.66 112.94 431 116 C436.94 116.495 436.94 116.495 443 117 C443 119.64 443 122.28 443 125 C457.52 125 472.04 125 487 125 C487 127.31 487 129.62 487 132 C501.19 132 515.38 132 530 132 C530 134.64 530 137.28 530 140 C548.81 140 567.62 140 587 140 C587 142.64 587 145.28 587 148 C623.96 148 660.92 148 699 148 C699 150.31 699 152.62 699 155 C703.95 155 708.9 155 714 155 C714 159.95 714 164.9 714 170 C616.98 170 519.96 170 420 170 C420 167.69 420 165.38 420 163 C403.83 163 387.66 163 371 163 C371 160.36 371 157.72 371 155 C357.8 155 344.6 155 331 155 C331 152.36 331 149.72 331 147 C321.43 147 311.86 147 302 147 C302 144.36 302 141.72 302 139 C294.08 139 286.16 139 278 139 C278 136.69 278 134.38 278 132 C273.05 132 268.1 132 263 132 C263 129.36 263 126.72 263 124 C256.4 124 249.8 124 243 124 C243 121.69 243 119.38 243 117 C240.69 117 238.38 117 236 117 C236 113.7 236 110.4 236 107 C238.31 107 240.62 107 243 107 C243 104.69 243 102.38 243 100 C252.24 100 261.48 100 271 100 C271 98.02 271 96.04 271 94 C274.3 94 277.6 94 281 94 C281 92.35 281 90.7 281 89 C289.91 89 298.82 89 308 89 C308 87.02 308 85.04 308 83 C312.62 83 317.24 83 322 83 C322 80.69 322 78.38 322 76 C324.97 76 327.94 76 331 76 C330.67 70.72 330.34 65.44 330 60 C328.35 59.67 326.7 59.34 325 59 C325 56.69 325 54.38 325 52 C324.34 52 323.68 52 323 52 C323 51.34 323 50.68 323 50 C318.38 50 313.76 50 309 50 C309 47.69 309 45.38 309 43 C304.05 43 299.1 43 294 43 C294 40.69 294 38.38 294 36 C285.75 36 277.5 36 269 36 C269 33.36 269 30.72 269 28 C253.16 28 237.32 28 221 28 C221 25.69 221 23.38 221 21 C198.56 21 176.12 21 153 21 C153 18.69 153 16.38 153 14 C102.51 14 52.02 14 0 14 C0 9.38 0 4.76 0 0 Z " fill="#FDCA22" transform="translate(156,356)"/>
<path d="M0 0 C17.49 0 34.98 0 53 0 C53.495 0.99 53.495 0.99 54 2 C56.04616561 2.87242911 56.04616561 2.87242911 58.4375 3.5625 C62.87341772 4.93670886 62.87341772 4.93670886 65 6 C66.42726857 9.69998922 66.16838053 13.65065566 66.1875 17.5625 C66.19974609 18.23474609 66.21199219 18.90699219 66.22460938 19.59960938 C66.23562975 23.29878237 66.10685378 24.83971933 64 28 C63.34 28 62.68 28 62 28 C62 28.66 62 29.32 62 30 C61.34 30 60.68 30 60 30 C60 30.99 60 31.98 60 33 C60.99 33 61.98 33 63 33 C63 33.66 63 34.32 63 35 C63.66 35 64.32 35 65 35 C65 35.99 65 36.98 65 38 C65.99 38 66.98 38 68 38 C68 43.61 68 49.22 68 55 C67.01 55 66.02 55 65 55 C65 55.66 65 56.32 65 57 C64.34 57 63.68 57 63 57 C63 57.66 63 58.32 63 59 C62.34 59 61.68 59 61 59 C61 59.66 61 60.32 61 61 C58.69 61 56.38 61 54 61 C54 61.99 54 62.98 54 64 C36.18 64 18.36 64 0 64 C0 42.88 0 21.76 0 0 Z " fill="#F6F6F6" transform="translate(159,584)"/>
<path d="M0 0 C23.56249365 -0.03110138 47.12498874 -0.05113686 70.6875 -0.0625 C71.56218445 -0.0629343 72.43686891 -0.06336861 73.33805895 -0.06381607 C121.95706075 -0.0873026 170.57072456 0.00304245 219.1875 0.5 C220.35821926 0.51195782 221.52893852 0.52391563 222.73513412 0.53623581 C236.49024471 0.67786097 250.24519522 0.83128347 264 1 C264 3.31 264 5.62 264 8 C281.16 8 298.32 8 316 8 C316 10.31 316 12.62 316 15 C328.87 15 341.74 15 355 15 C355 17.31 355 19.62 355 22 C365.23 22 375.46 22 386 22 C386 24.64 386 27.28 386 30 C393.26 30 400.52 30 408 30 C408 32.31 408 34.62 408 37 C416.91 37 425.82 37 435 37 C435 39.64 435 42.28 435 45 C439.62 45 444.24 45 449 45 C449 47.31 449 49.62 449 52 C454.28 52 459.56 52 465 52 C465 54.64 465 57.28 465 60 C467.31 60 469.62 60 472 60 C472 62.64 472 65.28 472 68 C473.98 68 475.96 68 478 68 C478 70.97 478 73.94 478 77 C472.06 76.505 472.06 76.505 466 76 C466 72.7 466 69.4 466 66 C463.69 66 461.38 66 459 66 C459 64.02 459 62.04 459 60 C453.72 60 448.44 60 443 60 C443 57.36 443 54.72 443 52 C438.38 52 433.76 52 429 52 C429 49.69 429 47.38 429 45 C419.76 45 410.52 45 401 45 C401 42.36 401 39.72 401 37 C393.74 37 386.48 37 379 37 C379 34.69 379 32.38 379 30 C368.77 30 358.54 30 348 30 C348 27.69 348 25.38 348 23 C335.13 23 322.26 23 309 23 C309 20.36 309 17.72 309 15 C292.17 15 275.34 15 258 15 C258 12.36 258 9.72 258 7 C172.86 7 87.72 7 0 7 C0 4.69 0 2.38 0 0 Z " fill="#F7E445" transform="translate(156,356)"/>
<path d="M0 0 C1.01037827 0.00222061 2.02075653 0.00444122 3.06175232 0.00672913 C4.77341331 0.00684242 4.77341331 0.00684242 6.51965332 0.00695801 C7.76129745 0.01211929 9.00294159 0.01728058 10.2822113 0.02259827 C12.17785072 0.02472069 12.17785072 0.02472069 14.11178589 0.02688599 C17.47705394 0.0315487 20.84225495 0.04053972 24.20750427 0.05158997 C27.63930175 0.06180606 31.07110614 0.06638403 34.50291443 0.07142639 C41.2405633 0.08248071 47.9781803 0.09923742 54.71580505 0.12025452 C54.71580505 1.11025452 54.71580505 2.10025452 54.71580505 3.12025452 C57.02580505 3.12025452 59.33580505 3.12025452 61.71580505 3.12025452 C61.71580505 4.11025452 61.71580505 5.10025452 61.71580505 6.12025452 C62.70580505 6.12025452 63.69580505 6.12025452 64.71580505 6.12025452 C65.21080505 8.59525452 65.21080505 8.59525452 65.71580505 11.12025452 C66.37580505 11.12025452 67.03580505 11.12025452 67.71580505 11.12025452 C67.71580505 18.71025452 67.71580505 26.30025452 67.71580505 34.12025452 C67.05580505 34.12025452 66.39580505 34.12025452 65.71580505 34.12025452 C65.71580505 35.11025452 65.71580505 36.10025452 65.71580505 37.12025452 C65.05580505 37.12025452 64.39580505 37.12025452 63.71580505 37.12025452 C63.71580505 37.78025452 63.71580505 38.44025452 63.71580505 39.12025452 C62.06580505 39.45025452 60.41580505 39.78025452 58.71580505 40.12025452 C58.71580505 41.77025452 58.71580505 43.42025452 58.71580505 45.12025452 C59.37580505 45.12025452 60.03580505 45.12025452 60.71580505 45.12025452 C60.71580505 46.44025452 60.71580505 47.76025452 60.71580505 49.12025452 C61.37580505 49.12025452 62.03580505 49.12025452 62.71580505 49.12025452 C62.71580505 50.44025452 62.71580505 51.76025452 62.71580505 53.12025452 C63.70580505 53.12025452 64.69580505 53.12025452 65.71580505 53.12025452 C65.71580505 54.11025452 65.71580505 55.10025452 65.71580505 56.12025452 C66.70580505 56.12025452 67.69580505 56.12025452 68.71580505 56.12025452 C68.71580505 58.76025452 68.71580505 61.40025452 68.71580505 64.12025452 C62.44580505 64.12025452 56.17580505 64.12025452 49.71580505 64.12025452 C49.71580505 62.80025452 49.71580505 61.48025452 49.71580505 60.12025452 C48.72580505 60.12025452 47.73580505 60.12025452 46.71580505 60.12025452 C46.71580505 59.46025452 46.71580505 58.80025452 46.71580505 58.12025452 C46.05580505 58.12025452 45.39580505 58.12025452 44.71580505 58.12025452 C44.71580505 56.47025452 44.71580505 54.82025452 44.71580505 53.12025452 C44.05580505 53.12025452 43.39580505 53.12025452 42.71580505 53.12025452 C42.71580505 52.13025452 42.71580505 51.14025452 42.71580505 50.12025452 C42.05580505 50.12025452 41.39580505 50.12025452 40.71580505 50.12025452 C40.71580505 47.81025452 40.71580505 45.50025452 40.71580505 43.12025452 C32.13580505 43.12025452 23.55580505 43.12025452 14.71580505 43.12025452 C14.71580505 50.05025452 14.71580505 56.98025452 14.71580505 64.12025452 C11.93143005 64.14087952 9.14705505 64.16150452 6.27830505 64.18275452 C5.39988953 64.19185852 4.521474 64.20096252 3.61643982 64.21034241 C1.64934531 64.21748542 -0.31773116 64.17057345 -2.28419495 64.12025452 C-4.06335962 62.34108985 -3.4118433 59.73712152 -3.41358948 57.33119202 C-3.41674164 56.09320862 -3.4198938 54.85522522 -3.42314148 53.57972717 C-3.4213517 52.21823593 -3.41930074 50.85674501 -3.41700745 49.49525452 C-3.41768054 48.10902387 -3.41865061 46.72279335 -3.41990662 45.33656311 C-3.42138335 42.4278603 -3.41922984 39.51918815 -3.41456604 36.61048889 C-3.40886875 32.87428853 -3.41214789 29.13816 -3.4181385 25.40196228 C-3.4217448 22.53846186 -3.42060522 19.67497859 -3.41801071 16.81147766 C-3.41734163 15.4335072 -3.41816921 14.0555352 -3.42049026 12.67756653 C-3.42301786 10.75481698 -3.41848518 8.832062 -3.41358948 6.90931702 C-3.41279388 5.81313049 -3.41199829 4.71694397 -3.41117859 3.58753967 C-3.24608916 0.37986124 -3.19714252 0.16831787 0 0 Z " fill="#F5F4F5" transform="translate(413.28419494628906,583.8797454833984)"/>
<path d="M0 0 C18.81 0 37.62 0 57 0 C57 0.99 57 1.98 57 3 C59.31 3 61.62 3 64 3 C64 3.99 64 4.98 64 6 C64.66 6 65.32 6 66 6 C66.495 8.475 66.495 8.475 67 11 C67.99 11 68.98 11 70 11 C70 18.59 70 26.18 70 34 C69.01 34 68.02 34 67 34 C66.938125 34.78375 66.87625 35.5675 66.8125 36.375 C66.544375 37.24125 66.27625 38.1075 66 39 C63.4375 40.3125 63.4375 40.3125 61 41 C61 42.32 61 43.64 61 45 C61.99 45 62.98 45 64 45 C64 46.65 64 48.3 64 50 C64.66 50 65.32 50 66 50 C66 50.99 66 51.98 66 53 C66.66 53 67.32 53 68 53 C68 53.99 68 54.98 68 56 C68.99 56 69.98 56 71 56 C71 58.64 71 61.28 71 64 C64.73 64 58.46 64 52 64 C52 62.68 52 61.36 52 60 C51.01 60 50.02 60 49 60 C49 59.34 49 58.68 49 58 C48.34 58 47.68 58 47 58 C46.505 55.03 46.505 55.03 46 52 C45.01 52 44.02 52 43 52 C43 49.03 43 46.06 43 43 C34.42 43 25.84 43 17 43 C17 49.93 17 56.86 17 64 C11.39 64 5.78 64 0 64 C0 42.88 0 21.76 0 0 Z " fill="#F6F6F7" transform="translate(716,584)"/>
<path d="M0 0 C10.89 0 21.78 0 33 0 C33 2.31 33 4.62 33 7 C45.21 7 57.42 7 70 7 C70 9.64 70 12.28 70 15 C86.5 15 103 15 120 15 C120 17.31 120 19.62 120 22 C216.03 22 312.06 22 411 22 C411 20.02 411 18.04 411 16 C406.38 16 401.76 16 397 16 C397 15.67 397 15.34 397 15 C401.95 15 406.9 15 412 15 C412 19.95 412 24.9 412 30 C314.98 30 217.96 30 118 30 C118 27.69 118 25.38 118 23 C101.83 23 85.66 23 69 23 C69 20.36 69 17.72 69 15 C55.8 15 42.6 15 29 15 C29 12.36 29 9.72 29 7 C19.43 7 9.86 7 0 7 C0 4.69 0 2.38 0 0 Z " fill="#B67405" transform="translate(458,496)"/>
<path d="M0 0 C11.55 0 23.1 0 35 0 C35 0.99 35 1.98 35 3 C38.96 3 42.92 3 47 3 C47 4.98 47 6.96 47 9 C46.34 9.33 45.68 9.66 45 10 C43.87293294 12.11015954 43.87293294 12.11015954 42.875 14.5625 C42.52179687 15.38878906 42.16859375 16.21507812 41.8046875 17.06640625 C41.53914062 17.70449219 41.27359375 18.34257813 41 19 C39.02 19 37.04 19 35 19 C35 18.01 35 17.02 35 16 C32.69 16 30.38 16 28 16 C28 15.34 28 14.68 28 14 C22.06 14 16.12 14 10 14 C10 14.66 10 15.32 10 16 C9.01 16 8.02 16 7 16 C7 17.65 7 19.3 7 21 C11.24733832 21.98142381 15.47324533 22.30920379 19.8125 22.5625 C20.50537109 22.60568359 21.19824219 22.64886719 21.91210938 22.69335938 C23.60788686 22.79861453 25.30392052 22.89972863 27 23 C27 23.66 27 24.32 27 25 C29.97 25 32.94 25 36 25 C36 25.66 36 26.32 36 27 C38.64 27 41.28 27 44 27 C44 27.66 44 28.32 44 29 C45.32 29 46.64 29 48 29 C48.495 30.485 48.495 30.485 49 32 C49.99 32.33 50.98 32.66 52 33 C52 40.26 52 47.52 52 55 C51.01 55 50.02 55 49 55 C49 55.99 49 56.98 49 58 C48.34 58 47.68 58 47 58 C47 58.99 47 59.98 47 61 C44.36 61 41.72 61 39 61 C39 61.99 39 62.98 39 64 C26.46 64 13.92 64 1 64 C1 63.01 1 62.02 1 61 C-1.64 61 -4.28 61 -7 61 C-7 60.01 -7 59.02 -7 58 C-8.32 58 -9.64 58 -11 58 C-11 54.7 -11 51.4 -11 48 C-10.01 48 -9.02 48 -8 48 C-7.67 46.68 -7.34 45.36 -7 44 C-3.7 44 -0.4 44 3 44 C3 44.66 3 45.32 3 46 C3.99 46 4.98 46 6 46 C6 46.66 6 47.32 6 48 C7.32 48 8.64 48 10 48 C10 48.99 10 49.98 10 51 C17.26 51 24.52 51 32 51 C32 50.34 32 49.68 32 49 C32.99 49 33.98 49 35 49 C35 46.69 35 44.38 35 42 C34.01 42 33.02 42 32 42 C32 41.34 32 40.68 32 40 C28.7 40 25.4 40 22 40 C22 39.34 22 38.68 22 38 C17.05 38 12.1 38 7 38 C7 37.01 7 36.02 7 35 C3.7 35 0.4 35 -3 35 C-3 34.34 -3 33.68 -3 33 C-3.99 33 -4.98 33 -6 33 C-6 32.34 -6 31.68 -6 31 C-7.32 31 -8.64 31 -10 31 C-10 23.41 -10 15.82 -10 8 C-9.01 8 -8.02 8 -7 8 C-7 7.34 -7 6.68 -7 6 C-6.01 6 -5.02 6 -4 6 C-4 5.01 -4 4.02 -4 3 C-2.68 3 -1.36 3 0 3 C0 2.01 0 1.02 0 0 Z " fill="#F6F5F6" transform="translate(816,584)"/>
<path d="M0 0 C19.33646267 -0.02363836 38.6729223 -0.04112777 58.00939655 -0.05181217 C66.99300441 -0.05691081 75.97660306 -0.06385315 84.96020508 -0.07543945 C162.33576656 -0.17333106 162.33576656 -0.17333106 197 1 C197 2.98 197 4.96 197 7 C206.9 7 216.8 7 227 7 C227 9.31 227 11.62 227 14 C241.19 14 255.38 14 270 14 C270 16.31 270 18.62 270 21 C279.9 21.33 289.8 21.66 300 22 C300 24.64 300 27.28 300 30 C305.28 30 310.56 30 316 30 C316 32.31 316 34.62 316 37 C318.64 37 321.28 37 324 37 C324 39.64 324 42.28 324 45 C323.67 44.34 323.34 43.68 323 43 C318.38 43 313.76 43 309 43 C309 40.69 309 38.38 309 36 C304.05 36 299.1 36 294 36 C294 33.69 294 31.38 294 29 C285.75 29 277.5 29 269 29 C269 26.36 269 23.72 269 21 C253.16 21 237.32 21 221 21 C221 18.69 221 16.38 221 14 C198.56 14 176.12 14 153 14 C153 11.69 153 9.38 153 7 C102.51 7 52.02 7 0 7 C0 4.69 0 2.38 0 0 Z " fill="#BE7804" transform="translate(156,363)"/>
<path d="M0 0 C20.79 0 41.58 0 63 0 C63 3.96 63 7.92 63 12 C47.16 12 31.32 12 15 12 C15 16.62 15 21.24 15 26 C24.9 26 34.8 26 45 26 C45 29.63 45 33.26 45 37 C35.1 37 25.2 37 15 37 C15 41.95 15 46.9 15 52 C30.84 52 46.68 52 63 52 C63 55.96 63 59.92 63 64 C42.21 64 21.42 64 0 64 C0 42.88 0 21.76 0 0 Z " fill="#F6F5F6" transform="translate(247,584)"/>
<path d="M0 0 C20.46 0 40.92 0 62 0 C62 3.96 62 7.92 62 12 C46.16 12 30.32 12 14 12 C14 16.62 14 21.24 14 26 C24.23 26 34.46 26 45 26 C45 29.63 45 33.26 45 37 C34.77 37 24.54 37 14 37 C14 41.95 14 46.9 14 52 C29.84 52 45.68 52 62 52 C62 55.96 62 59.92 62 64 C41.54 64 21.08 64 0 64 C0 42.88 0 21.76 0 0 Z " fill="#F8F8F8" transform="translate(634,584)"/>
<path d="M0 0 C4.29 0 8.58 0 13 0 C13 2.64 13 5.28 13 8 C27.52 8 42.04 8 57 8 C57 10.31 57 12.62 57 15 C71.19 15 85.38 15 100 15 C100 17.64 100 20.28 100 23 C118.81 23 137.62 23 157 23 C157 25.64 157 28.28 157 31 C193.96 31 230.92 31 269 31 C269 33.64 269 36.28 269 39 C273.62 39 278.24 39 283 39 C283 40.98 283 42.96 283 45 C276.4 45 269.8 45 263 45 C263 43.02 263 41.04 263 39 C261.70344482 39.00523682 260.40688965 39.01047363 259.07104492 39.01586914 C223.03233287 39.14748379 187.03023923 38.72633254 151 38 C151 35.36 151 32.72 151 30 C132.19 30 113.38 30 94 30 C94 27.69 94 25.38 94 23 C79.48 23 64.96 23 50 23 C50 20.36 50 17.72 50 15 C37.46 15 24.92 15 12 15 C12 12.36 12 9.72 12 7 C8.04 7 4.08 7 0 7 C0 4.69 0 2.38 0 0 Z " fill="#F7E648" transform="translate(586,473)"/>
<path d="M0 0 C6.93 0 13.86 0 21 0 C21 1.65 21 3.3 21 5 C21.66 5 22.32 5 23 5 C23.12375 5.639375 23.2475 6.27875 23.375 6.9375 C23.58125 7.618125 23.7875 8.29875 24 9 C24.66 9.33 25.32 9.66 26 10 C26 11.98 26 13.96 26 16 C26.99 16 27.98 16 29 16 C29 17.65 29 19.3 29 21 C29.66 21 30.32 21 31 21 C31.12375 21.639375 31.2475 22.27875 31.375 22.9375 C31.58125 23.618125 31.7875 24.29875 32 25 C32.66 25.33 33.32 25.66 34 26 C34 27.98 34 29.96 34 32 C34.99 32 35.98 32 37 32 C37 33.65 37 35.3 37 37 C39.31 37.33 41.62 37.66 44 38 C44 36.02 44 34.04 44 32 C44.66 31.67 45.32 31.34 46 31 C46.65555119 28.47266765 46.65555119 28.47266765 47 26 C47.99 26 48.98 26 50 26 C50 24.35 50 22.7 50 21 C50.66 21 51.32 21 52 21 C52 19.35 52 17.7 52 16 C52.66 16 53.32 16 54 16 C54 14.35 54 12.7 54 11 C54.99 10.67 55.98 10.34 57 10 C57.33 8.35 57.66 6.7 58 5 C58.66 5 59.32 5 60 5 C60 3.35 60 1.7 60 0 C66.6 0 73.2 0 80 0 C80 0.99 80 1.98 80 3 C79.34 3 78.68 3 78 3 C78 4.32 78 5.64 78 7 C77.34 7 76.68 7 76 7 C76 7.99 76 8.98 76 10 C75.34 10 74.68 10 74 10 C74 11.65 74 13.3 74 15 C73.34 15 72.68 15 72 15 C72 16.32 72 17.64 72 19 C71.01 19 70.02 19 69 19 C69 20.65 69 22.3 69 24 C68.34 24 67.68 24 67 24 C67 25.65 67 27.3 67 29 C66.01 29 65.02 29 64 29 C64 30.65 64 32.3 64 34 C63.01 34 62.02 34 61 34 C61 35.98 61 37.96 61 40 C60.01 40 59.02 40 58 40 C58 41.65 58 43.3 58 45 C57.01 45.495 57.01 45.495 56 46 C55.34227572 49.02934491 55.34227572 49.02934491 55 52 C54.34 52 53.68 52 53 52 C53 52.99 53 53.98 53 55 C52.34 55 51.68 55 51 55 C51 56.32 51 57.64 51 59 C50.34 59 49.68 59 49 59 C49 60.32 49 61.64 49 63 C43.06 63 37.12 63 31 63 C31 61.35 31 59.7 31 58 C30.01 58 29.02 58 28 58 C27.690625 57.030625 27.38125 56.06125 27.0625 55.0625 C26.30476658 52.15934208 26.30476658 52.15934208 25 51 C24.95936168 49.33382885 24.957279 47.66611905 25 46 C24.34 46 23.68 46 23 46 C22.896875 45.21625 22.79375 44.4325 22.6875 43.625 C22.22404978 40.66954819 22.22404978 40.66954819 19 39 C18.8125 36.375 18.8125 36.375 19 34 C18.34 34 17.68 34 17 34 C17 32.35 17 30.7 17 29 C16.01 29 15.02 29 14 29 C14 27.35 14 25.7 14 24 C13.01 24 12.02 24 11 24 C9.50178941 20.62902617 9 18.79557881 9 15 C8.34 15 7.68 15 7 15 C7 13.68 7 12.36 7 11 C6.34 11 5.68 11 5 11 C4.67 10.01 4.34 9.02 4 8 C3.34 7.67 2.68 7.34 2 7 C2 6.01 2 5.02 2 4 C1.34 4 0.68 4 0 4 C0 2.68 0 1.36 0 0 Z " fill="#F7F7F7" transform="translate(538,584)"/>
<path d="M0 0 C22.77 0 45.54 0 69 0 C69 3.96 69 7.92 69 12 C59.76 12 50.52 12 41 12 C41 29.16 41 46.32 41 64 C36.38 64 31.76 64 27 64 C27 46.84 27 29.68 27 12 C18.09 12 9.18 12 0 12 C0 8.04 0 4.08 0 0 Z " fill="#F8F7F8" transform="translate(325,584)"/>
<path d="M0 0 C10.89 0 21.78 0 33 0 C33 2.31 33 4.62 33 7 C45.21 7 57.42 7 70 7 C70 9.64 70 12.28 70 15 C86.5 15 103 15 120 15 C120 17.31 120 19.62 120 22 C216.03 22 312.06 22 411 22 C411 22.33 411 22.66 411 23 C374.65201603 23.02304658 338.30403336 23.0405887 301.95604355 23.05106533 C297.63426991 23.05231557 293.31249628 23.05360994 288.99072266 23.05493164 C288.13057866 23.05519395 287.27043467 23.05545626 286.38422571 23.05572652 C272.57963509 23.06004084 258.77504877 23.06790424 244.97046067 23.0771528 C230.73432326 23.08660869 216.49818806 23.09208041 202.26204765 23.09408849 C194.29593182 23.09532023 186.32982491 23.09822781 178.36371231 23.10573006 C141.89782138 23.13910775 105.45680006 22.94037988 69 22 C69 19.69 69 17.38 69 15 C55.8 15 42.6 15 29 15 C29 12.36 29 9.72 29 7 C19.43 7 9.86 7 0 7 C0 4.69 0 2.38 0 0 Z " fill="#D18F0B" transform="translate(458,496)"/>
<path d="M0 0 C5.94 0 11.88 0 18 0 C18 21.45 18 42.9 18 65 C12.39 65 6.78 65 1 65 C0 64 0 64 -0.12025452 61.45005798 C-0.11803391 60.31532547 -0.11581329 59.18059296 -0.11352539 58.01147461 C-0.11344986 56.73022202 -0.11337433 55.44896942 -0.11329651 54.12889099 C-0.10818909 52.72004152 -0.10297309 51.31119244 -0.09765625 49.90234375 C-0.09579202 48.46887766 -0.09436814 47.03541093 -0.09336853 45.60194397 C-0.08954372 41.82240043 -0.07971377 38.0428951 -0.06866455 34.2633667 C-0.05844963 30.40930702 -0.05387074 26.55524118 -0.04882812 22.70117188 C-0.03809145 15.13409512 -0.02049497 7.56705777 0 0 Z " fill="#F4F4F4" transform="translate(504,583)"/>
<path d="M0 0 C2.64 0 5.28 0 8 0 C8 2.31 8 4.62 8 7 C5.69 7 3.38 7 1 7 C1 8.65 1 10.3 1 12 C-1.64 12.33 -4.28 12.66 -7 13 C-7.33 14.65 -7.66 16.3 -8 18 C-15.59 18 -23.18 18 -31 18 C-31 19.98 -31 21.96 -31 24 C-35.62 24 -40.24 24 -45 24 C-45 26.31 -45 28.62 -45 31 C-54.57 31 -64.14 31 -74 31 C-74 31.66 -74 32.32 -74 33 C-76.31 33 -78.62 33 -81 33 C-80.67 29.7 -80.34 26.4 -80 23 C-70.76 23 -61.52 23 -52 23 C-52 21.02 -52 19.04 -52 17 C-48.7 17 -45.4 17 -42 17 C-42 15.35 -42 13.7 -42 12 C-33.09 12 -24.18 12 -15 12 C-15 10.02 -15 8.04 -15 6 C-10.38 5.67 -5.76 5.34 -1 5 C-0.67 3.35 -0.34 1.7 0 0 Z " fill="#F9E84A" transform="translate(479,433)"/>
<path d="M0 0 C11.88 0 23.76 0 36 0 C36 0.99 36 1.98 36 3 C36.99 3.33 37.98 3.66 39 4 C39 6.31 39 8.62 39 11 C38.01 11 37.02 11 36 11 C36 11.99 36 12.98 36 14 C24.12 14 12.24 14 0 14 C0 9.38 0 4.76 0 0 Z " fill="#0F0E0E" transform="translate(173,596)"/>
<path d="M0 0 C10.89 0 21.78 0 33 0 C33 2.64 33 5.28 33 8 C44.88 8 56.76 8 69 8 C69 10.31 69 12.62 69 15 C55.8 15 42.6 15 29 15 C29 12.36 29 9.72 29 7 C19.43 7 9.86 7 0 7 C0 4.69 0 2.38 0 0 Z " fill="#BD7906" transform="translate(458,496)"/>
<path d="M0 0 C11.55 0 23.1 0 35 0 C35 0.99 35 1.98 35 3 C35.99 3 36.98 3 38 3 C38 5.64 38 8.28 38 11 C37.01 11 36.02 11 35 11 C35 11.99 35 12.98 35 14 C23.45 14 11.9 14 0 14 C0 9.38 0 4.76 0 0 Z " fill="#070707" transform="translate(174,622)"/>
<path d="M0 0 C4.78717542 -0.04943465 9.57420227 -0.08573582 14.36157227 -0.10986328 C15.99017932 -0.11992142 17.61876832 -0.13356958 19.24731445 -0.15087891 C21.58809872 -0.17513574 23.92864424 -0.18648483 26.26953125 -0.1953125 C27.36186821 -0.21079636 27.36186821 -0.21079636 28.47627258 -0.22659302 C32.21275069 -0.22742249 33.80675056 -0.12883296 37 2 C37.40843923 4.71203652 37.13336867 7.2437142 37 10 C36.01 10 35.02 10 34 10 C34 10.99 34 11.98 34 13 C22.78 13 11.56 13 0 13 C0 8.71 0 4.42 0 0 Z " fill="#111111" transform="translate(733,600)"/>
<path d="M0 0 C11.55 0 23.1 0 35 0 C35 0.99 35 1.98 35 3 C35.66 3 36.32 3 37 3 C37.36210749 9.39723241 37.36210749 9.39723241 35.97143555 11.7121582 C32.92068659 13.70506232 29.78963334 13.36781482 26.26953125 13.29296875 C25.51911057 13.28872391 24.76868988 13.28447906 23.99552917 13.28010559 C21.60081974 13.2633245 19.20695466 13.2256749 16.8125 13.1875 C15.1881632 13.17245235 13.5638132 13.15876409 11.93945312 13.14648438 C7.95931052 13.11342305 3.97979837 13.06164594 0 13 C0 8.71 0 4.42 0 0 Z " fill="#111111" transform="translate(428,600)"/>
<path d="M0 0 C2.31 0 4.62 0 7 0 C7 2.31 7 4.62 7 7 C5.02 7 3.04 7 1 7 C1.020625 7.804375 1.04125 8.60875 1.0625 9.4375 C1 12 1 12 0 13 C-1.99958364 13.04080783 -4.00045254 13.04254356 -6 13 C-6 14.65 -6 16.3 -6 18 C-10.95 18 -15.9 18 -21 18 C-21 19.98 -21 21.96 -21 24 C-23.64 24 -26.28 24 -29 24 C-29 25.65 -29 27.3 -29 29 C-33.0527516 29.98248524 -36.83861737 30.08159574 -41 30 C-41 28.02 -41 26.04 -41 24 C-39.02 24 -37.04 24 -35 24 C-35 21.69 -35 19.38 -35 17 C-30.38 17 -25.76 17 -21 17 C-21 15.35 -21 13.7 -21 12 C-18.03 12 -15.06 12 -12 12 C-12 10.02 -12 8.04 -12 6 C-8.04 6 -4.08 6 0 6 C0 4.02 0 2.04 0 0 Z " fill="#B06B02" transform="translate(627,433)"/>
<path d="M0 0 C6.93 0 13.86 0 21 0 C21 2.64 21 5.28 21 8 C26.94 8 32.88 8 39 8 C39 10.31 39 12.62 39 15 C31.08 15 23.16 15 15 15 C15 12.69 15 10.38 15 8 C10.05 8 5.1 8 0 8 C0 5.36 0 2.72 0 0 Z " fill="#C17B04" transform="translate(419,480)"/>
<path d="M0 0 C16.5 0 33 0 50 0 C49.67 1.98 49.34 3.96 49 6 C32.83 6 16.66 6 0 6 C0 4.02 0 2.04 0 0 Z " fill="#FDD52A" transform="translate(528,504)"/>
<path d="M0 0 C2.31 0 4.62 0 7 0 C6.67 0.99 6.34 1.98 6 3 C8.31 3 10.62 3 13 3 C13 5.31 13 7.62 13 10 C17.62 10 22.24 10 27 10 C27 12.31 27 14.62 27 17 C20.4 17 13.8 17 7 17 C7 14.69 7 12.38 7 10 C4.69 10 2.38 10 0 10 C0 6.7 0 3.4 0 0 Z " fill="#C78105" transform="translate(392,463)"/>
<path d="M0 0 C3.96930989 -0.02465881 7.93859034 -0.04284023 11.90795898 -0.05493164 C13.25920386 -0.05997057 14.61044326 -0.06680177 15.96166992 -0.07543945 C17.90020434 -0.08752419 19.838778 -0.09269828 21.77734375 -0.09765625 C23.52905884 -0.10551147 23.52905884 -0.10551147 25.31616211 -0.11352539 C28 0 28 0 29 1 C29 2.98 29 4.96 29 7 C19.43 7 9.86 7 0 7 C0 4.69 0 2.38 0 0 Z " fill="#B77103" transform="translate(458,496)"/>
<path d="M0 0 C7.45084641 -0.02336702 14.90168893 -0.0410374 22.35256386 -0.05181217 C25.81383196 -0.05698848 29.27507464 -0.06398826 32.73632812 -0.07543945 C36.73307513 -0.08857663 40.72979623 -0.09327154 44.7265625 -0.09765625 C46.55400497 -0.10539818 46.55400497 -0.10539818 48.41836548 -0.11329651 C56.6620137 -0.1138241 64.78619227 0.30934083 73 1 C73 2.98 73 4.96 73 7 C66.4 7 59.8 7 53 7 C53 5.02 53 3.04 53 1 C35.51 1 18.02 1 0 1 C0 0.67 0 0.34 0 0 Z " fill="#FDE136" transform="translate(796,511)"/>
<path d="M0 0 C12.87 0.495 12.87 0.495 26 1 C26 5.29 26 9.58 26 14 C25.67 14 25.34 14 25 14 C25 11.69 25 9.38 25 7 C16.75 7 8.5 7 0 7 C0 4.69 0 2.38 0 0 Z " fill="#B66E02" transform="translate(425,385)"/>
<path d="M0 0 C2.31 0 4.62 0 7 0 C7 2.31 7 4.62 7 7 C5.02 7 3.04 7 1 7 C1.020625 7.804375 1.04125 8.60875 1.0625 9.4375 C1 12 1 12 0 13 C-2.65463121 13.45459858 -5.32189138 13.70243238 -8 14 C-8 13.34 -8 12.68 -8 12 C-9.32 12 -10.64 12 -12 12 C-12 10.02 -12 8.04 -12 6 C-8.04 6 -4.08 6 0 6 C0 4.02 0 2.04 0 0 Z " fill="#CA8508" transform="translate(627,433)"/>
<path d="M0 0 C1.65 0 3.3 0 5 0 C6 1 6 1 6.11352539 2.85766602 C6.10828857 3.64842529 6.10305176 4.43918457 6.09765625 5.25390625 C6.09443359 6.10791016 6.09121094 6.96191406 6.08789062 7.84179688 C6.07951172 8.73962891 6.07113281 9.63746094 6.0625 10.5625 C6.05798828 11.46419922 6.05347656 12.36589844 6.04882812 13.29492188 C6.03700225 15.53001314 6.0205222 17.76497437 6 20 C4.02 20 2.04 20 0 20 C0 13.4 0 6.8 0 0 Z " fill="#FEEC4E" transform="translate(488,413)"/>
<path d="M0 0 C5.28 0.33 10.56 0.66 16 1 C16 2.98 16 4.96 16 7 C15 8 15 8 11.62109375 8.09765625 C10.22652923 8.09098369 8.83198257 8.07902532 7.4375 8.0625 C6.37112305 8.05573242 6.37112305 8.05573242 5.28320312 8.04882812 C3.52209987 8.03700864 1.76103964 8.01907263 0 8 C0 5.36 0 2.72 0 0 Z " fill="#B16802" transform="translate(419,480)"/>
<path d="M0 0 C2.31 0 4.62 0 7 0 C6.67 0.99 6.34 1.98 6 3 C8.31 3 10.62 3 13 3 C13 4.98 13 6.96 13 9 C8.38926889 10.29676812 4.66159911 9.71109139 0 9 C0 6.03 0 3.06 0 0 Z " fill="#CD8608" transform="translate(392,463)"/>
<path d="M0 0 C3.96 0 7.92 0 12 0 C12 2.31 12 4.62 12 7 C8.04 7 4.08 7 0 7 C0 4.69 0 2.38 0 0 Z " fill="#FCEF53" transform="translate(586,473)"/>
<path d="M0 0 C2.14576637 -0.02685938 4.29162645 -0.04633088 6.4375 -0.0625 C7.63246094 -0.07410156 8.82742188 -0.08570313 10.05859375 -0.09765625 C13 0 13 0 14 1 C14 2.65 14 4.3 14 6 C19.445 6.495 19.445 6.495 25 7 C25 7.33 25 7.66 25 8 C19.06 8 13.12 8 7 8 C7 5.69 7 3.38 7 1 C4.69 1 2.38 1 0 1 C0 0.67 0 0.34 0 0 Z " fill="#A36104" transform="translate(392,472)"/>
<path d="M0 0 C3.96 0 7.92 0 12 0 C12 1.65 12 3.3 12 5 C7.9472484 5.98248524 4.16138263 6.08159574 0 6 C0 4.02 0 2.04 0 0 Z " fill="#B56A00" transform="translate(586,457)"/>
<path d="M0 0 C6.6 0 13.2 0 20 0 C20 2.64 20 5.28 20 8 C18.02 8 16.04 8 14 8 C14.33 5.69 14.66 3.38 15 1 C10.05 1 5.1 1 0 1 C0 0.67 0 0.34 0 0 Z " fill="#D08A07" transform="translate(420,480)"/>
<path d="M0 0 C2.64 0 5.28 0 8 0 C8 2.31 8 4.62 8 7 C5.36 7 2.72 7 0 7 C0 4.69 0 2.38 0 0 Z " fill="#FDF25C" transform="translate(479,433)"/>
<path d="M0 0 C7.92 0 15.84 0 24 0 C24 2.31 24 4.62 24 7 C22.35 7.33 20.7 7.66 19 8 C19 5.69 19 3.38 19 1 C12.73 1 6.46 1 0 1 C0 0.67 0 0.34 0 0 Z " fill="#D38D06" transform="translate(432,385)"/>
<path d="M0 0 C1.2065625 0.0309375 1.2065625 0.0309375 2.4375 0.0625 C2.4375 2.7025 2.4375 5.3425 2.4375 8.0625 C0.4575 8.0625 -1.5225 8.0625 -3.5625 8.0625 C-3.60491723 5.72955225 -3.60342937 3.39547433 -3.5625 1.0625 C-2.5625 0.0625 -2.5625 0.0625 0 0 Z " fill="#FDE73E" transform="translate(582.5625,463.9375)"/>
<path d="M0 0 C1.98 0 3.96 0 6 0 C6 2.64 6 5.28 6 8 C3.03 7.505 3.03 7.505 0 7 C0 4.69 0 2.38 0 0 Z " fill="#BB7503" transform="translate(481,408)"/>
<path d="M0 0 C2.31 0 4.62 0 7 0 C7.042721 1.66611905 7.04063832 3.33382885 7 5 C6 6 6 6 2.9375 6.0625 C1.4834375 6.0315625 1.4834375 6.0315625 0 6 C0 4.02 0 2.04 0 0 Z " fill="#A46002" transform="translate(621,440)"/>
<path d="M0 0 C1.2065625 0.0309375 1.2065625 0.0309375 2.4375 0.0625 C2.4375 2.3725 2.4375 4.6825 2.4375 7.0625 C0.4575 7.0625 -1.5225 7.0625 -3.5625 7.0625 C-3.60504356 5.06295254 -3.60330783 3.06208364 -3.5625 1.0625 C-2.5625 0.0625 -2.5625 0.0625 0 0 Z " fill="#FEE02E" transform="translate(484.5625,399.9375)"/>
<path d="M0 0 C2.31 0 4.62 0 7 0 C7 1.65 7 3.3 7 5 C4.36 5 1.72 5 -1 5 C-0.67 3.35 -0.34 1.7 0 0 Z " fill="#FEDF35" transform="translate(607,439)"/>
<path d="M0 0 C1.98 0 3.96 0 6 0 C6 1.98 6 3.96 6 6 C4.02 6 2.04 6 0 6 C0 4.02 0 2.04 0 0 Z " fill="#B66A01" transform="translate(628,434)"/>
<path d="M0 0 C1.98 0 3.96 0 6 0 C6 1.98 6 3.96 6 6 C4.02 6 2.04 6 0 6 C0 4.02 0 2.04 0 0 Z " fill="#F4B71A" transform="translate(621,433)"/>
<path d="M0 0 C1.98 0 3.96 0 6 0 C6 1.65 6 3.3 6 5 C4.02 5.33 2.04 5.66 0 6 C0 4.02 0 2.04 0 0 Z " fill="#864800" transform="translate(592,457)"/>
<path d="M0 0 C1.65 0 3.3 0 5 0 C5 2.31 5 4.62 5 7 C3.68 7 2.36 7 1 7 C0.67 4.69 0.34 2.38 0 0 Z " fill="#D58E07" transform="translate(486,496)"/>
<path d="M0 0 C1.32 0 2.64 0 4 0 C4 1.98 4 3.96 4 6 C2.35 6 0.7 6 -1 6 C-1.042721 4.33388095 -1.04063832 2.66617115 -1 1 C-0.67 0.67 -0.34 0.34 0 0 Z " fill="#FED833" transform="translate(587,450)"/>
<path d="M0 0 C1.64666203 0.1135629 3.29236082 0.24117381 4.9375 0.375 C5.85402344 0.44460938 6.77054688 0.51421875 7.71484375 0.5859375 C8.84599609 0.79089844 8.84599609 0.79089844 10 1 C10.33 1.66 10.66 2.32 11 3 C7.37 3 3.74 3 0 3 C0 2.01 0 1.02 0 0 Z " fill="#C37802" transform="translate(606,447)"/>
<path d="M0 0 C0.33 0 0.66 0 1 0 C1.82622671 5.60563042 2.06795656 10.42289352 1 16 C0.67 16 0.34 16 0 16 C0 13.69 0 11.38 0 9 C-1.98 9 -3.96 9 -6 9 C-6 8.67 -6 8.34 -6 8 C-4.02 8 -2.04 8 0 8 C0 5.36 0 2.72 0 0 Z " fill="#F2CD32" transform="translate(585,464)"/>
<path d="M0 0 C1.32 0 2.64 0 4 0 C4 1.65 4 3.3 4 5 C2.68 5 1.36 5 0 5 C0 3.35 0 1.7 0 0 Z " fill="#FEEF41" transform="translate(482,402)"/>
</svg>
