<?xml version="1.0" encoding="UTF-8"?>
<svg version="1.1" xmlns="http://www.w3.org/2000/svg" width="1024" height="1536">
<path d="M0 0 C1.35718152 -0.00413962 1.35718152 -0.00413962 2.74178085 -0.00836286 C4.25308923 -0.00527988 4.25308923 -0.00527988 5.79492909 -0.00213462 C6.85915916 -0.00388766 7.92338923 -0.0056407 9.0198687 -0.00744686 C12.63411071 -0.01214864 16.24831322 -0.00963072 19.86255699 -0.00721294 C22.46061923 -0.00907881 25.05868119 -0.01137861 27.65674269 -0.01407826 C33.33027158 -0.01924766 39.00379192 -0.02064681 44.67732292 -0.01962215 C53.11385381 -0.01810217 61.5503752 -0.02224793 69.98690425 -0.02749677 C85.92825964 -0.03718716 101.86961183 -0.03998164 117.81096982 -0.04055383 C130.11737674 -0.04101267 142.4237824 -0.04306735 154.73018891 -0.04625446 C158.2674706 -0.04715194 161.80475229 -0.04804176 165.34203398 -0.04892933 C166.66095066 -0.04926091 166.66095066 -0.04926091 168.00651213 -0.04959918 C192.75181837 -0.05575667 217.49712418 -0.0596994 242.24243122 -0.0592559 C243.64295949 -0.05923253 243.64295949 -0.05923253 245.07178126 -0.05920869 C249.80452055 -0.05912558 254.53725984 -0.05902654 259.26999914 -0.05892398 C260.21000639 -0.05890404 261.15001365 -0.05888409 262.11850597 -0.05886354 C264.01943082 -0.05882311 265.92035567 -0.05878131 267.82128052 -0.05873815 C297.40670462 -0.05812519 326.99211726 -0.0656345 356.57753807 -0.07931072 C389.78511196 -0.09465483 422.99267833 -0.10327795 456.20025599 -0.10234749 C459.73785204 -0.10227286 463.27544808 -0.10222415 466.81304413 -0.10219318 C467.68414759 -0.10218152 468.55525104 -0.10216987 469.45275157 -0.10215786 C483.50115469 -0.10212702 497.5495479 -0.1085263 511.59794807 -0.11712544 C525.70463763 -0.12558197 539.81131263 -0.12660763 553.91800331 -0.12001612 C562.30928596 -0.11630708 570.70052451 -0.11819293 579.09180253 -0.12795846 C585.34181829 -0.13462036 591.59178639 -0.13094201 597.84179986 -0.12308524 C600.38216589 -0.12153494 602.92253662 -0.12342305 605.46289711 -0.12894531 C608.89410516 -0.13591487 612.32507903 -0.13078386 615.75627857 -0.12238914 C616.76147633 -0.12735732 617.76667408 -0.1323255 618.80233237 -0.13744423 C619.70962357 -0.13269342 620.61691477 -0.1279426 621.55169964 -0.12304783 C622.33730628 -0.12313605 623.12291293 -0.12322427 623.93232584 -0.12331517 C625.8385244 0.12649983 625.8385244 0.12649983 627.8385244 2.12649983 C629.0141494 2.58024983 630.1897744 3.03399983 631.4010244 3.50149983 C634.8385244 5.12649983 634.8385244 5.12649983 635.7760244 7.31399983 C635.8069619 8.21118733 635.8069619 8.21118733 635.8385244 9.12649983 C637.4885244 9.12649983 639.1385244 9.12649983 640.8385244 9.12649983 C641.1685244 10.11649983 641.4985244 11.10649983 641.8385244 12.12649983 C644.1485244 12.12649983 646.4585244 12.12649983 648.8385244 12.12649983 C648.8385244 14.43649983 648.8385244 16.74649983 648.8385244 19.12649983 C651.1485244 19.12649983 653.4585244 19.12649983 655.8385244 19.12649983 C655.8385244 22.09649983 655.8385244 25.06649983 655.8385244 28.12649983 C657.8185244 28.12649983 659.7985244 28.12649983 661.8385244 28.12649983 C661.8385244 32.74649983 661.8385244 37.36649983 661.8385244 42.12649983 C662.8285244 42.12649983 663.8185244 42.12649983 664.8385244 42.12649983 C664.8385244 352.32649983 664.8385244 662.52649983 664.8385244 982.12649983 C663.8485244 982.12649983 662.8585244 982.12649983 661.8385244 982.12649983 C661.5085244 987.07649983 661.1785244 992.02649983 660.8385244 997.12649983 C658.8585244 997.45649983 656.8785244 997.78649983 654.8385244 998.12649983 C654.8385244 1000.43649983 654.8385244 1002.74649983 654.8385244 1005.12649983 C652.8585244 1005.12649983 650.8785244 1005.12649983 648.8385244 1005.12649983 C648.5085244 1007.10649983 648.1785244 1009.08649983 647.8385244 1011.12649983 C639.0385244 1014.12649983 639.0385244 1014.12649983 635.8385244 1014.12649983 C635.8385244 1015.44649983 635.8385244 1016.76649983 635.8385244 1018.12649983 C632.8685244 1018.12649983 629.8985244 1018.12649983 626.8385244 1018.12649983 C626.8591494 1018.93087483 626.8797744 1019.73524983 626.9010244 1020.56399983 C626.8385244 1023.12649983 626.8385244 1023.12649983 625.8385244 1024.12649983 C624.45336721 1024.22340733 623.06329039 1024.25097389 621.67474747 1024.25069833 C620.76944734 1024.25294562 619.86414721 1024.25519291 618.93141374 1024.25750831 C617.92330313 1024.25488129 616.91519251 1024.25225428 615.87653309 1024.24954766 C614.81170383 1024.2507015 613.74687456 1024.25185535 612.64977774 1024.25304416 C609.0335145 1024.25571938 605.4172946 1024.25118126 601.80103356 1024.24675435 C599.20154616 1024.24718987 596.60205882 1024.24806441 594.0025717 1024.24934351 C588.32598037 1024.25142307 582.64939949 1024.2497636 576.97280937 1024.24570531 C568.53183643 1024.23968741 560.09087011 1024.2393679 551.64989541 1024.2402473 C537.45304926 1024.24156339 523.25620775 1024.23821148 509.05936295 1024.23222989 C494.99590268 1024.22631964 480.93244435 1024.22246531 466.86898285 1024.22137707 C465.99565312 1024.22130834 465.12232339 1024.2212396 464.22252912 1024.22116877 C459.78760978 1024.22083046 455.35269045 1024.22052907 450.91777111 1024.2202419 C419.47786138 1024.21813961 388.03795419 1024.21139704 356.59804589 1024.20193928 C326.04824134 1024.19275987 295.49843748 1024.1856738 264.94863182 1024.18143147 C264.00750812 1024.18129995 263.06638443 1024.18116842 262.09674183 1024.18103291 C252.6458795 1024.17971443 243.19501717 1024.17843861 233.74415483 1024.17719405 C214.49041946 1024.17465761 195.23668414 1024.17183635 175.98294884 1024.16884297 C175.09762811 1024.16870568 174.21230738 1024.16856839 173.30015874 1024.16842694 C114.14627958 1024.15922107 54.99240182 1024.14337527 -4.1614756 1024.12649983 C-4.1614756 1022.14649983 -4.1614756 1020.16649983 -4.1614756 1018.12649983 C-7.7914756 1018.12649983 -11.4214756 1018.12649983 -15.1614756 1018.12649983 C-15.4914756 1016.80649983 -15.8214756 1015.48649983 -16.1614756 1014.12649983 C-16.8214756 1014.12649983 -17.4814756 1014.12649983 -18.1614756 1014.12649983 C-18.4914756 1013.46649983 -18.8214756 1012.80649983 -19.1614756 1012.12649983 C-21.68880795 1011.47094864 -21.68880795 1011.47094864 -24.1614756 1011.12649983 C-24.4914756 1009.14649983 -24.8214756 1007.16649983 -25.1614756 1005.12649983 C-27.1414756 1005.12649983 -29.1214756 1005.12649983 -31.1614756 1005.12649983 C-31.1614756 1002.81649983 -31.1614756 1000.50649983 -31.1614756 998.12649983 C-32.3680381 998.15743733 -32.3680381 998.15743733 -33.5989756 998.18899983 C-36.1614756 998.12649983 -36.1614756 998.12649983 -37.1614756 997.12649983 C-37.23419301 994.77336429 -37.24518428 992.41816315 -37.2239756 990.06399983 C-37.21495216 988.77364827 -37.20592872 987.48329671 -37.19663185 986.15384358 C-37.18503029 985.15482014 -37.17342872 984.15579671 -37.1614756 983.12649983 C-38.4814756 983.12649983 -39.8014756 983.12649983 -41.1614756 983.12649983 C-41.1614756 672.26649983 -41.1614756 361.40649983 -41.1614756 41.12649983 C-39.8414756 41.12649983 -38.5214756 41.12649983 -37.1614756 41.12649983 C-36.8314756 36.83649983 -36.5014756 32.54649983 -36.1614756 28.12649983 C-34.5114756 28.12649983 -32.8614756 28.12649983 -31.1614756 28.12649983 C-31.1614756 25.48649983 -31.1614756 22.84649983 -31.1614756 20.12649983 C-29.1814756 19.46649983 -27.2014756 18.80649983 -25.1614756 18.12649983 C-25.1821006 17.32212483 -25.2027256 16.51774983 -25.2239756 15.68899983 C-25.1614756 13.12649983 -25.1614756 13.12649983 -24.1614756 12.12649983 C-22.16189196 12.085692 -20.16102306 12.08395627 -18.1614756 12.12649983 C-18.1614756 11.13649983 -18.1614756 10.14649983 -18.1614756 9.12649983 C-15.8514756 9.12649983 -13.5414756 9.12649983 -11.1614756 9.12649983 C-11.1614756 7.47649983 -11.1614756 5.82649983 -11.1614756 4.12649983 C-6.4114756 3.00149983 -6.4114756 3.00149983 -4.1614756 4.12649983 C-4.6564756 2.64149983 -4.6564756 2.64149983 -5.1614756 1.12649983 C-3.61153852 -0.42343725 -2.1584349 0.00080095 0 0 Z " fill="#F4F1EB" transform="translate(200.1614755988121,216.87350016832352)"/>
<path d="M0 0 C1.35718152 -0.00413962 1.35718152 -0.00413962 2.74178085 -0.00836286 C4.25308923 -0.00527988 4.25308923 -0.00527988 5.79492909 -0.00213462 C6.85915916 -0.00388766 7.92338923 -0.0056407 9.0198687 -0.00744686 C12.63411071 -0.01214864 16.24831322 -0.00963072 19.86255699 -0.00721294 C22.46061923 -0.00907881 25.05868119 -0.01137861 27.65674269 -0.01407826 C33.33027158 -0.01924766 39.00379192 -0.02064681 44.67732292 -0.01962215 C53.11385381 -0.01810217 61.5503752 -0.02224793 69.98690425 -0.02749677 C85.92825964 -0.03718716 101.86961183 -0.03998164 117.81096982 -0.04055383 C130.11737674 -0.04101267 142.4237824 -0.04306735 154.73018891 -0.04625446 C158.2674706 -0.04715194 161.80475229 -0.04804176 165.34203398 -0.04892933 C166.66095066 -0.04926091 166.66095066 -0.04926091 168.00651213 -0.04959918 C192.75181837 -0.05575667 217.49712418 -0.0596994 242.24243122 -0.0592559 C243.64295949 -0.05923253 243.64295949 -0.05923253 245.07178126 -0.05920869 C249.80452055 -0.05912558 254.53725984 -0.05902654 259.26999914 -0.05892398 C260.21000639 -0.05890404 261.15001365 -0.05888409 262.11850597 -0.05886354 C264.01943082 -0.05882311 265.92035567 -0.05878131 267.82128052 -0.05873815 C297.40670462 -0.05812519 326.99211726 -0.0656345 356.57753807 -0.07931072 C389.78511196 -0.09465483 422.99267833 -0.10327795 456.20025599 -0.10234749 C459.73785204 -0.10227286 463.27544808 -0.10222415 466.81304413 -0.10219318 C467.68414759 -0.10218152 468.55525104 -0.10216987 469.45275157 -0.10215786 C483.50115469 -0.10212702 497.5495479 -0.1085263 511.59794807 -0.11712544 C525.70463763 -0.12558197 539.81131263 -0.12660763 553.91800331 -0.12001612 C562.30928596 -0.11630708 570.70052451 -0.11819293 579.09180253 -0.12795846 C585.34181829 -0.13462036 591.59178639 -0.13094201 597.84179986 -0.12308524 C600.38216589 -0.12153494 602.92253662 -0.12342305 605.46289711 -0.12894531 C608.89410516 -0.13591487 612.32507903 -0.13078386 615.75627857 -0.12238914 C616.76147633 -0.12735732 617.76667408 -0.1323255 618.80233237 -0.13744423 C619.70962357 -0.13269342 620.61691477 -0.1279426 621.55169964 -0.12304783 C622.33730628 -0.12313605 623.12291293 -0.12322427 623.93232584 -0.12331517 C625.8385244 0.12649983 625.8385244 0.12649983 627.8385244 2.12649983 C629.0141494 2.58024983 630.1897744 3.03399983 631.4010244 3.50149983 C634.8385244 5.12649983 634.8385244 5.12649983 635.7760244 7.31399983 C635.8069619 8.21118733 635.8069619 8.21118733 635.8385244 9.12649983 C637.4885244 9.12649983 639.1385244 9.12649983 640.8385244 9.12649983 C641.1685244 10.11649983 641.4985244 11.10649983 641.8385244 12.12649983 C644.1485244 12.12649983 646.4585244 12.12649983 648.8385244 12.12649983 C648.8385244 14.43649983 648.8385244 16.74649983 648.8385244 19.12649983 C651.1485244 19.12649983 653.4585244 19.12649983 655.8385244 19.12649983 C655.8385244 22.09649983 655.8385244 25.06649983 655.8385244 28.12649983 C657.8185244 28.12649983 659.7985244 28.12649983 661.8385244 28.12649983 C661.8385244 32.74649983 661.8385244 37.36649983 661.8385244 42.12649983 C662.8285244 42.12649983 663.8185244 42.12649983 664.8385244 42.12649983 C664.8385244 352.32649983 664.8385244 662.52649983 664.8385244 982.12649983 C663.8485244 982.12649983 662.8585244 982.12649983 661.8385244 982.12649983 C661.5085244 987.07649983 661.1785244 992.02649983 660.8385244 997.12649983 C658.8585244 997.45649983 656.8785244 997.78649983 654.8385244 998.12649983 C654.8385244 1000.43649983 654.8385244 1002.74649983 654.8385244 1005.12649983 C652.8585244 1005.12649983 650.8785244 1005.12649983 648.8385244 1005.12649983 C648.5085244 1007.10649983 648.1785244 1009.08649983 647.8385244 1011.12649983 C639.0385244 1014.12649983 639.0385244 1014.12649983 635.8385244 1014.12649983 C635.8385244 1015.44649983 635.8385244 1016.76649983 635.8385244 1018.12649983 C632.8685244 1018.12649983 629.8985244 1018.12649983 626.8385244 1018.12649983 C626.8591494 1018.93087483 626.8797744 1019.73524983 626.9010244 1020.56399983 C626.8385244 1023.12649983 626.8385244 1023.12649983 625.8385244 1024.12649983 C624.45336721 1024.22340733 623.06329039 1024.25097389 621.67474747 1024.25069833 C620.76944734 1024.25294562 619.86414721 1024.25519291 618.93141374 1024.25750831 C617.92330313 1024.25488129 616.91519251 1024.25225428 615.87653309 1024.24954766 C614.81170383 1024.2507015 613.74687456 1024.25185535 612.64977774 1024.25304416 C609.0335145 1024.25571938 605.4172946 1024.25118126 601.80103356 1024.24675435 C599.20154616 1024.24718987 596.60205882 1024.24806441 594.0025717 1024.24934351 C588.32598037 1024.25142307 582.64939949 1024.2497636 576.97280937 1024.24570531 C568.53183643 1024.23968741 560.09087011 1024.2393679 551.64989541 1024.2402473 C537.45304926 1024.24156339 523.25620775 1024.23821148 509.05936295 1024.23222989 C494.99590268 1024.22631964 480.93244435 1024.22246531 466.86898285 1024.22137707 C465.99565312 1024.22130834 465.12232339 1024.2212396 464.22252912 1024.22116877 C459.78760978 1024.22083046 455.35269045 1024.22052907 450.91777111 1024.2202419 C419.47786138 1024.21813961 388.03795419 1024.21139704 356.59804589 1024.20193928 C326.04824134 1024.19275987 295.49843748 1024.1856738 264.94863182 1024.18143147 C264.00750812 1024.18129995 263.06638443 1024.18116842 262.09674183 1024.18103291 C252.6458795 1024.17971443 243.19501717 1024.17843861 233.74415483 1024.17719405 C214.49041946 1024.17465761 195.23668414 1024.17183635 175.98294884 1024.16884297 C175.09762811 1024.16870568 174.21230738 1024.16856839 173.30015874 1024.16842694 C114.14627958 1024.15922107 54.99240182 1024.14337527 -4.1614756 1024.12649983 C-4.1614756 1022.14649983 -4.1614756 1020.16649983 -4.1614756 1018.12649983 C-7.7914756 1018.12649983 -11.4214756 1018.12649983 -15.1614756 1018.12649983 C-15.4914756 1016.80649983 -15.8214756 1015.48649983 -16.1614756 1014.12649983 C-16.8214756 1014.12649983 -17.4814756 1014.12649983 -18.1614756 1014.12649983 C-18.4914756 1013.46649983 -18.8214756 1012.80649983 -19.1614756 1012.12649983 C-21.68880795 1011.47094864 -21.68880795 1011.47094864 -24.1614756 1011.12649983 C-24.4914756 1009.14649983 -24.8214756 1007.16649983 -25.1614756 1005.12649983 C-27.1414756 1005.12649983 -29.1214756 1005.12649983 -31.1614756 1005.12649983 C-31.1614756 1002.81649983 -31.1614756 1000.50649983 -31.1614756 998.12649983 C-32.3680381 998.15743733 -32.3680381 998.15743733 -33.5989756 998.18899983 C-36.1614756 998.12649983 -36.1614756 998.12649983 -37.1614756 997.12649983 C-37.23419301 994.77336429 -37.24518428 992.41816315 -37.2239756 990.06399983 C-37.21495216 988.77364827 -37.20592872 987.48329671 -37.19663185 986.15384358 C-37.18503029 985.15482014 -37.17342872 984.15579671 -37.1614756 983.12649983 C-38.4814756 983.12649983 -39.8014756 983.12649983 -41.1614756 983.12649983 C-41.1614756 672.26649983 -41.1614756 361.40649983 -41.1614756 41.12649983 C-39.8414756 41.12649983 -38.5214756 41.12649983 -37.1614756 41.12649983 C-36.8314756 36.83649983 -36.5014756 32.54649983 -36.1614756 28.12649983 C-34.5114756 28.12649983 -32.8614756 28.12649983 -31.1614756 28.12649983 C-31.1614756 25.48649983 -31.1614756 22.84649983 -31.1614756 20.12649983 C-29.1814756 19.46649983 -27.2014756 18.80649983 -25.1614756 18.12649983 C-25.1821006 17.32212483 -25.2027256 16.51774983 -25.2239756 15.68899983 C-25.1614756 13.12649983 -25.1614756 13.12649983 -24.1614756 12.12649983 C-22.16189196 12.085692 -20.16102306 12.08395627 -18.1614756 12.12649983 C-18.1614756 11.13649983 -18.1614756 10.14649983 -18.1614756 9.12649983 C-15.8514756 9.12649983 -13.5414756 9.12649983 -11.1614756 9.12649983 C-11.1614756 7.47649983 -11.1614756 5.82649983 -11.1614756 4.12649983 C-6.4114756 3.00149983 -6.4114756 3.00149983 -4.1614756 4.12649983 C-4.6564756 2.64149983 -4.6564756 2.64149983 -5.1614756 1.12649983 C-3.61153852 -0.42343725 -2.1584349 0.00080095 0 0 Z M1.8385244 9.12649983 C1.8385244 11.10649983 1.8385244 13.08649983 1.8385244 15.12649983 C-2.4514756 15.12649983 -6.7414756 15.12649983 -11.1614756 15.12649983 C-11.4914756 16.77649983 -11.8214756 18.42649983 -12.1614756 20.12649983 C-14.1414756 20.45649983 -16.1214756 20.78649983 -18.1614756 21.12649983 C-18.1614756 23.76649983 -18.1614756 26.40649983 -18.1614756 29.12649983 C-20.1414756 29.12649983 -22.1214756 29.12649983 -24.1614756 29.12649983 C-25.20316112 38.10141805 -25.30222922 47.02477001 -25.28731674 56.04595441 C-25.28836128 57.64941628 -25.28984357 59.25287792 -25.29172111 60.85633904 C-25.29560782 65.25722312 -25.29328902 69.65808521 -25.28994315 74.05896893 C-25.28740379 78.84890973 -25.29066743 83.6388472 -25.29318649 88.42878753 C-25.29679756 96.82213139 -25.29668897 105.21546883 -25.29413933 113.60881299 C-25.29035818 126.09008816 -25.2922899 138.5713579 -25.29534763 151.05263303 C-25.30061539 173.344236 -25.30015615 195.6358361 -25.29726872 217.92743935 C-25.29475411 237.43633491 -25.29409602 256.94522942 -25.29529136 276.45412511 C-25.29536775 277.74771659 -25.29544413 279.04130807 -25.29552283 280.37409929 C-25.29583417 285.62510444 -25.29615257 290.87610959 -25.2964826 296.12711474 C-25.29739418 310.80583242 -25.2979702 325.48455009 -25.29826874 340.16326779 C-25.29828238 340.8316961 -25.29829603 341.50012441 -25.29831009 342.18880813 C-25.29871934 363.48686299 -25.29759259 384.78491748 -25.29541916 406.08297223 C-25.29534891 406.77371896 -25.29527866 407.46446569 -25.29520628 408.17614415 C-25.29406135 419.39323572 -25.29284188 430.61032729 -25.29161611 441.82741885 C-25.28676037 486.30992602 -25.28698471 530.79243018 -25.29184669 575.27493733 C-25.2930679 586.48400499 -25.29427896 597.69307265 -25.29541916 608.90214032 C-25.2954896 609.59234129 -25.29556005 610.28254226 -25.29563264 610.99365841 C-25.29778919 632.26782086 -25.29870302 653.54198305 -25.29826874 674.8161456 C-25.29825515 675.48410929 -25.29824157 676.15207299 -25.29822757 676.84027801 C-25.29790106 692.16182203 -25.29719728 707.48336601 -25.29623443 722.80491 C-25.29591371 728.04702101 -25.29560087 733.28913202 -25.29529136 738.53124303 C-25.29521229 739.82200072 -25.29513321 741.11275842 -25.29505174 742.44262998 C-25.29391404 761.93843347 -25.29524497 781.43423579 -25.29777092 800.93003911 C-25.30062876 823.09815461 -25.29991838 845.2662668 -25.29449017 867.43438189 C-25.29155209 879.84259799 -25.29136481 892.25080692 -25.29513635 904.65902285 C-25.29737756 912.94619468 -25.29598526 921.23336075 -25.29163158 929.52053172 C-25.28925171 934.24293396 -25.28844179 938.96532194 -25.29203756 943.68772374 C-25.29527839 947.98782414 -25.29388024 952.28789767 -25.2888569 956.58799613 C-25.2878537 958.13001171 -25.28850536 959.67202954 -25.29106284 961.21404333 C-25.30494603 970.22785507 -25.00730073 979.14741856 -24.1614756 988.12649983 C-22.1814756 988.12649983 -20.2014756 988.12649983 -18.1614756 988.12649983 C-18.1614756 992.08649983 -18.1614756 996.04649983 -18.1614756 1000.12649983 C-15.8514756 1000.12649983 -13.5414756 1000.12649983 -11.1614756 1000.12649983 C-11.1614756 1002.43649983 -11.1614756 1004.74649983 -11.1614756 1007.12649983 C-8.1914756 1007.12649983 -5.2214756 1007.12649983 -2.1614756 1007.12649983 C-2.1614756 1008.11649983 -2.1614756 1009.10649983 -2.1614756 1010.12649983 C-1.5014756 1010.12649983 -0.8414756 1010.12649983 -0.1614756 1010.12649983 C-0.1614756 1011.11649983 -0.1614756 1012.10649983 -0.1614756 1013.12649983 C205.0985244 1013.12649983 410.3585244 1013.12649983 621.8385244 1013.12649983 C621.8385244 1010.81649983 621.8385244 1008.50649983 621.8385244 1006.12649983 C626.1285244 1006.12649983 630.4185244 1006.12649983 634.8385244 1006.12649983 C634.8385244 1003.81649983 634.8385244 1001.50649983 634.8385244 999.12649983 C637.4785244 999.12649983 640.1185244 999.12649983 642.8385244 999.12649983 C642.8385244 995.16649983 642.8385244 991.20649983 642.8385244 987.12649983 C644.8185244 987.12649983 646.7985244 987.12649983 648.8385244 987.12649983 C649.1685244 983.16649983 649.4985244 979.20649983 649.8385244 975.12649983 C652.1485244 974.79649983 654.4585244 974.46649983 656.8385244 974.12649983 C656.8385244 665.90649983 656.8385244 357.68649983 656.8385244 40.12649983 C654.1985244 40.12649983 651.5585244 40.12649983 648.8385244 40.12649983 C648.8385244 36.49649983 648.8385244 32.86649983 648.8385244 29.12649983 C646.8585244 29.12649983 644.8785244 29.12649983 642.8385244 29.12649983 C642.87107648 27.07571858 642.90362857 25.02493733 642.93618065 22.97415608 C643.04413624 21.10917842 643.04413624 21.10917842 641.8385244 20.12649983 C639.50555007 20.08557046 637.17147216 20.0840826 634.8385244 20.12649983 C634.8385244 17.81649983 634.8385244 15.50649983 634.8385244 13.12649983 C630.5485244 13.12649983 626.2585244 13.12649983 621.8385244 13.12649983 C621.5085244 11.80649983 621.1785244 10.48649983 620.8385244 9.12649983 C416.5685244 9.12649983 212.2985244 9.12649983 1.8385244 9.12649983 Z " fill="#252431" transform="translate(200.1614755988121,216.87350016832352)"/>
<path d="M0 0 C4.29 0 8.58 0 13 0 C13 2.31 13 4.62 13 7 C14.7015625 6.9690625 14.7015625 6.9690625 16.4375 6.9375 C20 7 20 7 21 8 C21.14115161 10.67058851 21.04247107 13.32432238 21 16 C22.98 16 24.96 16 27 16 C27 19.63 27 23.26 27 27 C29.64 27 32.28 27 35 27 C35 335.22 35 643.44 35 961 C32.69 961.33 30.38 961.66 28 962 C27.67 965.96 27.34 969.92 27 974 C25.02 974 23.04 974 21 974 C21 977.96 21 981.92 21 986 C18.36 986 15.72 986 13 986 C13 988.31 13 990.62 13 993 C8.71 993 4.42 993 0 993 C0 995.31 0 997.62 0 1000 C-205.26 1000 -410.52 1000 -622 1000 C-622 999.01 -622 998.02 -622 997 C-622.66 997 -623.32 997 -624 997 C-624 996.01 -624 995.02 -624 994 C-626.97 994 -629.94 994 -633 994 C-633 991.69 -633 989.38 -633 987 C-635.31 987 -637.62 987 -640 987 C-640 983.04 -640 979.08 -640 975 C-641.98 975 -643.96 975 -646 975 C-646 970.71 -646 966.42 -646 962 C-642.04 962 -638.08 962 -634 962 C-633.505 963.485 -633.505 963.485 -633 965 C-632.34 965 -631.68 965 -631 965 C-631 968.3 -631 971.6 -631 975 C-630.29617188 974.98839844 -629.59234375 974.97679687 -628.8671875 974.96484375 C-620.89432697 974.89198471 -612.92737965 975.0839975 -605 976 C-604 977 -604 977 -604 983 C-408.64 983 -213.28 983 -12 983 C-12 980.69 -12 978.38 -12 976 C-10.93458984 976.01740234 -10.93458984 976.01740234 -9.84765625 976.03515625 C-8.92855469 976.04417969 -8.00945313 976.05320312 -7.0625 976.0625 C-5.68771484 976.07990234 -5.68771484 976.07990234 -4.28515625 976.09765625 C-2.03406673 976.25949049 -2.03406673 976.25949049 -1 975 C1.67058851 974.85884839 4.32432238 974.95752893 7 975 C6.67 971.7 6.34 968.4 6 965 C11.75 964.875 11.75 964.875 14 966 C14.33 964.35 14.66 962.7 15 961 C17.31 961 19.62 961 22 961 C22 652.78 22 344.56 22 27 C19.69 27 17.38 27 15 27 C14.67 24.69 14.34 22.38 14 20 C11.69 19.67 9.38 19.34 7 19 C7 16.36 7 13.72 7 11 C4.69 11 2.38 11 0 11 C0 7.37 0 3.74 0 0 Z " fill="#BBB6B7" transform="translate(822,230)"/>
<path d="M0 0 C204.27 0 408.54 0 619 0 C621.24103151 4.48206302 620 9.98890121 620 15 C415.07 14.67 210.14 14.34 -1 14 C-1 16.31 -1 18.62 -1 21 C-9.42857143 24.42857143 -9.42857143 24.42857143 -14 24 C-14 22.68 -14 21.36 -14 20 C-13.01 20 -12.02 20 -11 20 C-11.66 19.01 -12.32 18.02 -13 17 C-13 16.01 -13 15.02 -13 14 C-10.69 14 -8.38 14 -6 14 C-5.67 11.69 -5.34 9.38 -5 7 C-3.35 7 -1.7 7 0 7 C0 4.69 0 2.38 0 0 Z " fill="#FAF9F9" transform="translate(202,226)"/>
<path d="M0 0 C1.98 0 3.96 0 6 0 C6 308.55 6 617.1 6 935 C4.02 935 2.04 935 0 935 C-1.81914131 933.18085869 -1.12520683 930.33940142 -1.12534916 927.89452887 C-1.12675148 927.24547432 -1.1281538 926.59641977 -1.12959861 925.9276969 C-1.1331182 923.72135446 -1.12942164 921.51508028 -1.12584114 919.30873871 C-1.1268829 917.7167112 -1.12836311 916.12468394 -1.13024551 914.53265721 C-1.13417206 910.11698247 -1.13179271 905.70132933 -1.12846755 901.28565491 C-1.12594737 896.49724168 -1.12918416 891.70883196 -1.13171089 886.92041922 C-1.13533604 878.51460857 -1.13520479 870.10880434 -1.13266373 861.70299339 C-1.12889539 849.20366208 -1.13080759 836.70433622 -1.13387203 824.20500495 C-1.13914971 801.88669078 -1.13867665 779.56837948 -1.13579312 757.25006504 C-1.13328202 737.71945936 -1.13261878 718.18885472 -1.13381577 698.6582489 C-1.13389215 697.36500122 -1.13396854 696.07175354 -1.13404724 694.73931653 C-1.13435855 689.49019725 -1.13467695 684.24107797 -1.135007 678.99195868 C-1.13591873 664.31720739 -1.13649464 649.64245609 -1.13679314 634.96770477 C-1.13680678 634.29937264 -1.13682043 633.6310405 -1.13683449 632.94245588 C-1.13724395 611.63676984 -1.13611592 590.33108417 -1.13394356 569.02539825 C-1.13387331 568.33405772 -1.13380306 567.64271718 -1.13373068 566.93042693 C-1.13258564 555.70250221 -1.13136622 544.47457751 -1.13014051 533.2466528 C-1.12528393 488.71147195 -1.12550934 444.17629411 -1.13037109 399.64111328 C-1.13159222 388.41894277 -1.13280324 377.19677226 -1.13394356 365.97460175 C-1.13401401 365.28367339 -1.13408445 364.59274504 -1.13415704 363.88087947 C-1.13631223 342.59801801 -1.13722768 321.31515679 -1.13679314 300.03229523 C-1.13677955 299.36444978 -1.13676597 298.69660434 -1.13675197 298.00852116 C-1.13642552 282.69273586 -1.13572185 267.3769506 -1.13475883 252.06116533 C-1.13443809 246.82136059 -1.13412525 241.58155584 -1.13381577 236.3417511 C-1.13373669 235.05148562 -1.13365761 233.76122015 -1.13357614 232.43185572 C-1.1324365 212.90889031 -1.13377295 193.38592606 -1.13629532 173.86296082 C-1.1391477 151.67449696 -1.1384545 129.48603641 -1.13301457 107.29757297 C-1.13006734 94.86466699 -1.12990231 82.43176817 -1.13366075 69.99886237 C-1.13589101 61.71019507 -1.1345297 53.42153355 -1.13015598 45.13286711 C-1.12776073 40.39959185 -1.12699764 35.6663309 -1.13056196 30.93305606 C-1.1337643 26.6370138 -1.1324609 22.3409987 -1.1273813 18.04495846 C-1.12636441 16.49093147 -1.12706533 14.93690228 -1.12958724 13.382877 C-1.13274512 11.29037446 -1.12987012 9.19796898 -1.12534916 7.10547113 C-1.1252814 5.94161148 -1.12521365 4.77775182 -1.12514383 3.57862368 C-1 1 -1 1 0 0 Z " fill="#827D80" transform="translate(169,257)"/>
<path d="M0 0 C2.31 0 4.62 0 7 0 C7 308.22 7 616.44 7 934 C4.69 934 2.38 934 0 934 C0 625.78 0 317.56 0 0 Z " fill="#6E6A6F" transform="translate(850,257)"/>
<path d="M0 0 C13.2 0 26.4 0 40 0 C40 2.64 40 5.28 40 8 C38.02 8 36.04 8 34 8 C34 10.97 34 13.94 34 17 C32.02 17 30.04 17 28 17 C28 19.64 28 22.28 28 25 C26.68 25 25.36 25 24 25 C24 27.97 24 30.94 24 34 C28.64783142 32.24610135 31.22002022 31.24312703 34 27 C34.66 27 35.32 27 36 27 C36 25.68 36 24.36 36 23 C41.61 23 47.22 23 53 23 C53 25.31 53 27.62 53 30 C53.94875 29.95875 54.8975 29.9175 55.875 29.875 C59 30 59 30 61 32 C61.26991906 34.68839385 61.08737357 37.29141936 61 40 C61.99 40 62.98 40 64 40 C64 46.27 64 52.54 64 59 C62.02 59 60.04 59 58 59 C58 62.3 58 65.6 58 69 C56.35 69 54.7 69 53 69 C53 71.97 53 74.94 53 78 C51.02 78 49.04 78 47 78 C46.67 82.62 46.34 87.24 46 92 C44.02 92 42.04 92 40 92 C40 95.96 40 99.92 40 104 C37.69 104 35.38 104 33 104 C33 108.29 33 112.58 33 117 C30.36 117 27.72 117 25 117 C25 120.96 25 124.92 25 129 C22.03 129 19.06 129 16 129 C16 125.04 16 121.08 16 117 C13.69 117 11.38 117 9 117 C9 112.71 9 108.42 9 104 C6.69 104 4.38 104 2 104 C2 100.04 2 96.08 2 92 C0.02 92 -1.96 92 -4 92 C-4 87.71 -4 83.42 -4 79 C-5.98 79 -7.96 79 -10 79 C-10 75.7 -10 72.4 -10 69 C-12.31 69 -14.62 69 -17 69 C-17 65.7 -17 62.4 -17 59 C-19.31 59 -21.62 59 -24 59 C-24 52.07 -24 45.14 -24 38 C-21.69 38 -19.38 38 -17 38 C-17 35.36 -17 32.72 -17 30 C-15.02 30 -13.04 30 -11 30 C-11 27.69 -11 25.38 -11 23 C-5.72 23 -0.44 23 5 23 C5 24.65 5 26.3 5 28 C5.61875 28.144375 6.2375 28.28875 6.875 28.4375 C9 29 9 29 11 30 C11.495 31.485 11.495 31.485 12 33 C13.65 33.33 15.3 33.66 17 34 C17 31.03 17 28.06 17 25 C15.35 25 13.7 25 12 25 C11.505 21.04 11.505 21.04 11 17 C9.35 16.67 7.7 16.34 6 16 C6 13.36 6 10.72 6 8 C4.02 8 2.04 8 0 8 C0 5.36 0 2.72 0 0 Z " fill="#24232F" transform="translate(756,1031)"/>
<path d="M0 0 C1.98 0 3.96 0 6 0 C6 312.18 6 624.36 6 946 C3.69 946 1.38 946 -1 946 C-1.01713608 857.015244 -1.03303603 768.0304878 -1.04234314 679.04573059 C-1.0424812 677.72914462 -1.04261925 676.41255864 -1.04276149 675.05607612 C-1.04568138 647.14126816 -1.04840091 619.22646019 -1.05087968 591.31165218 C-1.05212507 577.28905992 -1.05341004 563.26646766 -1.05473244 549.2438754 C-1.05493169 547.12862407 -1.05512981 545.01337273 -1.05532788 542.8981214 C-1.05838776 510.32734432 -1.06229637 477.75656762 -1.06866455 445.18579102 C-1.06880145 444.48552328 -1.06893835 443.78525555 -1.0690794 443.06376758 C-1.07129176 431.77342315 -1.07357537 420.48307872 -1.07586844 409.1927343 C-1.08247233 376.67191011 -1.08854913 344.15108621 -1.09113979 311.63026142 C-1.09119333 310.96145234 -1.09124686 310.29264326 -1.09130202 309.60356724 C-1.09241545 295.58064852 -1.09330292 281.55772978 -1.09391499 267.53481103 C-1.09420315 260.96781604 -1.09452879 254.40082105 -1.09487724 247.83382607 C-1.09494467 246.54132202 -1.09501209 245.24881797 -1.09508156 243.91714714 C-1.09626418 223.09477576 -1.1009047 202.27240652 -1.10683203 181.45003602 C-1.11271456 160.52661036 -1.11496916 139.60318682 -1.11350138 118.67976036 C-1.11273966 106.24229625 -1.11477872 93.80483988 -1.12079754 81.36737716 C-1.12454245 73.06287331 -1.12466715 64.75837452 -1.12183181 56.45387032 C-1.1203196 51.71973358 -1.12039697 46.98561149 -1.12488318 42.25147631 C-1.12893511 37.94293484 -1.12836466 33.63441943 -1.12413998 29.32587835 C-1.12342696 27.77853804 -1.12438331 26.2311958 -1.12723524 24.68385796 C-1.14152146 16.40658238 -0.95645784 8.23114786 0 0 Z " fill="#D9D6D6" transform="translate(176,246)"/>
<path d="M0 0 C4.29 0 8.58 0 13 0 C13 2.31 13 4.62 13 7 C14.7015625 6.9690625 14.7015625 6.9690625 16.4375 6.9375 C20 7 20 7 21 8 C21.14115161 10.67058851 21.04247107 13.32432238 21 16 C22.98 16 24.96 16 27 16 C28.03832112 24.95693032 28.14125194 33.86169044 28.12698364 42.86473083 C28.12813965 44.46225542 28.12973093 46.05977974 28.13171518 47.65730351 C28.13588528 52.04178699 28.13383234 56.42624861 28.13073099 60.81073216 C28.12844386 65.58301512 28.13192804 70.35529456 28.13463593 75.12757683 C28.13906188 84.59071091 28.13800857 94.05383717 28.13516669 103.51697156 C28.13293722 111.38828546 28.13291011 119.25959681 28.13431931 127.13091087 C28.13452155 128.26753602 28.13472378 129.40416117 28.13493215 130.57522951 C28.13535293 132.89349557 28.13577759 135.21176162 28.13620608 137.53002768 C28.14025159 161.03925662 28.13667107 184.54848093 28.13056505 208.05770916 C28.12621993 224.90732913 28.12367683 241.75694827 28.12257662 258.60656875 C28.11746264 334.61375706 28.09358175 410.62095989 27 961 C25.35 961 23.7 961 22 961 C22 652.78 22 344.56 22 27 C19.69 27 17.38 27 15 27 C14.67 24.69 14.34 22.38 14 20 C11.69 19.67 9.38 19.34 7 19 C7 16.36 7 13.72 7 11 C4.69 11 2.38 11 0 11 C0 7.37 0 3.74 0 0 Z " fill="#C3BFC1" transform="translate(822,230)"/>
<path d="M0 0 C3.96 0 7.92 0 12 0 C13.15316726 6.34241995 13.09507063 12.56688704 13 19 C15.97 19 18.94 19 22 19 C22 19.66 22 20.32 22 21 C22.66 21 23.32 21 24 21 C24 23.97 24 26.94 24 30 C229.26 30 434.52 30 646 30 C646 28.02 646 26.04 646 24 C650.29 24 654.58 24 659 24 C659 26.31 659 28.62 659 31 C654.71 31 650.42 31 646 31 C646 33.31 646 35.62 646 38 C440.74 38 235.48 38 24 38 C24 37.01 24 36.02 24 35 C23.34 35 22.68 35 22 35 C22 34.01 22 33.02 22 32 C19.03 32 16.06 32 13 32 C13 29.69 13 27.38 13 25 C10.69 25 8.38 25 6 25 C6 21.04 6 17.08 6 13 C4.02 13 2.04 13 0 13 C0 8.71 0 4.42 0 0 Z " fill="#757174" transform="translate(176,1192)"/>
<path d="M0 0 C3.3 0 6.6 0 10 0 C10 3.63 10 7.26 10 11 C11.98 11 13.96 11 16 11 C16 14.3 16 17.6 16 21 C17.98 21 19.96 21 22 21 C22 24.3 22 27.6 22 31 C23.32 31 24.64 31 26 31 C26 34.3 26 37.6 26 41 C27.98 41 29.96 41 32 41 C32 44.3 32 47.6 32 51 C33.32 51 34.64 51 36 51 C36 53.31 36 55.62 36 58 C37.98 58 39.96 58 42 58 C42 65.26 42 72.52 42 80 C40.02 80 38.04 80 36 80 C36.020625 80.94875 36.04125 81.8975 36.0625 82.875 C36 86 36 86 35 88 C29.06 88 23.12 88 17 88 C15 82 15 82 15 80 C13.35 80 11.7 80 10 80 C10 82.97 10 85.94 10 89 C11.65 89 13.3 89 15 89 C15 90.98 15 92.96 15 95 C16.98 95 18.96 95 21 95 C21 97.64 21 100.28 21 103 C22.65 103 24.3 103 26 103 C26 106.3 26 109.6 26 113 C12.14 113 -1.72 113 -16 113 C-16 109.7 -16 106.4 -16 103 C-13.69 103 -11.38 103 -9 103 C-9.020625 101.865625 -9.04125 100.73125 -9.0625 99.5625 C-9 96 -9 96 -8 95 C-6.00041636 94.95919217 -3.99954746 94.95745644 -2 95 C-2.0928125 93.576875 -2.0928125 93.576875 -2.1875 92.125 C-2.0946875 90.578125 -2.0946875 90.578125 -2 89 C-0.515 88.01 -0.515 88.01 1 87 C1.25015873 83.41642759 1.25015873 83.41642759 1 80 C-0.32 80 -1.64 80 -3 80 C-3.12375 80.804375 -3.2475 81.60875 -3.375 82.4375 C-3.684375 83.7059375 -3.684375 83.7059375 -4 85 C-4.99 85.495 -4.99 85.495 -6 86 C-6.33 86.99 -6.66 87.98 -7 89 C-12.94 89 -18.88 89 -25 89 C-25.33 86.03 -25.66 83.06 -26 80 C-28.31 80 -30.62 80 -33 80 C-33 73.07 -33 66.14 -33 59 C-31.02 59 -29.04 59 -27 59 C-27 56.69 -27 54.38 -27 52 C-25.35 52 -23.7 52 -22 52 C-22 48.37 -22 44.74 -22 41 C-20.02 41 -18.04 41 -16 41 C-16 37.37 -16 33.74 -16 30 C-14.35 30 -12.7 30 -11 30 C-11 27.36 -11 24.72 -11 22 C-9.68 22 -8.36 22 -7 22 C-7 18.37 -7 14.74 -7 11 C-4.69 11 -2.38 11 0 11 C0 7.37 0 3.74 0 0 Z " fill="#252430" transform="translate(235,259)"/>
<path d="M0 0 C0.33 0 0.66 0 1 0 C1.01712245 44.54363922 1.03302597 89.08727879 1.04234314 133.63092041 C1.04255023 134.62018574 1.04255023 134.62018574 1.04276149 135.62943624 C1.04575457 149.96319105 1.04852473 164.29694591 1.05106533 178.63070081 C1.05231264 185.66021331 1.0536092 192.6897258 1.05493164 199.71923828 C1.0550624 200.4187504 1.05519316 201.11826251 1.05532788 201.83897196 C1.05958741 224.50244456 1.06709737 247.16591467 1.07629722 269.82938575 C1.08600367 293.78441777 1.09199728 317.73944816 1.09408849 341.69448209 C1.09546067 356.04191257 1.09979477 370.38933589 1.10791647 384.73676416 C1.113202 394.57504876 1.11480017 404.41332964 1.11350138 414.25161555 C1.11286084 419.92790398 1.11384351 425.60417988 1.11920547 431.28046608 C1.1240819 436.48078905 1.1243108 441.68109109 1.12089889 446.88141504 C1.12047737 448.75914009 1.12173722 450.63686646 1.12488318 452.51458892 C1.13994365 462.06160679 1.04650481 471.49555965 0 481 C-1.98 481 -3.96 481 -6 481 C-6 484.96 -6 488.92 -6 493 C-8.31 493 -10.62 493 -13 493 C-13.02886984 489.02084841 -13.04675406 485.04172347 -13.0625 481.0625 C-13.07087891 479.92619141 -13.07925781 478.78988281 -13.08789062 477.61914062 C-13.09111328 476.53955078 -13.09433594 475.45996094 -13.09765625 474.34765625 C-13.10289307 473.34742432 -13.10812988 472.34719238 -13.11352539 471.31665039 C-13 469 -13 469 -12 468 C-8.04 468 -4.08 468 0 468 C0 313.56 0 159.12 0 0 Z " fill="#B5B1B3" transform="translate(849,723)"/>
<path d="M0 0 C0.33 0 0.66 0 1 0 C1 2.64 1 5.28 1 8 C-6.21635152 8.76068071 -13.329105 9.14377851 -20.58339214 9.12304783 C-21.59391328 9.12420167 -22.60443441 9.12535552 -23.6455774 9.12654433 C-27.01688355 9.12918198 -30.38814152 9.12471244 -33.75944519 9.12025452 C-36.20669593 9.1206908 -38.65394662 9.12156676 -41.10119706 9.12284368 C-46.41417979 9.12461141 -51.72714823 9.12328575 -57.04012871 9.11920547 C-64.94025943 9.11315522 -72.84038311 9.11287108 -80.74051572 9.11374746 C-94.03161963 9.1150596 -107.32271857 9.11172667 -120.61382103 9.10573006 C-133.77028618 9.09980942 -146.92674925 9.09596338 -160.08321571 9.09487724 C-160.90179052 9.0948085 -161.72036534 9.09473976 -162.56374544 9.09466894 C-166.72101344 9.0943306 -170.87828144 9.09402922 -175.03554944 9.09374207 C-204.46779283 9.09164265 -233.90003352 9.08490808 -263.33227539 9.07543945 C-291.92211899 9.06625247 -320.51196186 9.0591701 -349.10180664 9.05493164 C-349.9833469 9.05480011 -350.86488715 9.05466859 -351.77314075 9.05453308 C-360.62607428 9.05321454 -369.47900782 9.05193873 -378.33194136 9.05069422 C-396.36576958 9.04815813 -414.39959775 9.04533687 -432.4334259 9.04234314 C-433.26255967 9.04220585 -434.09169343 9.04206856 -434.94595246 9.04192711 C-490.29730278 9.03272922 -545.64865155 9.01686352 -601 9 C-601 8.67 -601 8.34 -601 8 C-406.3 8 -211.6 8 -11 8 C-11 5.69 -11 3.38 -11 1 C-10.28972656 1.01160156 -9.57945312 1.02320313 -8.84765625 1.03515625 C-7.92855469 1.04417969 -7.00945313 1.05320312 -6.0625 1.0625 C-4.68771484 1.07990234 -4.68771484 1.07990234 -3.28515625 1.09765625 C-1.03406673 1.25949049 -1.03406673 1.25949049 0 0 Z " fill="#C8C5C5" transform="translate(821,1205)"/>
<path d="M0 0 C205.26 0 410.52 0 622 0 C622 0.33 622 0.66 622 1 C418.39 1 214.78 1 5 1 C5 2.98 5 4.96 5 7 C0.71 7 -3.58 7 -8 7 C-8 6.67 -8 6.34 -8 6 C-5.36 6 -2.72 6 0 6 C0 4.02 0 2.04 0 0 Z " fill="#52525A" transform="translate(197,225)"/>
<path d="M0 0 C4.29 0 8.58 0 13 0 C13 2.31 13 4.62 13 7 C14.7015625 6.9690625 14.7015625 6.9690625 16.4375 6.9375 C20 7 20 7 21 8 C21.08651611 9.41570123 21.10704904 10.835595 21.09765625 12.25390625 C21.09443359 13.10791016 21.09121094 13.96191406 21.08789062 14.84179688 C21.07951172 15.73962891 21.07113281 16.63746094 21.0625 17.5625 C21.05798828 18.46419922 21.05347656 19.36589844 21.04882812 20.29492188 C21.03700225 22.53001314 21.0205222 24.76497437 21 27 C19.02 27 17.04 27 15 27 C14.67 24.69 14.34 22.38 14 20 C11.69 19.67 9.38 19.34 7 19 C7 16.36 7 13.72 7 11 C4.69 11 2.38 11 0 11 C0 7.37 0 3.74 0 0 Z " fill="#DCDADC" transform="translate(822,230)"/>
<path d="M0 0 C3.96 0 7.92 0 12 0 C13.15316726 6.34241995 13.09507063 12.56688704 13 19 C15.97 19 18.94 19 22 19 C22 19.66 22 20.32 22 21 C22.66 21 23.32 21 24 21 C24 23.97 24 26.94 24 30 C23.67 30 23.34 30 23 30 C23 28.35 23 26.7 23 25 C21.9275 25.020625 20.855 25.04125 19.75 25.0625 C16 25 16 25 12 24 C12 20.37 12 16.74 12 13 C8.04 13 4.08 13 0 13 C0 8.71 0 4.42 0 0 Z " fill="#918C8F" transform="translate(176,1192)"/>
<path d="M0 0 C5.75 -0.125 5.75 -0.125 8 1 C8 7.6 8 14.2 8 21 C3.38 21 -1.24 21 -6 21 C-6 17.37 -6 13.74 -6 10 C-3.69 10 -1.38 10 1 10 C0.67 6.7 0.34 3.4 0 0 Z " fill="#BBB7BA" transform="translate(828,1195)"/>
<path d="M0 0 C0.66 0 1.32 0 2 0 C2 3.3 2 6.6 2 10 C3.05574219 9.98259766 3.05574219 9.98259766 4.1328125 9.96484375 C12.10567303 9.89198471 20.07262035 10.0839975 28 11 C29 12 29 12 29 18 C22.4 18 15.8 18 9 18 C9 17.34 9 16.68 9 16 C6.03 16 3.06 16 0 16 C-0.19389096 13.5211787 -0.38040123 11.04219069 -0.5625 8.5625 C-0.61857422 7.85544922 -0.67464844 7.14839844 -0.73242188 6.41992188 C-0.86190993 4.61572163 -0.93521608 2.80768048 -1 1 C-0.67 0.67 -0.34 0.34 0 0 Z " fill="#E3E0E0" transform="translate(189,1195)"/>
<path d="M0 0 C1.98 0 3.96 0 6 0 C6 3.96 6 7.92 6 12 C4.02 12 2.04 12 0 12 C0 15.96 0 19.92 0 24 C-2.31 24 -4.62 24 -7 24 C-7 17.4 -7 10.8 -7 4 C-4.69 4 -2.38 4 0 4 C0 2.68 0 1.36 0 0 Z " fill="#7C777B" transform="translate(843,1192)"/>
<path d="M0 0 C1.98 0 3.96 0 6 0 C6 3.63 6 7.26 6 11 C9.63 11.33 13.26 11.66 17 12 C17 13.65 17 15.3 17 17 C17.99 17 18.98 17 20 17 C20 19.64 20 22.28 20 25 C19.34 25 18.68 25 18 25 C18 24.01 18 23.02 18 22 C17.34 22 16.68 22 16 22 C16 21.01 16 20.02 16 19 C13.03 19 10.06 19 7 19 C7 16.69 7 14.38 7 12 C4.69 12 2.38 12 0 12 C0 8.04 0 4.08 0 0 Z " fill="#68656A" transform="translate(182,1205)"/>
<path d="M0 0 C0.33 0 0.66 0 1 0 C1 35.97 1 71.94 1 109 C-1.31 109 -3.62 109 -6 109 C-6 110.32 -6 111.64 -6 113 C-8.31 113 -10.62 113 -13 113 C-12.67 111.35 -12.34 109.7 -12 108 C-8.04 108 -4.08 108 0 108 C0 72.36 0 36.72 0 0 Z " fill="#ABA7A9" transform="translate(849,1083)"/>
<path d="M0 0 C4.29 0 8.58 0 13 0 C13 0.33 13 0.66 13 1 C11.35 1 9.7 1 8 1 C7.67 3.31 7.34 5.62 7 8 C4.69 8 2.38 8 0 8 C0.66 9.98 1.32 11.96 2 14 C-0.97 14 -3.94 14 -7 14 C-7 11.36 -7 8.72 -7 6 C-5.02 5.67 -3.04 5.34 -1 5 C-0.67 3.35 -0.34 1.7 0 0 Z " fill="#DEDCDE" transform="translate(189,232)"/>
<path d="M0 0 C3.96 0 7.92 0 12 0 C12 2.31 12 4.62 12 7 C13.7015625 6.9690625 13.7015625 6.9690625 15.4375 6.9375 C19 7 19 7 20 8 C20.14115161 10.67058851 20.04247107 13.32432238 20 16 C17.36 16 14.72 16 12 16 C12 13.69 12 11.38 12 9 C10.35 9 8.7 9 7 9 C7 6.36 7 3.72 7 1 C4.69 1 2.38 1 0 1 C0 0.67 0 0.34 0 0 Z " fill="#99969B" transform="translate(823,230)"/>
<path d="M0 0 C27.06 0 54.12 0 82 0 C82 0.33 82 0.66 82 1 C56.59 1 31.18 1 5 1 C5 2.98 5 4.96 5 7 C0.71 7 -3.58 7 -8 7 C-8 6.67 -8 6.34 -8 6 C-5.36 6 -2.72 6 0 6 C0 4.02 0 2.04 0 0 Z " fill="#4F4E57" transform="translate(197,225)"/>
<path d="M0 0 C0.66 0 1.32 0 2 0 C2 3.3 2 6.6 2 10 C3.0725 9.979375 4.145 9.95875 5.25 9.9375 C8.14790424 9.9857984 10.28612141 10.13155885 13 11 C13 12.98 13 14.96 13 17 C11.68 17.33 10.36 17.66 9 18 C9 17.34 9 16.68 9 16 C6.03 16 3.06 16 0 16 C-0.19389096 13.5211787 -0.38040123 11.04219069 -0.5625 8.5625 C-0.61857422 7.85544922 -0.67464844 7.14839844 -0.73242188 6.41992188 C-0.86190993 4.61572163 -0.93521608 2.80768048 -1 1 C-0.67 0.67 -0.34 0.34 0 0 Z " fill="#BFBABC" transform="translate(189,1195)"/>
<path d="M0 0 C2.31 0 4.62 0 7 0 C7 2.64 7 5.28 7 8 C8.65 8 10.3 8 12 8 C12 10.31 12 12.62 12 15 C10.68 15 9.36 15 8 15 C8 13.02 8 11.04 8 9 C5.36 9 2.72 9 0 9 C0 6.03 0 3.06 0 0 Z " fill="#CECCCE" transform="translate(823,231)"/>
<path d="M0 0 C0.33 0 0.66 0 1 0 C1 6.27 1 12.54 1 19 C-3.62 19 -8.24 19 -13 19 C-13 17.35 -13 15.7 -13 14 C-12.07767578 14.03480469 -12.07767578 14.03480469 -11.13671875 14.0703125 C-9.92435547 14.09738281 -9.92435547 14.09738281 -8.6875 14.125 C-7.48673828 14.15980469 -7.48673828 14.15980469 -6.26171875 14.1953125 C-3.71611424 14.15817322 -3.71611424 14.15817322 -1 12 C-0.41518879 9.11404054 -0.41518879 9.11404054 -0.3125 5.875 C-0.24675781 4.77929688 -0.18101562 3.68359375 -0.11328125 2.5546875 C-0.07589844 1.71164062 -0.03851562 0.86859375 0 0 Z " fill="#A29D9F" transform="translate(835,1197)"/>
<path d="M0 0 C0.33 0 0.66 0 1 0 C1 2.64 1 5.28 1 8 C-2.96 8 -6.92 8 -11 8 C-11 5.69 -11 3.38 -11 1 C-10.28972656 1.01160156 -9.57945312 1.02320313 -8.84765625 1.03515625 C-7.92855469 1.04417969 -7.00945313 1.05320312 -6.0625 1.0625 C-4.68771484 1.07990234 -4.68771484 1.07990234 -3.28515625 1.09765625 C-1.03406673 1.25949049 -1.03406673 1.25949049 0 0 Z " fill="#D8D5D5" transform="translate(821,1205)"/>
<path d="M0 0 C2.31 0 4.62 0 7 0 C7 3.63 7 7.26 7 11 C4.69 11 2.38 11 0 11 C0 7.37 0 3.74 0 0 Z " fill="#757176" transform="translate(836,1205)"/>
<path d="M0 0 C1.98 0 3.96 0 6 0 C6 3.63 6 7.26 6 11 C4.02 11 2.04 11 0 11 C0 7.37 0 3.74 0 0 Z " fill="#706D71" transform="translate(182,1205)"/>
<path d="M0 0 C1.98 0 3.96 0 6 0 C6 3.63 6 7.26 6 11 C4.02 11 2.04 11 0 11 C0 7.37 0 3.74 0 0 Z " fill="#959194" transform="translate(843,246)"/>
<path d="M0 0 C2.31 0 4.62 0 7 0 C7 2.97 7 5.94 7 9 C4.69 9 2.38 9 0 9 C0 6.03 0 3.06 0 0 Z " fill="#8E898C" transform="translate(836,1196)"/>
<path d="M0 0 C1.32 0 2.64 0 4 0 C4.33 3.96 4.66 7.92 5 12 C3.02 12 1.04 12 -1 12 C-1.02687279 10.18757948 -1.04633715 8.37504767 -1.0625 6.5625 C-1.07410156 5.55316406 -1.08570313 4.54382812 -1.09765625 3.50390625 C-1 1 -1 1 0 0 Z " fill="#7A7679" transform="translate(177,1193)"/>
<path d="M0 0 C3.96 0 7.92 0 12 0 C12 2.31 12 4.62 12 7 C14.31 7 16.62 7 19 7 C19 7.33 19 7.66 19 8 C13.06 8.495 13.06 8.495 7 9 C7 6.36 7 3.72 7 1 C4.69 1 2.38 1 0 1 C0 0.67 0 0.34 0 0 Z " fill="#706D73" transform="translate(823,230)"/>
<path d="M0 0 C1.98 0 3.96 0 6 0 C5.67 3.63 5.34 7.26 5 11 C3.35 11 1.7 11 0 11 C0 7.37 0 3.74 0 0 Z " fill="#B6B2B5" transform="translate(176,246)"/>
<path d="M0 0 C1.98 0 3.96 0 6 0 C6 2.64 6 5.28 6 8 C4.02 8 2.04 8 0 8 C0 5.36 0 2.72 0 0 Z " fill="#FCFCFB" transform="translate(823,241)"/>
<path d="M0 0 C1.98 0 3.96 0 6 0 C6 2.64 6 5.28 6 8 C4.02 8 2.04 8 0 8 C0 5.36 0 2.72 0 0 Z " fill="#B2AFB1" transform="translate(182,238)"/>
<path d="M0 0 C2.31 0 4.62 0 7 0 C7 0.33 7 0.66 7 1 C5.02 1 3.04 1 1 1 C1 3.31 1 5.62 1 8 C0.39671875 8.06058594 -0.2065625 8.12117188 -0.828125 8.18359375 C-1.62734375 8.26738281 -2.4265625 8.35117188 -3.25 8.4375 C-4.03890625 8.51871094 -4.8278125 8.59992188 -5.640625 8.68359375 C-7.82364639 8.97634993 -9.8773182 9.42064419 -12 10 C-12.33 11.32 -12.66 12.64 -13 14 C-13 11.69 -13 9.38 -13 7 C-8.71 7 -4.42 7 0 7 C0 4.69 0 2.38 0 0 Z " fill="#484750" transform="translate(835,1216)"/>
<path d="M0 0 C2.31 0 4.62 0 7 0 C6.67 1.65 6.34 3.3 6 5 C3.69 5 1.38 5 -1 5 C-0.67 3.35 -0.34 1.7 0 0 Z " fill="#B4B0B0" transform="translate(837,1191)"/>
<path d="M0 0 C0.66 0.66 1.32 1.32 2 2 C3.93257855 2.36831081 3.93257855 2.36831081 6.1328125 2.4140625 C7.34130859 2.47207031 7.34130859 2.47207031 8.57421875 2.53125 C9.83685547 2.57765625 9.83685547 2.57765625 11.125 2.625 C11.97449219 2.66367187 12.82398438 2.70234375 13.69921875 2.7421875 C15.79911684 2.83656494 17.89952891 2.91937586 20 3 C20.33 2.34 20.66 1.68 21 1 C21.33 1.99 21.66 2.98 22 4 C19.30229742 5.34885129 17.34726625 5.01578483 14.3359375 4.87890625 C13.21445312 4.83056641 12.09296875 4.78222656 10.9375 4.73242188 C9.1740625 4.64831055 9.1740625 4.64831055 7.375 4.5625 C5.59996094 4.48418945 5.59996094 4.48418945 3.7890625 4.40429688 C0.85912439 4.27433994 -2.07049673 4.13936472 -5 4 C-4.360625 3.71125 -3.72125 3.4225 -3.0625 3.125 C-0.84793921 2.17176549 -0.84793921 2.17176549 0 0 Z " fill="#D6D5D2" transform="translate(250,344)"/>
<path d="M0 0 C0.33 0 0.66 0 1 0 C1.33 1.65 1.66 3.3 2 5 C2.66 5 3.32 5 4 5 C4.96070434 7.88211302 5.10581883 9.69850044 5.0625 12.6875 C5.05347656 13.49574219 5.04445313 14.30398438 5.03515625 15.13671875 C5.02355469 15.75160156 5.01195312 16.36648438 5 17 C4.67 17 4.34 17 4 17 C4 14.69 4 12.38 4 10 C2.68 10 1.36 10 0 10 C0 6.7 0 3.4 0 0 Z " fill="#B4B0B2" transform="translate(267,300)"/>
<path d="M0 0 C1.32 0 2.64 0 4 0 C4 1.98 4 3.96 4 6 C-0.29 6 -4.58 6 -9 6 C-9 5.67 -9 5.34 -9 5 C-6.03 5 -3.06 5 0 5 C0 3.35 0 1.7 0 0 Z " fill="#7D7A81" transform="translate(198,226)"/>
<path d="M0 0 C3.96 0 7.92 0 12 0 C12 2.31 12 4.62 12 7 C11.67 6.01 11.34 5.02 11 4 C10.34 4 9.68 4 9 4 C9 3.01 9 2.02 9 1 C6.03 1 3.06 1 0 1 C0 0.67 0 0.34 0 0 Z " fill="#4A4850" transform="translate(189,1223)"/>
<path d="M0 0 C1.98 0 3.96 0 6 0 C6 1.32 6 2.64 6 4 C4.02 4 2.04 4 0 4 C0 2.68 0 1.36 0 0 Z " fill="#BAB6B9" transform="translate(182,1192)"/>
<path d="M0 0 C1.67542976 0.28604898 3.34385343 0.61781233 5 1 C4.01 1.66 3.02 2.32 2 3 C1.484375 3.86625 0.96875 4.7325 0.4375 5.625 C-0.036875 6.40875 -0.51125 7.1925 -1 8 C-1.66 8 -2.32 8 -3 8 C-3 7.34 -3 6.68 -3 6 C-2.34 6 -1.68 6 -1 6 C-1.0309375 4.7934375 -1.0309375 4.7934375 -1.0625 3.5625 C-1 1 -1 1 0 0 Z " fill="#36353F" transform="translate(190,220)"/>
<path d="M0 0 C0.66 0 1.32 0 2 0 C2 3.3 2 6.6 2 10 C1.34 10 0.68 10 0 10 C-0.19412181 8.52168779 -0.38012131 7.04230684 -0.5625 5.5625 C-0.66691406 4.73878906 -0.77132812 3.91507813 -0.87890625 3.06640625 C-0.91886719 2.38449219 -0.95882812 1.70257812 -1 1 C-0.67 0.67 -0.34 0.34 0 0 Z " fill="#CECBCB" transform="translate(189,1195)"/>
<path d="M0 0 C2.475 0.495 2.475 0.495 5 1 C3.68 1.33 2.36 1.66 1 2 C1.66 3.98 2.32 5.96 3 8 C2.01 8 1.02 8 0 8 C0 5.36 0 2.72 0 0 Z " fill="#E8E6E9" transform="translate(188,238)"/>
<path d="M0 0 C1.98 0 3.96 0 6 0 C5.01 0.33 4.02 0.66 3 1 C3.33 1.99 3.66 2.98 4 4 C2.68 4.33 1.36 4.66 0 5 C0 3.35 0 1.7 0 0 Z " fill="#BEBEC0" transform="translate(828,1195)"/>
<path d="M0 0 C0.99 0.33 1.98 0.66 3 1 C3 2.65 3 4.3 3 6 C1.68 5.67 0.36 5.34 -1 5 C-0.67 3.35 -0.34 1.7 0 0 Z " fill="#D0CFD2" transform="translate(189,232)"/>
</svg>
