<?xml version="1.0" encoding="UTF-8"?>
<svg version="1.1" xmlns="http://www.w3.org/2000/svg" width="1024" height="1536">
<path d="M0 0 C206.91 0 413.82 0 627 0 C627 0.99 627 1.98 627 3 C629.97 3 632.94 3 636 3 C636 4.98 636 6.96 636 9 C638.31 9 640.62 9 643 9 C643.33 10.32 643.66 11.64 644 13 C646.97 12.505 646.97 12.505 650 12 C650 14.31 650 16.62 650 19 C651.4540625 18.9690625 651.4540625 18.9690625 652.9375 18.9375 C656 19 656 19 657 20 C657.14115161 22.67058851 657.04247107 25.32432238 657 28 C658.65 28 660.3 28 662 28 C662 31.96 662 35.92 662 40 C664.475 40.495 664.475 40.495 667 41 C667 351.53 667 662.06 667 982 C665.35 982 663.7 982 662 982 C662 986.62 662 991.24 662 996 C660.35 996 658.7 996 657 996 C657.0309375 997.423125 657.0309375 997.423125 657.0625 998.875 C657 1002 657 1002 656 1004 C654.02 1004 652.04 1004 650 1004 C650 1005.98 650 1007.96 650 1010 C645.8803623 1011.29243536 642.33168317 1012.26252625 638 1012 C637.67 1013.65 637.34 1015.3 637 1017 C634.36 1017.33 631.72 1017.66 629 1018 C628.67 1019.32 628.34 1020.64 628 1022 C421.09 1022 214.18 1022 1 1022 C1 1020.35 1 1018.7 1 1017 C-2.63 1017 -6.26 1017 -10 1017 C-10.495 1014.525 -10.495 1014.525 -11 1012 C-12.134375 1011.855625 -13.26875 1011.71125 -14.4375 1011.5625 C-18 1011 -18 1011 -19 1010 C-19.04080783 1008.00041636 -19.04254356 1005.99954746 -19 1004 C-20.98 1004 -22.96 1004 -25 1004 C-25 1001.36 -25 998.72 -25 996 C-26.98 996 -28.96 996 -31 996 C-31.66 991.38 -32.32 986.76 -33 982 C-33.66 982 -34.32 982 -35 982 C-36.40537718 979.18924564 -36.12461695 976.87019485 -36.1241985 973.7242955 C-36.12547658 973.06897764 -36.12675467 972.41365979 -36.12807148 971.73848381 C-36.13116262 969.51682394 -36.1270543 967.2952336 -36.12304783 965.07357597 C-36.12378675 963.46814244 -36.12496456 961.86270905 -36.12654433 960.25727612 C-36.12963116 955.80904694 -36.12642355 951.3608404 -36.12226619 946.91261291 C-36.11884715 942.0871881 -36.12119988 937.26176571 -36.12284368 932.43634045 C-36.12492283 923.96712496 -36.12326446 915.49791647 -36.11920547 907.02870178 C-36.11318656 894.43515966 -36.11286817 881.84162197 -36.11374746 869.24807867 C-36.11506343 848.06684191 -36.11171213 826.88560826 -36.10573006 805.70437241 C-36.09981948 784.72263448 -36.09596541 763.74089784 -36.09487724 742.75915909 C-36.0948085 741.45613059 -36.09473976 740.1531021 -36.09466894 738.8105879 C-36.09433062 732.19356359 -36.09402923 725.57653929 -36.09374207 718.95951499 C-36.09313896 705.50224645 -36.09221048 692.04497794 -36.09113979 678.58770943 C-36.09108648 677.91434846 -36.09103316 677.2409875 -36.09097823 676.54722165 C-36.08835554 643.77741161 -36.08204751 611.00760241 -36.07543945 578.23779297 C-36.07314783 566.86332195 -36.07087248 555.48885092 -36.06866455 544.11437988 C-36.0685276 543.40895171 -36.06839065 542.70352354 -36.06824955 541.97671876 C-36.06190763 509.19440653 -36.05818058 476.41209415 -36.05512976 443.62978147 C-36.05493169 441.50200976 -36.0547325 439.37423805 -36.05453308 437.24646634 C-36.05321332 423.14582966 -36.05193866 409.04519297 -36.05069422 394.94455628 C-36.0482176 366.88683916 -36.04547591 338.82912207 -36.04255217 310.771405 C-36.04241293 309.43516787 -36.04227388 308.09893075 -36.04213501 306.76269362 C-36.03289162 217.84179503 -36.0170032 128.9208974 -36 40 C-34.35 40 -32.7 40 -31 40 C-31 36.04 -31 32.08 -31 28 C-29.35 28 -27.7 28 -26 28 C-26 25.03 -26 22.06 -26 19 C-23.69 19 -21.38 19 -19 19 C-19.020625 18.030625 -19.04125 17.06125 -19.0625 16.0625 C-19 13 -19 13 -18 12 C-16.33382885 11.95936168 -14.66611905 11.957279 -13 12 C-13 11.01 -13 10.02 -13 9 C-10.69 9 -8.38 9 -6 9 C-6 7.35 -6 5.7 -6 4 C-4.02 4 -2.04 4 0 4 C0 2.68 0 1.36 0 0 Z " fill="#58565A" transform="translate(196,218)"/>
<path d="M0 0 C203.61 0 407.22 0 617 0 C617 1.98 617 3.96 617 6 C620.96 6 624.92 6 629 6 C629 7.98 629 9.96 629 12 C631.64 12 634.28 12 637 12 C637 18.27 637 24.54 637 31 C638.65 31 640.3 31 642 31 C641.67 338.89 641.34 646.78 641 964 C639 965 639 965 630 965 C630 657.11 630 349.22 630 32 C627.69 32 625.38 32 623 32 C622.67 29.36 622.34 26.72 622 24 C619.03 23.67 616.06 23.34 613 23 C613 20.36 613 17.72 613 15 C611.71674558 15.00037972 610.43349116 15.00075944 609.11135024 15.00115067 C552.5804038 15.0178128 496.04945713 15.03324152 439.51850891 15.04234314 C438.23556414 15.04255023 438.23556414 15.04255023 436.92670128 15.04276149 C418.34065353 15.04575411 399.75460575 15.04852434 381.16855792 15.05106533 C372.05451061 15.05231271 362.94046331 15.05360926 353.82641602 15.05493164 C352.91943878 15.0550624 352.01246154 15.05519316 351.07800014 15.05532788 C321.65837013 15.05959237 292.23874203 15.06710602 262.81911318 15.07629722 C232.59705293 15.08572201 202.37499373 15.09188363 172.15293203 15.09391499 C167.88832465 15.09420316 163.62371726 15.0945288 159.35910988 15.09487724 C158.10005477 15.09497838 158.10005477 15.09497838 156.8155642 15.09508156 C143.28150409 15.09626517 129.74744725 15.10090835 116.21338848 15.10683203 C102.6207386 15.11270801 89.02809197 15.11497081 75.43544086 15.11350138 C67.3509915 15.11273841 59.26655402 15.11478976 51.18210679 15.12079754 C45.15868439 15.12496956 39.13527488 15.12397189 33.11185131 15.12089889 C30.66497664 15.12047356 28.218101 15.12176623 25.77122828 15.12488318 C22.46376109 15.12885389 19.15635357 15.12675908 15.84888744 15.12304783 C14.8829308 15.12567484 13.91697416 15.12830186 12.9217461 15.13100848 C12.04491998 15.12876118 11.16809386 15.12651389 10.26469725 15.1241985 C9.50772328 15.12435448 8.75074931 15.12451046 7.97083674 15.12467116 C6 15 6 15 3 14 C3 16.64 3 19.28 3 22 C-0.3 22.33 -3.6 22.66 -7 23 C-7 25.97 -7 28.94 -7 32 C-8.98 32 -10.96 32 -13 32 C-13 339.89 -13 647.78 -13 965 C-10.03 965 -7.06 965 -4 965 C-3.875 972.75 -3.875 972.75 -5 975 C-2.69 975 -0.38 975 2 975 C2 976.98 2 978.96 2 981 C202.64 981 403.28 981 610 981 C610 978.69 610 976.38 610 974 C613.63 974 617.26 974 621 974 C621 971.36 621 968.72 621 966 C623.97 966 626.94 966 630 966 C629.67 968.31 629.34 970.62 629 973 C627.68 973 626.36 973 625 973 C625 975.64 625 978.28 625 981 C622.36 981 619.72 981 617 981 C617 982.98 617 984.96 617 987 C614.36 987 611.72 987 609 987 C609 988.98 609 990.96 609 993 C412.98 993 216.96 993 15 993 C15 991.02 15 989.04 15 987 C9.72 987 4.44 987 -1 987 C-1 985.02 -1 983.04 -1 981 C-4.96 981 -8.92 981 -13 981 C-13 977.7 -13 974.4 -13 971 C-15.31 971 -17.62 971 -20 971 C-20 969.02 -20 967.04 -20 965 C-24.29 965 -28.58 965 -33 965 C-33 656.78 -33 348.56 -33 31 C-30.36 31 -27.72 31 -25 31 C-25 27.37 -25 23.74 -25 20 C-23.35 20 -21.7 20 -20 20 C-20 17.36 -20 14.72 -20 12 C-18.02 11.67 -16.04 11.34 -14 11 C-13.67 9.35 -13.34 7.7 -13 6 C-8.71 6 -4.42 6 0 6 C0 4.02 0 2.04 0 0 Z " fill="#F4F3F4" transform="translate(203,227)"/>
<path d="M0 0 C206.91 0 413.82 0 627 0 C627 0.99 627 1.98 627 3 C629.97 3 632.94 3 636 3 C636 4.98 636 6.96 636 9 C638.31 9 640.62 9 643 9 C643.33 10.32 643.66 11.64 644 13 C646.97 12.505 646.97 12.505 650 12 C650 14.31 650 16.62 650 19 C651.4540625 18.9690625 651.4540625 18.9690625 652.9375 18.9375 C656 19 656 19 657 20 C657.14115161 22.67058851 657.04247107 25.32432238 657 28 C658.65 28 660.3 28 662 28 C662 31.96 662 35.92 662 40 C664.475 40.495 664.475 40.495 667 41 C667 351.53 667 662.06 667 982 C665.35 982 663.7 982 662 982 C662 986.62 662 991.24 662 996 C660.35 996 658.7 996 657 996 C657.0309375 997.423125 657.0309375 997.423125 657.0625 998.875 C657 1002 657 1002 656 1004 C654.02 1004 652.04 1004 650 1004 C650 1005.98 650 1007.96 650 1010 C645.8803623 1011.29243536 642.33168317 1012.26252625 638 1012 C637.67 1013.65 637.34 1015.3 637 1017 C634.36 1017.33 631.72 1017.66 629 1018 C628.67 1019.32 628.34 1020.64 628 1022 C421.09 1022 214.18 1022 1 1022 C1 1020.35 1 1018.7 1 1017 C-2.63 1017 -6.26 1017 -10 1017 C-10.495 1014.525 -10.495 1014.525 -11 1012 C-12.134375 1011.855625 -13.26875 1011.71125 -14.4375 1011.5625 C-18 1011 -18 1011 -19 1010 C-19.04080783 1008.00041636 -19.04254356 1005.99954746 -19 1004 C-20.98 1004 -22.96 1004 -25 1004 C-25 1001.36 -25 998.72 -25 996 C-26.98 996 -28.96 996 -31 996 C-31.66 991.38 -32.32 986.76 -33 982 C-33.66 982 -34.32 982 -35 982 C-36.40537718 979.18924564 -36.12461695 976.87019485 -36.1241985 973.7242955 C-36.12547658 973.06897764 -36.12675467 972.41365979 -36.12807148 971.73848381 C-36.13116262 969.51682394 -36.1270543 967.2952336 -36.12304783 965.07357597 C-36.12378675 963.46814244 -36.12496456 961.86270905 -36.12654433 960.25727612 C-36.12963116 955.80904694 -36.12642355 951.3608404 -36.12226619 946.91261291 C-36.11884715 942.0871881 -36.12119988 937.26176571 -36.12284368 932.43634045 C-36.12492283 923.96712496 -36.12326446 915.49791647 -36.11920547 907.02870178 C-36.11318656 894.43515966 -36.11286817 881.84162197 -36.11374746 869.24807867 C-36.11506343 848.06684191 -36.11171213 826.88560826 -36.10573006 805.70437241 C-36.09981948 784.72263448 -36.09596541 763.74089784 -36.09487724 742.75915909 C-36.0948085 741.45613059 -36.09473976 740.1531021 -36.09466894 738.8105879 C-36.09433062 732.19356359 -36.09402923 725.57653929 -36.09374207 718.95951499 C-36.09313896 705.50224645 -36.09221048 692.04497794 -36.09113979 678.58770943 C-36.09108648 677.91434846 -36.09103316 677.2409875 -36.09097823 676.54722165 C-36.08835554 643.77741161 -36.08204751 611.00760241 -36.07543945 578.23779297 C-36.07314783 566.86332195 -36.07087248 555.48885092 -36.06866455 544.11437988 C-36.0685276 543.40895171 -36.06839065 542.70352354 -36.06824955 541.97671876 C-36.06190763 509.19440653 -36.05818058 476.41209415 -36.05512976 443.62978147 C-36.05493169 441.50200976 -36.0547325 439.37423805 -36.05453308 437.24646634 C-36.05321332 423.14582966 -36.05193866 409.04519297 -36.05069422 394.94455628 C-36.0482176 366.88683916 -36.04547591 338.82912207 -36.04255217 310.771405 C-36.04241293 309.43516787 -36.04227388 308.09893075 -36.04213501 306.76269362 C-36.03289162 217.84179503 -36.0170032 128.9208974 -36 40 C-34.35 40 -32.7 40 -31 40 C-31 36.04 -31 32.08 -31 28 C-29.35 28 -27.7 28 -26 28 C-26 25.03 -26 22.06 -26 19 C-23.69 19 -21.38 19 -19 19 C-19.020625 18.030625 -19.04125 17.06125 -19.0625 16.0625 C-19 13 -19 13 -18 12 C-16.33382885 11.95936168 -14.66611905 11.957279 -13 12 C-13 11.01 -13 10.02 -13 9 C-10.69 9 -8.38 9 -6 9 C-6 7.35 -6 5.7 -6 4 C-4.02 4 -2.04 4 0 4 C0 2.68 0 1.36 0 0 Z M7 9 C7 10.98 7 12.96 7 15 C2.71 15 -1.58 15 -6 15 C-6.33 16.65 -6.66 18.3 -7 20 C-8.98 20.33 -10.96 20.66 -13 21 C-13 23.64 -13 26.28 -13 29 C-14.65 29 -16.3 29 -18 29 C-18 32.63 -18 36.26 -18 40 C-20.64 40 -23.28 40 -26 40 C-26 348.22 -26 656.44 -26 974 C-23.69 974 -21.38 974 -19 974 C-19 978.62 -19 983.24 -19 988 C-17.02 988 -15.04 988 -13 988 C-13 991.3 -13 994.6 -13 998 C-10.69 998 -8.38 998 -6 998 C-6 1000.31 -6 1002.62 -6 1005 C-2.04 1005 1.92 1005 6 1005 C6 1006.98 6 1008.96 6 1011 C209.94 1011 413.88 1011 624 1011 C624 1009.02 624 1007.04 624 1005 C627.96 1005 631.92 1005 636 1005 C636.33 1003.02 636.66 1001.04 637 999 C639.31 998.67 641.62 998.34 644 998 C644 994.7 644 991.4 644 988 C645.98 988 647.96 988 650 988 C650 983.38 650 978.76 650 974 C652.31 974 654.62 974 657 974 C657 665.78 657 357.56 657 40 C654.69 40 652.38 40 650 40 C650 36.37 650 32.74 650 29 C648.02 29 646.04 29 644 29 C644 26.36 644 23.72 644 21 C641.36 21 638.72 21 636 21 C636 19.02 636 17.04 636 15 C632.04 15 628.08 15 624 15 C624 13.02 624 11.04 624 9 C420.39 9 216.78 9 7 9 Z " fill="#2F2E31" transform="translate(196,218)"/>
<path d="M0 0 C1.98 0 3.96 0 6 0 C6 3.63 6 7.26 6 11 C8.31 11 10.62 11 13 11 C13 319.22 13 627.44 13 945 C10.69 945 8.38 945 6 945 C6 949.62 6 954.24 6 959 C4.02 959 2.04 959 0 959 C0 962.3 0 965.6 0 969 C-2.31 969.33 -4.62 969.66 -7 970 C-7.33 971.98 -7.66 973.96 -8 976 C-11.96 976 -15.92 976 -20 976 C-20 977.98 -20 979.96 -20 982 C-223.94 982 -427.88 982 -638 982 C-638 980.02 -638 978.04 -638 976 C-641.96 976 -645.92 976 -650 976 C-650 973.69 -650 971.38 -650 969 C-652.31 969 -654.62 969 -657 969 C-657 965.7 -657 962.4 -657 959 C-658.98 959 -660.96 959 -663 959 C-663 954.38 -663 949.76 -663 945 C-661.02 945 -659.04 945 -657 945 C-657 946.98 -657 948.96 -657 951 C-654.69 951 -652.38 951 -650 951 C-650 954.3 -650 957.6 -650 961 C-646.04 961 -642.08 961 -638 961 C-638 962.98 -638 964.96 -638 967 C-632.72 967 -627.44 967 -622 967 C-622 968.98 -622 970.96 -622 973 C-425.98 973 -229.96 973 -28 973 C-28 971.02 -28 969.04 -28 967 C-25.36 967 -22.72 967 -20 967 C-20 965.02 -20 963.04 -20 961 C-17.36 961 -14.72 961 -12 961 C-12 958.36 -12 955.72 -12 953 C-10.68 953 -9.36 953 -8 953 C-7.67 950.69 -7.34 948.38 -7 946 C-9.97 946 -12.94 946 -16 946 C-16 948.64 -16 951.28 -16 954 C-16.33 954 -16.66 954 -17 954 C-17 951.03 -17 948.06 -17 945 C-14.03 945 -11.06 945 -8 945 C-8 637.11 -8 329.22 -8 12 C-7.67 12 -7.34 12 -7 12 C-7 319.89 -7 627.78 -7 945 C-3.37 944.67 0.26 944.34 4 944 C4 636.44 4 328.88 4 12 C2.68 11.67 1.36 11.34 0 11 C0 7.37 0 3.74 0 0 Z " fill="#908D90" transform="translate(840,247)"/>
<path d="M0 0 C2.97 0 5.94 0 9 0 C9.125 6.75 9.125 6.75 8 9 C10.31 9 12.62 9 15 9 C15 10.98 15 12.96 15 15 C215.64 15 416.28 15 623 15 C623 12.69 623 10.38 623 8 C626.63 8 630.26 8 634 8 C634 5.36 634 2.72 634 0 C636.97 0 639.94 0 643 0 C642.67 2.31 642.34 4.62 642 7 C640.68 7 639.36 7 638 7 C638 9.64 638 12.28 638 15 C635.36 15 632.72 15 630 15 C630 16.98 630 18.96 630 21 C627.36 21 624.72 21 622 21 C622 22.98 622 24.96 622 27 C425.98 27 229.96 27 28 27 C28 25.02 28 23.04 28 21 C22.72 21 17.44 21 12 21 C12 19.02 12 17.04 12 15 C8.04 15 4.08 15 0 15 C0 10.05 0 5.1 0 0 Z " fill="#FBFAFA" transform="translate(190,1193)"/>
<path d="M0 0 C0.33 0 0.66 0 1 0 C1 307.89 1 615.78 1 933 C3.64 933 6.28 933 9 933 C9 934.98 9 936.96 9 939 C6.36 939 3.72 939 1 939 C1.01160156 940.30195312 1.02320313 941.60390625 1.03515625 942.9453125 C1.04453973 944.67187356 1.05363934 946.39843618 1.0625 948.125 C1.07087891 948.9809375 1.07925781 949.836875 1.08789062 950.71875 C1.10538306 955.26678411 0.93192358 959.52383164 0 964 C-3.96 964 -7.92 964 -12 964 C-12 965.98 -12 967.96 -12 970 C-215.94 970 -419.88 970 -630 970 C-630 968.02 -630 966.04 -630 964 C-633.96 964 -637.92 964 -642 964 C-642 961.69 -642 959.38 -642 957 C-644.31 957 -646.62 957 -649 957 C-649 953.7 -649 950.4 -649 947 C-650.98 947 -652.96 947 -655 947 C-655 942.38 -655 937.76 -655 933 C-653.02 933 -651.04 933 -649 933 C-649 934.98 -649 936.96 -649 939 C-646.69 939 -644.38 939 -642 939 C-642 942.3 -642 945.6 -642 949 C-638.04 949 -634.08 949 -630 949 C-630 950.98 -630 952.96 -630 955 C-624.72 955 -619.44 955 -614 955 C-614 956.98 -614 958.96 -614 961 C-417.98 961 -221.96 961 -20 961 C-20 959.02 -20 957.04 -20 955 C-17.36 955 -14.72 955 -12 955 C-12 953.02 -12 951.04 -12 949 C-9.36 949 -6.72 949 -4 949 C-4 946.36 -4 943.72 -4 941 C-2.68 941 -1.36 941 0 941 C0.33 938.69 0.66 936.38 1 934 C-1.97 934 -4.94 934 -8 934 C-8 936.64 -8 939.28 -8 942 C-8.33 942 -8.66 942 -9 942 C-9 939.03 -9 936.06 -9 933 C-6.03 933 -3.06 933 0 933 C0 625.11 0 317.22 0 0 Z " fill="#949193" transform="translate(832,259)"/>
<path d="M0 0 C13.2 0 26.4 0 40 0 C40 2.64 40 5.28 40 8 C38.35 8.66 36.7 9.32 35 10 C34.67 12.31 34.34 14.62 34 17 C32.02 17 30.04 17 28 17 C28 19.97 28 22.94 28 26 C26.68 26 25.36 26 24 26 C24 28.97 24 31.94 24 35 C25.32 35 26.64 35 28 35 C28.268125 34.360625 28.53625 33.72125 28.8125 33.0625 C30 31 30 31 33 30 C33.33 29.34 33.66 28.68 34 28 C34.66 28 35.32 28 36 28 C36 26.68 36 25.36 36 24 C41.94 24 47.88 24 54 24 C54 26.31 54 28.62 54 31 C56.31 31 58.62 31 61 31 C61 33.97 61 36.94 61 40 C62.32 40 63.64 40 65 40 C65 46.93 65 53.86 65 61 C63.02 61 61.04 61 59 61 C59 63.97 59 66.94 59 70 C57.02 70 55.04 70 53 70 C53 73.63 53 77.26 53 81 C51.02 81 49.04 81 47 81 C47 85.29 47 89.58 47 94 C44.69 94 42.38 94 40 94 C40 97.96 40 101.92 40 106 C37.69 106 35.38 106 33 106 C33 110.29 33 114.58 33 119 C30.69 119 28.38 119 26 119 C26 123.29 26 127.58 26 132 C22.37 132 18.74 132 15 132 C15 128.04 15 124.08 15 120 C13.35 120 11.7 120 10 120 C10 115.71 10 111.42 10 107 C7.36 107 4.72 107 2 107 C2 103.04 2 99.08 2 95 C0.02 95 -1.96 95 -4 95 C-4 90.38 -4 85.76 -4 81 C-5.98 81 -7.96 81 -10 81 C-10 77.37 -10 73.74 -10 70 C-12.31 70 -14.62 70 -17 70 C-17 66.7 -17 63.4 -17 60 C-18.98 60 -20.96 60 -23 60 C-23 53.07 -23 46.14 -23 39 C-21.02 39 -19.04 39 -17 39 C-17 36.36 -17 33.72 -17 31 C-14.69 31 -12.38 31 -10 31 C-10 28.69 -10 26.38 -10 24 C-5.05 24 -0.1 24 5 24 C5.33 25.32 5.66 26.64 6 28 C8.98352894 29.78379415 8.98352894 29.78379415 12 31 C12 32.32 12 33.64 12 35 C13.65 35 15.3 35 17 35 C17 32.03 17 29.06 17 26 C15.35 26 13.7 26 12 26 C12 23.03 12 20.06 12 17 C10.35 17 8.7 17 7 17 C7 14.36 7 11.72 7 9 C4.69 9 2.38 9 0 9 C0 6.03 0 3.06 0 0 Z " fill="#262627" transform="translate(753,1029)"/>
<path d="M0 0 C3.3 0 6.6 0 10 0 C10 3.3 10 6.6 10 10 C12.31 10 14.62 10 17 10 C17 13.96 17 17.92 17 22 C18.98 22 20.96 22 23 22 C23 25.96 23 29.92 23 34 C24.65 34 26.3 34 28 34 C28 37.3 28 40.6 28 44 C29.98 44 31.96 44 34 44 C34 46.97 34 49.94 34 53 C34.99 53 35.98 53 37 53 C37 55.64 37 58.28 37 61 C38.98 61 40.96 61 43 61 C43 68.92 43 76.84 43 85 C40.69 85 38.38 85 36 85 C36 87.64 36 90.28 36 93 C29.73 93 23.46 93 17 93 C16.34 90.03 15.68 87.06 15 84 C13.02 84 11.04 84 9 84 C9 87.3 9 90.6 9 94 C10.98 94 12.96 94 15 94 C15 96.64 15 99.28 15 102 C16.98 102 18.96 102 21 102 C21 104.64 21 107.28 21 110 C22.65 110 24.3 110 26 110 C26 112.97 26 115.94 26 119 C12.14 119 -1.72 119 -16 119 C-16 116.03 -16 113.06 -16 110 C-14.02 110 -12.04 110 -10 110 C-10 107.36 -10 104.72 -10 102 C-7.69 102 -5.38 102 -3 102 C-3 99.36 -3 96.72 -3 94 C-1.35 94 0.3 94 2 94 C2 90.7 2 87.4 2 84 C0.35 84 -1.3 84 -3 84 C-3.33 85.65 -3.66 87.3 -4 89 C-4.99 89 -5.98 89 -7 89 C-7 90.32 -7 91.64 -7 93 C-12.94 93 -18.88 93 -25 93 C-25.33 90.36 -25.66 87.72 -26 85 C-28.31 85 -30.62 85 -33 85 C-33 77.41 -33 69.82 -33 62 C-31.02 62 -29.04 62 -27 62 C-27 59.36 -27 56.72 -27 54 C-25.68 54 -24.36 54 -23 54 C-23 50.7 -23 47.4 -23 44 C-21.02 44 -19.04 44 -17 44 C-17 40.7 -17 37.4 -17 34 C-15.35 34 -13.7 34 -12 34 C-12.01160156 33.21753906 -12.02320313 32.43507813 -12.03515625 31.62890625 C-12.04417969 30.61699219 -12.05320313 29.60507812 -12.0625 28.5625 C-12.07410156 27.55316406 -12.08570313 26.54382813 -12.09765625 25.50390625 C-12 23 -12 23 -11 22 C-9.35 22 -7.7 22 -6 22 C-6 18.04 -6 14.08 -6 10 C-4.02 10 -2.04 10 0 10 C0 6.7 0 3.4 0 0 Z " fill="#29282A" transform="translate(235,255)"/>
<path d="M0 0 C0.66 0 1.32 0 2 0 C2 310.53 2 621.06 2 941 C0.35 940.67 -1.3 940.34 -3 940 C-2.01 939.67 -1.02 939.34 0 939 C0 629.13 0 319.26 0 0 Z " fill="#434245" transform="translate(861,259)"/>
<path d="M0 0 C0.33 0 0.66 0 1 0 C1 308.22 1 616.44 1 934 C-1.31 934 -3.62 934 -6 934 C-6 938.62 -6 943.24 -6 948 C-7.98 948 -9.96 948 -12 948 C-12 951.3 -12 954.6 -12 958 C-14.31 958 -16.62 958 -19 958 C-19 952.06 -19 946.12 -19 940 C-16.36 940 -13.72 940 -11 940 C-11 938.02 -11 936.04 -11 934 C-9.68 934 -8.36 934 -7 934 C-7 932.35 -7 930.7 -7 929 C-6.34 929 -5.68 929 -5 929 C-5 930.32 -5 931.64 -5 933 C-3.35 933 -1.7 933 0 933 C0 625.11 0 317.22 0 0 Z " fill="#6F6E72" transform="translate(852,258)"/>
<path d="M0 0 C1.98 0 3.96 0 6 0 C6 1.98 6 3.96 6 6 C8.31 6 10.62 6 13 6 C13 9.3 13 12.6 13 16 C16.96 16 20.92 16 25 16 C25 17.98 25 19.96 25 22 C30.28 22 35.56 22 41 22 C41 23.98 41 25.96 41 28 C236.69 28 432.38 28 634 28 C634 28.33 634 28.66 634 29 C432.7 29 231.4 29 24 29 C23.505 26.525 23.505 26.525 23 24 C17.39 24 11.78 24 6 24 C6 20.7 6 17.4 6 14 C4.02 14 2.04 14 0 14 C0 9.38 0 4.76 0 0 Z " fill="#A9A7A9" transform="translate(177,1192)"/>
<path d="M0 0 C5.94 0 11.88 0 18 0 C18 1.98 18 3.96 18 6 C15.36 6 12.72 6 10 6 C10 11.94 10 17.88 10 24 C5.71 24 1.42 24 -3 24 C-3 25.32 -3 26.64 -3 28 C-5.64 28 -8.28 28 -11 28 C-11 26.02 -11 24.04 -11 22 C-8.36 22 -5.72 22 -3 22 C-3 20.02 -3 18.04 -3 16 C-0.36 16 2.28 16 5 16 C5 13.36 5 10.72 5 8 C6.32 8 7.64 8 9 8 C9.33 5.69 9.66 3.38 10 1 C7.03 1 4.06 1 1 1 C1 3.64 1 6.28 1 9 C0.67 9 0.34 9 0 9 C0 6.03 0 3.06 0 0 Z " fill="#B2AFB1" transform="translate(823,1192)"/>
<path d="M0 0 C1.98 0 3.96 0 6 0 C6 1.98 6 3.96 6 6 C8.31 6 10.62 6 13 6 C13 10.95 13 15.9 13 21 C14.98 21 16.96 21 19 21 C19 21.33 19 21.66 19 22 C17.02 22 15.04 22 13 22 C13 22.66 13 23.32 13 24 C10.69 24 8.38 24 6 24 C6 20.7 6 17.4 6 14 C4.02 14 2.04 14 0 14 C0 9.38 0 4.76 0 0 Z " fill="#B5B1B2" transform="translate(177,1192)"/>
<path d="M0 0 C3.96 0 7.92 0 12 0 C12 1.98 12 3.96 12 6 C17.28 6 22.56 6 28 6 C28 7.98 28 9.96 28 12 C22.06 12 16.12 12 10 12 C10 10.68 10 9.36 10 8 C6.7 8 3.4 8 0 8 C0 5.36 0 2.72 0 0 Z " fill="#D5D2D3" transform="translate(190,1208)"/>
<path d="M0 0 C1.32 0 2.64 0 4 0 C4 4.29 4 8.58 4 13 C2.68 13.33 1.36 13.66 0 14 C-0.33 17.3 -0.66 20.6 -1 24 C-3.31 24 -5.62 24 -8 24 C-8 18.06 -8 12.12 -8 6 C-5.36 6 -2.72 6 0 6 C0 4.02 0 2.04 0 0 Z " fill="#979396" transform="translate(841,1192)"/>
<path d="M0 0 C2.97 0 5.94 0 9 0 C8.67 2.31 8.34 4.62 8 7 C6.68 7 5.36 7 4 7 C4 9.64 4 12.28 4 15 C1.36 15 -1.28 15 -4 15 C-4 16.98 -4 18.96 -4 21 C-4.33 21 -4.66 21 -5 21 C-5 19.02 -5 17.04 -5 15 C-6.98 15 -8.96 15 -11 15 C-11 12.69 -11 10.38 -11 8 C-7.37 8 -3.74 8 0 8 C0 5.36 0 2.72 0 0 Z " fill="#F2F1F2" transform="translate(824,1193)"/>
<path d="M0 0 C4.29 0 8.58 0 13 0 C13 0.33 13 0.66 13 1 C10.69 1 8.38 1 6 1 C6 2.98 6 4.96 6 7 C4.02 7 2.04 7 0 7 C0 9.64 0 12.28 0 15 C-2.97 15 -5.94 15 -9 15 C-9 17.97 -9 20.94 -9 24 C-9.99 24.33 -10.98 24.66 -12 25 C-12 21.37 -12 17.74 -12 14 C-10.35 14 -8.7 14 -7 14 C-7 11.36 -7 8.72 -7 6 C-5.02 5.67 -3.04 5.34 -1 5 C-0.67 3.35 -0.34 1.7 0 0 Z " fill="#E0DFE1" transform="translate(190,233)"/>
<path d="M0 0 C1.98 0 3.96 0 6 0 C6.66 2.97 7.32 5.94 8 9 C13.94 9 19.88 9 26 9 C26 9.33 26 9.66 26 10 C24.80761719 10.04898437 23.61523438 10.09796875 22.38671875 10.1484375 C20.82028932 10.22347604 19.25388421 10.2990234 17.6875 10.375 C16.90181641 10.4059375 16.11613281 10.436875 15.30664062 10.46875 C14.1706543 10.52675781 14.1706543 10.52675781 13.01171875 10.5859375 C11.96697388 10.63306885 11.96697388 10.63306885 10.90112305 10.68115234 C8.67467261 10.92118253 8.67467261 10.92118253 6 13 C6 12.01 6 11.02 6 10 C4.02 10 2.04 10 0 10 C0 6.7 0 3.4 0 0 Z " fill="#636265" transform="translate(244,339)"/>
<path d="M0 0 C1.32 0 2.64 0 4 0 C4 1.98 4 3.96 4 6 C6.64 6 9.28 6 12 6 C12 8.64 12 11.28 12 14 C9.36 14 6.72 14 4 14 C4 11.69 4 9.38 4 7 C2.68 7 1.36 7 0 7 C0 4.69 0 2.38 0 0 Z " fill="#A7A4A6" transform="translate(828,233)"/>
<path d="M0 0 C3.96 0 7.92 0 12 0 C11.67 3.96 11.34 7.92 11 12 C10.67 10.68 10.34 9.36 10 8 C6.7 8 3.4 8 0 8 C0 5.36 0 2.72 0 0 Z " fill="#CECACB" transform="translate(190,1208)"/>
<path d="M0 0 C4.29 0 8.58 0 13 0 C12.67 2.31 12.34 4.62 12 7 C8.04 7 4.08 7 0 7 C0 4.69 0 2.38 0 0 Z " fill="#827F82" transform="translate(820,1216)"/>
<path d="M0 0 C2.31 0 4.62 0 7 0 C7 2.31 7 4.62 7 7 C8.98 7 10.96 7 13 7 C13 7.33 13 7.66 13 8 C11.02 8 9.04 8 7 8 C7 8.66 7 9.32 7 10 C4.69 10 2.38 10 0 10 C0 6.7 0 3.4 0 0 Z " fill="#8A8689" transform="translate(183,1206)"/>
<path d="M0 0 C2.31 0 4.62 0 7 0 C7 3.3 7 6.6 7 10 C4.69 10 2.38 10 0 10 C0 6.7 0 3.4 0 0 Z " fill="#827D81" transform="translate(833,1206)"/>
<path d="M0 0 C2.64 0 5.28 0 8 0 C8 2.31 8 4.62 8 7 C5.29120665 8.35439668 2.99066732 8.06501451 0 8 C0 5.36 0 2.72 0 0 Z " fill="#E3E1E2" transform="translate(820,233)"/>
<path d="M0 0 C3.3 0 6.6 0 10 0 C10 1.98 10 3.96 10 6 C6.7 6.33 3.4 6.66 0 7 C0 4.69 0 2.38 0 0 Z " fill="#807E82" transform="translate(190,1216)"/>
<path d="M0 0 C1.65 0 3.3 0 5 0 C5 3.63 5 7.26 5 11 C3.35 11 1.7 11 0 11 C0 7.37 0 3.74 0 0 Z " fill="#A6A4A4" transform="translate(840,247)"/>
<path d="M0 0 C1.32 0 2.64 0 4 0 C4 4.29 4 8.58 4 13 C2.68 13 1.36 13 0 13 C0 8.71 0 4.42 0 0 Z " fill="#8E8A8D" transform="translate(841,1192)"/>
<path d="M0 0 C5.61 0 11.22 0 17 0 C17 1.65 17 3.3 17 5 C12.25 5.125 12.25 5.125 10 4 C10 3.01 10 2.02 10 1 C7.03 1 4.06 1 1 1 C1 3.64 1 6.28 1 9 C0.67 9 0.34 9 0 9 C0 6.03 0 3.06 0 0 Z " fill="#C2C0C2" transform="translate(823,1192)"/>
<path d="M0 0 C0.33 0 0.66 0 1 0 C1 2.31 1 4.62 1 7 C2.98 7 4.96 7 7 7 C7 7.33 7 7.66 7 8 C4.03 8 1.06 8 -2 8 C-2 10.97 -2 13.94 -2 17 C-2.99 17.33 -3.98 17.66 -5 18 C-5 14.37 -5 10.74 -5 7 C-3.35 7 -1.7 7 0 7 C0 4.69 0 2.38 0 0 Z " fill="#E9E8E8" transform="translate(183,240)"/>
<path d="M0 0 C2.97 0 5.94 0 9 0 C8.67 1.65 8.34 3.3 8 5 C6.8553125 5.2165625 6.8553125 5.2165625 5.6875 5.4375 C2.91827092 5.9632594 2.91827092 5.9632594 0 7 C0 4.69 0 2.38 0 0 Z " fill="#FDFDFD" transform="translate(824,1193)"/>
<path d="M0 0 C3.63 0 7.26 0 11 0 C11 2.64 11 5.28 11 8 C10.67 6.68 10.34 5.36 10 4 C6.7 4 3.4 4 0 4 C0 2.68 0 1.36 0 0 Z " fill="#B1AEB0" transform="translate(190,1212)"/>
<path d="M0 0 C0.33 0 0.66 0 1 0 C1.33 2.31 1.66 4.62 2 7 C2.99 6.67 3.98 6.34 5 6 C5 8.64 5 11.28 5 14 C3.35 14 1.7 14 0 14 C0 9.38 0 4.76 0 0 Z " fill="#8B898B" transform="translate(177,1192)"/>
<path d="M0 0 C2.64 0 5.28 0 8 0 C8.33 1.65 8.66 3.3 9 5 C6.03 5 3.06 5 0 5 C0 3.35 0 1.7 0 0 Z " fill="#EBEBEC" transform="translate(811,228)"/>
<path d="M0 0 C1.32 0 2.64 0 4 0 C4 2.31 4 4.62 4 7 C6.64 7 9.28 7 12 7 C12 7.33 12 7.66 12 8 C8.04 8 4.08 8 0 8 C0 5.36 0 2.72 0 0 Z " fill="#D8D7D8" transform="translate(828,240)"/>
<path d="M0 0 C2.375 -0.125 2.375 -0.125 5 0 C7 2 7 2 7 6 C4.69 6 2.38 6 0 6 C0 4.02 0 2.04 0 0 Z " fill="#E9E7E7" transform="translate(183,1192)"/>
<path d="M0 0 C1.32 0 2.64 0 4 0 C4 1.98 4 3.96 4 6 C6.64 6 9.28 6 12 6 C12 6.33 12 6.66 12 7 C8.04 7 4.08 7 0 7 C0 4.69 0 2.38 0 0 Z " fill="#939092" transform="translate(828,233)"/>
<path d="M0 0 C1.98 0 3.96 0 6 0 C6 1.98 6 3.96 6 6 C4.02 6 2.04 6 0 6 C0 4.02 0 2.04 0 0 Z " fill="#7F7C7E" transform="translate(197,227)"/>
<path d="M0 0 C1.32 0 2.64 0 4 0 C4 2.64 4 5.28 4 8 C2.68 8 1.36 8 0 8 C0 5.36 0 2.72 0 0 Z " fill="#E7E6E7" transform="translate(202,241)"/>
<path d="M0 0 C1.32 0 2.64 0 4 0 C4 2.31 4 4.62 4 7 C2.68 7 1.36 7 0 7 C0 4.69 0 2.38 0 0 Z " fill="#D0CED0" transform="translate(828,1200)"/>
<path d="M0 0 C3.3 0 6.6 0 10 0 C10 0.33 10 0.66 10 1 C8.576875 1.12375 8.576875 1.12375 7.125 1.25 C3.89538209 1.65074923 3.89538209 1.65074923 2.625 4.0625 C2.41875 4.701875 2.2125 5.34125 2 6 C1.34 6 0.68 6 0 6 C0 4.02 0 2.04 0 0 Z " fill="#D6D5D6" transform="translate(813,1201)"/>
<path d="M0 0 C2.64 0 5.28 0 8 0 C8 0.99 8 1.98 8 3 C5.36 3 2.72 3 0 3 C0 2.01 0 1.02 0 0 Z " fill="#CECBCC" transform="translate(812,1217)"/>
<path d="M0 0 C2.64 0 5.28 0 8 0 C8 0.99 8 1.98 8 3 C5.36 3 2.72 3 0 3 C0 2.01 0 1.02 0 0 Z " fill="#BBB8BA" transform="translate(812,1214)"/>
<path d="M0 0 C1.65 0 3.3 0 5 0 C5 0.66 5 1.32 5 2 C3.02 2.99 1.04 3.98 -1 5 C-0.67 3.35 -0.34 1.7 0 0 Z " fill="#4D4A4C" transform="translate(178,230)"/>
</svg>
