<?xml version="1.0" encoding="UTF-8"?>
<svg version="1.1" xmlns="http://www.w3.org/2000/svg" width="316" height="316">
<path d="M0 0 C104.28 0 208.56 0 316 0 C316 104.28 316 208.56 316 316 C211.72 316 107.44 316 0 316 C0 211.72 0 107.44 0 0 Z " fill="#98B0C1" transform="translate(0,0)"/>
<path d="M0 0 C5.94 0 11.88 0 18 0 C18 2.64 18 5.28 18 8 C15.03 8 12.06 8 9 8 C9 19.88 9 31.76 9 44 C11.97 44.33 14.94 44.66 18 45 C18 50.61 18 56.22 18 62 C26.25 62 34.5 62 43 62 C43 56.39 43 50.78 43 45 C46.3 45 49.6 45 53 45 C53 32.79 53 20.58 53 8 C49.7 8 46.4 8 43 8 C43 5.36 43 2.72 43 0 C49.27 0 55.54 0 62 0 C62 2.64 62 5.28 62 8 C64.64 8 67.28 8 70 8 C70 14.27 70 20.54 70 27 C72.97 27 75.94 27 79 27 C79 32.94 79 38.88 79 45 C84.94 45 90.88 45 97 45 C97 47.64 97 50.28 97 53 C99.97 53 102.94 53 106 53 C106 50.36 106 47.72 106 45 C108.97 45 111.94 45 115 45 C115 42.36 115 39.72 115 37 C112.03 37 109.06 37 106 37 C106 34.03 106 31.06 106 28 C111.94 28 117.88 28 124 28 C124 30.97 124 33.94 124 37 C126.97 37 129.94 37 133 37 C133 47.89 133 58.78 133 70 C130.03 70 127.06 70 124 70 C124 72.64 124 75.28 124 78 C121.03 78 118.06 78 115 78 C115 80.97 115 83.94 115 87 C106.09 87 97.18 87 88 87 C88 89.64 88 92.28 88 95 C90.97 95 93.94 95 97 95 C97 105.89 97 116.78 97 128 C81.82 128 66.64 128 51 128 C51 130.31 51 132.62 51 135 C60.24 135 69.48 135 79 135 C79 137.97 79 140.94 79 144 C81.97 144 84.94 144 88 144 C88 146.64 88 149.28 88 152 C93.94 152 99.88 152 106 152 C106 168.5 106 185 106 202 C103.03 202 100.06 202 97 202 C97 204.64 97 207.28 97 210 C94.03 210 91.06 210 88 210 C88 212.97 88 215.94 88 219 C85.03 219 82.06 219 79 219 C79 221.64 79 224.28 79 227 C69.43 227 59.86 227 50 227 C50 232.94 50 238.88 50 245 C36.8 245 23.6 245 10 245 C10 239.06 10 233.12 10 227 C0.76 227 -8.48 227 -18 227 C-18 224.36 -18 221.72 -18 219 C-20.97 219 -23.94 219 -27 219 C-27 216.03 -27 213.06 -27 210 C-29.97 210 -32.94 210 -36 210 C-36 207.36 -36 204.72 -36 202 C-38.64 202 -41.28 202 -44 202 C-44 191.11 -44 180.22 -44 169 C-35 167.875 -35 167.875 -30.86914062 167.88647461 C-29.48861511 167.88658791 -29.48861511 167.88658791 -28.0802002 167.88670349 C-27.11529663 167.89186478 -26.15039307 167.89702606 -25.15625 167.90234375 C-24.14655151 167.9037587 -23.13685303 167.90517365 -22.09655762 167.90663147 C-18.89767389 167.91219219 -15.69886228 167.9247373 -12.5 167.9375 C-10.32031352 167.94252008 -8.14062593 167.9470821 -5.9609375 167.95117188 C-0.64060074 167.96214872 4.67969448 167.97884732 10 168 C10 165.69 10 163.38 10 161 C-2.21 161 -14.42 161 -27 161 C-27 158.03 -27 155.06 -27 152 C-29.97 152 -32.94 152 -36 152 C-36 133.19 -36 114.38 -36 95 C-33.03 95 -30.06 95 -27 95 C-27 92.36 -27 89.72 -27 87 C-35.91 87 -44.82 87 -54 87 C-54 84.03 -54 81.06 -54 78 C-56.97 78 -59.94 78 -63 78 C-63 75.36 -63 72.72 -63 70 C-65.97 70 -68.94 70 -72 70 C-72 59.11 -72 48.22 -72 37 C-69.03 37 -66.06 37 -63 37 C-63 34.03 -63 31.06 -63 28 C-56.73 28 -50.46 28 -44 28 C-44 30.97 -44 33.94 -44 37 C-41.03 37 -38.06 37 -35 37 C-35 39.64 -35 42.28 -35 45 C-29.39 45 -23.78 45 -18 45 C-18 39.06 -18 33.12 -18 27 C-15.03 27 -12.06 27 -9 27 C-9 20.73 -9 14.46 -9 8 C-6.03 8 -3.06 8 0 8 C0 5.36 0 2.72 0 0 Z " fill="#FBB83E" transform="translate(131,32)"/>
<path d="M0 0 C5.94 0 11.88 0 18 0 C18 2.64 18 5.28 18 8 C15.03 8 12.06 8 9 8 C9 19.88 9 31.76 9 44 C11.97 44.33 14.94 44.66 18 45 C18 50.61 18 56.22 18 62 C26.25 62 34.5 62 43 62 C43 56.39 43 50.78 43 45 C46.3 45 49.6 45 53 45 C53 32.79 53 20.58 53 8 C49.7 8 46.4 8 43 8 C43 5.36 43 2.72 43 0 C49.27 0 55.54 0 62 0 C62 2.64 62 5.28 62 8 C64.64 8 67.28 8 70 8 C70 14.27 70 20.54 70 27 C72.97 27 75.94 27 79 27 C79 32.94 79 38.88 79 45 C84.94 45 90.88 45 97 45 C97 47.64 97 50.28 97 53 C99.97 53 102.94 53 106 53 C106 50.36 106 47.72 106 45 C108.97 45 111.94 45 115 45 C115 42.36 115 39.72 115 37 C112.03 37 109.06 37 106 37 C106 34.03 106 31.06 106 28 C111.94 28 117.88 28 124 28 C124 30.97 124 33.94 124 37 C126.97 37 129.94 37 133 37 C133 47.89 133 58.78 133 70 C130.03 70 127.06 70 124 70 C124 72.64 124 75.28 124 78 C121.03 78 118.06 78 115 78 C115 80.97 115 83.94 115 87 C106.09 87 97.18 87 88 87 C88 89.64 88 92.28 88 95 C90.97 95 93.94 95 97 95 C97 105.89 97 116.78 97 128 C81.82 128 66.64 128 51 128 C51 130.31 51 132.62 51 135 C60.24 135 69.48 135 79 135 C79 137.97 79 140.94 79 144 C69.43 144 59.86 144 50 144 C50 141.36 50 138.72 50 136 C47.03 136 44.06 136 41 136 C41 125.11 41 114.22 41 103 C43.97 103 46.94 103 50 103 C50 105.64 50 108.28 50 111 C53.3 111 56.6 111 60 111 C60 113.64 60 116.28 60 119 C69.24 119 78.48 119 88 119 C88 113.72 88 108.44 88 103 C85.03 103 82.06 103 79 103 C79 100.36 79 97.72 79 95 C46.99 95 14.98 95 -18 95 C-18 97.64 -18 100.28 -18 103 C-20.64 103 -23.28 103 -26 103 C-26 116.53 -26 130.06 -26 144 C-23.03 144 -20.06 144 -17 144 C-17 146.64 -17 149.28 -17 152 C-8.09 152 0.82 152 10 152 C10 154.97 10 157.94 10 161 C-2.21 161 -14.42 161 -27 161 C-27 158.03 -27 155.06 -27 152 C-29.97 152 -32.94 152 -36 152 C-36 133.19 -36 114.38 -36 95 C-33.03 95 -30.06 95 -27 95 C-27 92.36 -27 89.72 -27 87 C-35.91 87 -44.82 87 -54 87 C-54 84.03 -54 81.06 -54 78 C-56.97 78 -59.94 78 -63 78 C-63 75.36 -63 72.72 -63 70 C-65.97 70 -68.94 70 -72 70 C-72 59.11 -72 48.22 -72 37 C-69.03 37 -66.06 37 -63 37 C-63 34.03 -63 31.06 -63 28 C-56.73 28 -50.46 28 -44 28 C-44 30.97 -44 33.94 -44 37 C-41.03 37 -38.06 37 -35 37 C-35 39.64 -35 42.28 -35 45 C-29.39 45 -23.78 45 -18 45 C-18 39.06 -18 33.12 -18 27 C-15.03 27 -12.06 27 -9 27 C-9 20.73 -9 14.46 -9 8 C-6.03 8 -3.06 8 0 8 C0 5.36 0 2.72 0 0 Z " fill="#3A223E" transform="translate(131,32)"/>
<path d="M0 0 C2.97 0 5.94 0 9 0 C9 8.25 9 16.5 9 25 C12.3 25 15.6 25 19 25 C19 51.73 19 78.46 19 106 C15.7 106 12.4 106 9 106 C9 111.61 9 117.22 9 123 C6.03 123 3.06 123 0 123 C0 128.94 0 134.88 0 141 C-2.97 141 -5.94 141 -9 141 C-9 143.64 -9 146.28 -9 149 C-12.3 149 -15.6 149 -19 149 C-19 151.64 -19 154.28 -19 157 C-21.64 157 -24.28 157 -27 157 C-27 159.97 -27 162.94 -27 166 C-42.18 166 -57.36 166 -73 166 C-73 163.03 -73 160.06 -73 157 C-63.76 157 -54.52 157 -45 157 C-45 154.36 -45 151.72 -45 149 C-42.03 149 -39.06 149 -36 149 C-36 146.03 -36 143.06 -36 140 C-33.03 140 -30.06 140 -27 140 C-27 137.36 -27 134.72 -27 132 C-24.03 132 -21.06 132 -18 132 C-18 115.5 -18 99 -18 82 C-23.94 82 -29.88 82 -36 82 C-36 79.36 -36 76.72 -36 74 C-38.97 74 -41.94 74 -45 74 C-45 71.03 -45 68.06 -45 65 C-54.24 65 -63.48 65 -73 65 C-73 62.69 -73 60.38 -73 58 C-57.82 58 -42.64 58 -27 58 C-27 47.11 -27 36.22 -27 25 C-29.97 25 -32.94 25 -36 25 C-36 22.36 -36 19.72 -36 17 C-27.09 17 -18.18 17 -9 17 C-9 14.03 -9 11.06 -9 8 C-6.03 8 -3.06 8 0 8 C0 5.36 0 2.72 0 0 Z " fill="#DCE7E4" transform="translate(255,102)"/>
<path d="M0 0 C2.97 0 5.94 0 9 0 C9 2.64 9 5.28 9 8 C11.97 8 14.94 8 18 8 C18 10.97 18 13.94 18 17 C26.91 17 35.82 17 45 17 C45 19.64 45 22.28 45 25 C42.03 25 39.06 25 36 25 C36 43.81 36 62.62 36 82 C38.97 82 41.94 82 45 82 C45 84.97 45 87.94 45 91 C57.21 91 69.42 91 82 91 C82 93.31 82 95.62 82 98 C64.18 98.33 46.36 98.66 28 99 C28 109.89 28 120.78 28 132 C30.64 132 33.28 132 36 132 C36 134.64 36 137.28 36 140 C38.97 140 41.94 140 45 140 C45 142.97 45 145.94 45 149 C47.97 149 50.94 149 54 149 C54 151.64 54 154.28 54 157 C63.24 157 72.48 157 82 157 C82 159.97 82 162.94 82 166 C67.15 166 52.3 166 37 166 C37 163.03 37 160.06 37 157 C34.03 157 31.06 157 28 157 C28 154.36 28 151.72 28 149 C24.7 149 21.4 149 18 149 C18 146.03 18 143.06 18 140 C15.36 140 12.72 140 10 140 C10 134.39 10 128.78 10 123 C6.7 123 3.4 123 0 123 C0 117.39 0 111.78 0 106 C-3.3 106 -6.6 106 -10 106 C-10 79.27 -10 52.54 -10 25 C-6.7 25 -3.4 25 0 25 C0 16.75 0 8.5 0 0 Z " fill="#DCE8E5" transform="translate(59,102)"/>
<path d="M0 0 C5.94 0 11.88 0 18 0 C18 2.97 18 5.94 18 9 C20.97 9 23.94 9 27 9 C27 19.89 27 30.78 27 42 C24.03 42 21.06 42 18 42 C18 44.64 18 47.28 18 50 C15.03 50 12.06 50 9 50 C9 52.97 9 55.94 9 59 C0.09 59 -8.82 59 -18 59 C-18 61.64 -18 64.28 -18 67 C-15.03 67 -12.06 67 -9 67 C-9 77.89 -9 88.78 -9 100 C-24.18 100 -39.36 100 -55 100 C-55 102.31 -55 104.62 -55 107 C-45.76 107 -36.52 107 -27 107 C-27 109.97 -27 112.94 -27 116 C-36.57 116 -46.14 116 -56 116 C-56 113.36 -56 110.72 -56 108 C-58.97 108 -61.94 108 -65 108 C-65 97.11 -65 86.22 -65 75 C-62.03 75 -59.06 75 -56 75 C-56 77.64 -56 80.28 -56 83 C-52.7 83 -49.4 83 -46 83 C-46 85.64 -46 88.28 -46 91 C-36.76 91 -27.52 91 -18 91 C-18 85.72 -18 80.44 -18 75 C-20.97 75 -23.94 75 -27 75 C-27 72.36 -27 69.72 -27 67 C-59.01 67 -91.02 67 -124 67 C-124 69.64 -124 72.28 -124 75 C-126.64 75 -129.28 75 -132 75 C-132 88.53 -132 102.06 -132 116 C-129.03 116 -126.06 116 -123 116 C-123 118.64 -123 121.28 -123 124 C-114.09 124 -105.18 124 -96 124 C-96 126.97 -96 129.94 -96 133 C-108.21 133 -120.42 133 -133 133 C-133 130.03 -133 127.06 -133 124 C-135.97 124 -138.94 124 -142 124 C-142 105.19 -142 86.38 -142 67 C-139.03 67 -136.06 67 -133 67 C-133 64.36 -133 61.72 -133 59 C-141.91 59 -150.82 59 -160 59 C-160 56.03 -160 53.06 -160 50 C-148.12 50 -136.24 50 -124 50 C-124 52.64 -124 55.28 -124 58 C-91.99 58 -59.98 58 -27 58 C-27 55.36 -27 52.72 -27 50 C-18.09 50 -9.18 50 0 50 C0 44.72 0 39.44 0 34 C-2.97 34 -5.94 34 -9 34 C-9 31.03 -9 28.06 -9 25 C-6.03 25 -3.06 25 0 25 C0 22.36 0 19.72 0 17 C2.97 17 5.94 17 9 17 C9 14.36 9 11.72 9 9 C6.03 9 3.06 9 0 9 C0 6.03 0 3.06 0 0 Z " fill="#3B223A" transform="translate(237,60)"/>
<path d="M0 0 C5.94 0 11.88 0 18 0 C18 16.5 18 33 18 50 C15.03 50 12.06 50 9 50 C9 52.64 9 55.28 9 58 C6.03 58 3.06 58 0 58 C0 60.97 0 63.94 0 67 C-2.97 67 -5.94 67 -9 67 C-9 69.64 -9 72.28 -9 75 C-18.57 75 -28.14 75 -38 75 C-38 80.94 -38 86.88 -38 93 C-51.2 93 -64.4 93 -78 93 C-78 87.06 -78 81.12 -78 75 C-87.24 75 -96.48 75 -106 75 C-106 72.36 -106 69.72 -106 67 C-108.97 67 -111.94 67 -115 67 C-115 64.03 -115 61.06 -115 58 C-117.97 58 -120.94 58 -124 58 C-124 55.36 -124 52.72 -124 50 C-126.64 50 -129.28 50 -132 50 C-132 39.11 -132 28.22 -132 17 C-123 15.875 -123 15.875 -118.86914062 15.88647461 C-117.94879028 15.88655014 -117.02843994 15.88662567 -116.0802002 15.88670349 C-115.11529663 15.89186478 -114.15039307 15.89702606 -113.15625 15.90234375 C-112.14655151 15.9037587 -111.13685303 15.90517365 -110.09655762 15.90663147 C-106.89767389 15.91219219 -103.69886228 15.9247373 -100.5 15.9375 C-98.32031352 15.94252008 -96.14062593 15.9470821 -93.9609375 15.95117188 C-88.64060074 15.96214872 -83.32030552 15.97884732 -78 16 C-78 13.69 -78 11.38 -78 9 C-64.47 9 -50.94 9 -37 9 C-37 11.31 -37 13.62 -37 16 C-34.03 16 -31.06 16 -28 16 C-28 21.94 -28 27.88 -28 34 C-31.3 34 -34.6 34 -38 34 C-38 36.64 -38 39.28 -38 42 C-40.97 42 -43.94 42 -47 42 C-47 33.75 -47 25.5 -47 17 C-54.26 17 -61.52 17 -69 17 C-69 25.25 -69 33.5 -69 42 C-71.97 42 -74.94 42 -78 42 C-78 39.36 -78 36.72 -78 34 C-80.97 34 -83.94 34 -87 34 C-87 31.03 -87 28.06 -87 25 C-95.91 25 -104.82 25 -114 25 C-114 33.25 -114 41.5 -114 50 C-111.36 50 -108.72 50 -106 50 C-106 52.64 -106 55.28 -106 58 C-103.03 58 -100.06 58 -97 58 C-97 60.97 -97 63.94 -97 67 C-87.76 67 -78.52 67 -69 67 C-69 72.94 -69 78.88 -69 85 C-61.74 85 -54.48 85 -47 85 C-47 79.06 -47 73.12 -47 67 C-37.43 67 -27.86 67 -18 67 C-18 64.03 -18 61.06 -18 58 C-15.03 58 -12.06 58 -9 58 C-9 55.36 -9 52.72 -9 50 C-6.03 50 -3.06 50 0 50 C0 33.5 0 17 0 0 Z " fill="#39203A" transform="translate(219,184)"/>
<path d="M0 0 C32.01 0 64.02 0 97 0 C97 2.64 97 5.28 97 8 C99.97 8 102.94 8 106 8 C106 13.28 106 18.56 106 24 C96.76 24 87.52 24 78 24 C78 21.36 78 18.72 78 16 C74.7 16 71.4 16 68 16 C68 13.36 68 10.72 68 8 C65.03 8 62.06 8 59 8 C59 10.64 59 13.28 59 16 C51.74 16 44.48 16 37 16 C37 23.92 37 31.84 37 40 C34.03 40 31.06 40 28 40 C28 37.69 28 35.38 28 33 C25.03 33 22.06 33 19 33 C18.67 40.92 18.34 48.84 18 57 C12.39 57 6.78 57 1 57 C1 54.36 1 51.72 1 49 C-1.97 49 -4.94 49 -8 49 C-8 35.47 -8 21.94 -8 8 C-5.36 8 -2.72 8 0 8 C0 5.36 0 2.72 0 0 Z " fill="#CC571F" transform="translate(113,127)"/>
<path d="M0 0 C5.94 0 11.88 0 18 0 C18 2.97 18 5.94 18 9 C20.97 9 23.94 9 27 9 C27 14.28 27 19.56 27 25 C18.09 25 9.18 25 0 25 C0 27.64 0 30.28 0 33 C-32.01 33 -64.02 33 -97 33 C-97 25.08 -97 17.16 -97 9 C-94.03 9 -91.06 9 -88 9 C-88 11.64 -88 14.28 -88 17 C-61.93 17 -35.86 17 -9 17 C-9 14.36 -9 11.72 -9 9 C-6.03 9 -3.06 9 0 9 C0 6.03 0 3.06 0 0 Z " fill="#AB4940" transform="translate(210,85)"/>
<path d="M0 0 C2.97 0 5.94 0 9 0 C9 19.14 9 38.28 9 58 C6.03 58 3.06 58 0 58 C0 60.64 0 63.28 0 66 C-2.97 66 -5.94 66 -9 66 C-9 68.97 -9 71.94 -9 75 C-18.57 75 -28.14 75 -38 75 C-38 80.94 -38 86.88 -38 93 C-45.26 93 -52.52 93 -60 93 C-60 87.06 -60 81.12 -60 75 C-69.24 75 -78.48 75 -88 75 C-88 72.03 -88 69.06 -88 66 C-90.97 66 -93.94 66 -97 66 C-97 63.36 -97 60.72 -97 58 C-99.64 58 -102.28 58 -105 58 C-105 49.75 -105 41.5 -105 33 C-102.36 33 -99.72 33 -97 33 C-97 38.61 -97 44.22 -97 50 C-94.03 50 -91.06 50 -88 50 C-88 52.64 -88 55.28 -88 58 C-84.7 58 -81.4 58 -78 58 C-78 60.64 -78 63.28 -78 66 C-58.53 66 -39.06 66 -19 66 C-19 63.36 -19 60.72 -19 58 C-15.7 58 -12.4 58 -9 58 C-9 55.36 -9 52.72 -9 50 C-6.03 50 -3.06 50 0 50 C0 41.75 0 33.5 0 25 C2.64 25 5.28 25 8 25 C8 22.36 8 19.72 8 17 C5.36 17 2.72 17 0 17 C0 11.39 0 5.78 0 0 Z " fill="#E17320" transform="translate(210,176)"/>
<path d="M0 0 C13.53 0 27.06 0 41 0 C41 2.31 41 4.62 41 7 C43.97 7 46.94 7 50 7 C50 12.94 50 18.88 50 25 C46.7 25 43.4 25 40 25 C40 27.64 40 30.28 40 33 C37.03 33 34.06 33 31 33 C31 24.75 31 16.5 31 8 C23.74 8 16.48 8 9 8 C9 16.25 9 24.5 9 33 C6.03 33 3.06 33 0 33 C0 30.36 0 27.72 0 25 C-2.97 25 -5.94 25 -9 25 C-9 22.03 -9 19.06 -9 16 C-17.91 16 -26.82 16 -36 16 C-36 24.25 -36 32.5 -36 41 C-33.36 41 -30.72 41 -28 41 C-28 43.64 -28 46.28 -28 49 C-33.94 49 -39.88 49 -46 49 C-46 46.36 -46 43.72 -46 41 C-48.64 41 -51.28 41 -54 41 C-54 30.11 -54 19.22 -54 8 C-45 6.875 -45 6.875 -40.86914062 6.88647461 C-39.94879028 6.88655014 -39.02843994 6.88662567 -38.0802002 6.88670349 C-37.11529663 6.89186478 -36.15039307 6.89702606 -35.15625 6.90234375 C-34.14655151 6.9037587 -33.13685303 6.90517365 -32.09655762 6.90663147 C-28.89767389 6.91219219 -25.69886228 6.9247373 -22.5 6.9375 C-20.32031352 6.94252008 -18.14062593 6.9470821 -15.9609375 6.95117188 C-10.64060074 6.96214872 -5.32030552 6.97884732 0 7 C0 4.69 0 2.38 0 0 Z " fill="#3D263D" transform="translate(141,193)"/>
<path d="M0 0 C0.33 0 0.66 0 1 0 C1 2.97 1 5.94 1 9 C7.27 9 13.54 9 20 9 C20 11.97 20 14.94 20 18 C40.79 18 61.58 18 83 18 C83 20.97 83 23.94 83 27 C21.29 27 -40.42 27 -104 27 C-104 24.03 -104 21.06 -104 18 C-89.15 18 -74.3 18 -59 18 C-59 15.03 -59 12.06 -59 9 C-52.73 9 -46.46 9 -40 9 C-40 11.97 -40 14.94 -40 18 C-26.8 18 -13.6 18 0 18 C0 12.06 0 6.12 0 0 Z " fill="#6B7A9B" transform="translate(181,259)"/>
<path d="M0 0 C6.27 0 12.54 0 19 0 C19 5.61 19 11.22 19 17 C21.64 17 24.28 17 27 17 C27 19.64 27 22.28 27 25 C32.94 25 38.88 25 45 25 C45 33.25 45 41.5 45 50 C30.15 50 15.3 50 0 50 C0 47.36 0 44.72 0 42 C-2.97 42 -5.94 42 -9 42 C-9 31.11 -9 20.22 -9 9 C-6.03 9 -3.06 9 0 9 C0 6.03 0 3.06 0 0 Z " fill="#9E3F3D" transform="translate(68,60)"/>
<path d="M0 0 C2.97 0 5.94 0 9 0 C9 2.97 9 5.94 9 9 C17.25 9 25.5 9 34 9 C34 6.03 34 3.06 34 0 C37.3 0 40.6 0 44 0 C44 12.21 44 24.42 44 37 C40.7 37 37.4 37 34 37 C34 42.61 34 48.22 34 54 C25.75 54 17.5 54 9 54 C9 48.39 9 42.78 9 37 C3.06 37 -2.88 37 -9 37 C-9 36.67 -9 36.34 -9 36 C-6.03 36 -3.06 36 0 36 C0 24.12 0 12.24 0 0 Z " fill="#E09465" transform="translate(140,40)"/>
<path d="M0 0 C0.33 0 0.66 0 1 0 C1 5.61 1 11.22 1 17 C3.97 17 6.94 17 10 17 C10 19.31 10 21.62 10 24 C12.97 24 15.94 24 19 24 C19 16.08 19 8.16 19 0 C26.26 0 33.52 0 41 0 C41 8.25 41 16.5 41 25 C43.97 25 46.94 25 50 25 C50 27.64 50 30.28 50 33 C59.57 33 69.14 33 79 33 C79 38.61 79 44.22 79 50 C76.03 50 73.06 50 70 50 C70 47.03 70 44.06 70 41 C46.9 41 23.8 41 0 41 C0 27.47 0 13.94 0 0 Z " fill="#FCC047" transform="translate(131,143)"/>
<path d="M0 0 C11.88 0 23.76 0 36 0 C36 2.64 36 5.28 36 8 C32.7 8 29.4 8 26 8 C26 21.53 26 35.06 26 49 C20.39 49 14.78 49 9 49 C9 46.36 9 43.72 9 41 C6.03 41 3.06 41 0 41 C0 27.47 0 13.94 0 0 Z " fill="#FEC043" transform="translate(105,135)"/>
<path d="M0 0 C5.94 0 11.88 0 18 0 C18 2.97 18 5.94 18 9 C20.97 9 23.94 9 27 9 C27 19.89 27 30.78 27 42 C24.03 42 21.06 42 18 42 C18 44.64 18 47.28 18 50 C12.06 50 6.12 50 0 50 C0 44.72 0 39.44 0 34 C-2.97 34 -5.94 34 -9 34 C-9 31.03 -9 28.06 -9 25 C-6.03 25 -3.06 25 0 25 C0 22.36 0 19.72 0 17 C2.97 17 5.94 17 9 17 C9 14.36 9 11.72 9 9 C6.03 9 3.06 9 0 9 C0 6.03 0 3.06 0 0 Z " fill="#A3423F" transform="translate(237,60)"/>
<path d="M0 0 C5.94 0 11.88 0 18 0 C18 16.5 18 33 18 50 C15.03 50 12.06 50 9 50 C9 52.64 9 55.28 9 58 C3.06 58 -2.88 58 -9 58 C-9 55.36 -9 52.72 -9 50 C-6.03 50 -3.06 50 0 50 C0 33.5 0 17 0 0 Z " fill="#39213B" transform="translate(219,184)"/>
<path d="M0 0 C5.94 0 11.88 0 18 0 C18 2.64 18 5.28 18 8 C15.03 8 12.06 8 9 8 C9 19.88 9 31.76 9 44 C-0 45 -0 45 -9 45 C-9 32.79 -9 20.58 -9 8 C-6.03 8 -3.06 8 0 8 C0 5.36 0 2.72 0 0 Z " fill="#D48054" transform="translate(131,32)"/>
<path d="M0 0 C6.27 0 12.54 0 19 0 C19 2.64 19 5.28 19 8 C21.64 8 24.28 8 27 8 C27 20.21 27 32.42 27 45 C21.39 45 15.78 45 10 45 C10 32.79 10 20.58 10 8 C6.7 8 3.4 8 0 8 C0 5.36 0 2.72 0 0 Z " fill="#D57E54" transform="translate(174,32)"/>
<path d="M0 0 C2.97 0 5.94 0 9 0 C9 2.64 9 5.28 9 8 C35.07 8 61.14 8 88 8 C88 10.64 88 13.28 88 16 C58.96 16 29.92 16 0 16 C0 10.72 0 5.44 0 0 Z " fill="#F9E2C2" transform="translate(113,94)"/>
<path d="M0 0 C10.56 0 21.12 0 32 0 C32 2.31 32 4.62 32 7 C34.97 7 37.94 7 41 7 C41 12.94 41 18.88 41 25 C37.7 25 34.4 25 31 25 C31 27.64 31 30.28 31 33 C28.03 33 25.06 33 22 33 C22 24.75 22 16.5 22 8 C14.74 8 7.48 8 0 8 C0 5.36 0 2.72 0 0 Z " fill="#3C2137" transform="translate(150,193)"/>
<path d="M0 0 C8.25 0 16.5 0 25 0 C25 8.58 25 17.16 25 26 C16.75 26 8.5 26 0 26 C0 17.42 0 8.84 0 0 Z " fill="#D2E0DF" transform="translate(149,68)"/>
<path d="M0 0 C26.07 0 52.14 0 79 0 C79 2.64 79 5.28 79 8 C52.93 8 26.86 8 0 8 C0 5.36 0 2.72 0 0 Z " fill="#D78455" transform="translate(113,110)"/>
<path d="M0 0 C7.26 0 14.52 0 22 0 C22 8.25 22 16.5 22 25 C11.77 25 1.54 25 -9 25 C-9 24.67 -9 24.34 -9 24 C-6.03 24 -3.06 24 0 24 C0 16.08 0 8.16 0 0 Z " fill="#FAC148" transform="translate(150,143)"/>
<path d="M0 0 C3.3 0 6.6 0 10 0 C10 2.64 10 5.28 10 8 C12.64 8 15.28 8 18 8 C18 10.64 18 13.28 18 16 C23.94 16 29.88 16 36 16 C36 18.97 36 21.94 36 25 C24.12 25 12.24 25 0 25 C0 16.75 0 8.5 0 0 Z " fill="#B35243" transform="translate(77,69)"/>
<path d="M0 0 C2.64 0 5.28 0 8 0 C8.33 10.56 8.66 21.12 9 32 C11.97 32.33 14.94 32.66 18 33 C18 35.64 18 38.28 18 41 C20.64 41 23.28 41 26 41 C26 43.64 26 46.28 26 49 C20.39 49 14.78 49 9 49 C9 46.36 9 43.72 9 41 C6.03 41 3.06 41 0 41 C0 27.47 0 13.94 0 0 Z " fill="#E4741E" transform="translate(105,135)"/>
<path d="M0 0 C2.97 0 5.94 0 9 0 C9.19890186 4.14536741 9.38203636 8.29129222 9.5625 12.4375 C9.64661133 14.18450195 9.64661133 14.18450195 9.73242188 15.96679688 C10.0065905 22.45545438 9.92846759 28.56950225 9 35 C6.03 35 3.06 35 0 35 C0 32.03 0 29.06 0 26 C-5.94 26 -11.88 26 -18 26 C-18 23.36 -18 20.72 -18 18 C-20.64 18 -23.28 18 -26 18 C-26 15.36 -26 12.72 -26 10 C-23.03 10 -20.06 10 -17 10 C-17 12.64 -17 15.28 -17 18 C-11.39 18 -5.78 18 0 18 C0 12.06 0 6.12 0 0 Z " fill="#37203B" transform="translate(113,59)"/>
<path d="M0 0 C12.21 0 24.42 0 37 0 C37 5.28 37 10.56 37 16 C27.76 16 18.52 16 9 16 C9 13.36 9 10.72 9 8 C6.03 8 3.06 8 0 8 C0 5.36 0 2.72 0 0 Z " fill="#FEC140" transform="translate(182,135)"/>
<path d="M0 0 C5.94 0 11.88 0 18 0 C18 5.94 18 11.88 18 18 C15.03 18 12.06 18 9 18 C9 23.28 9 28.56 9 34 C3.06 34 -2.88 34 -9 34 C-9 31.03 -9 28.06 -9 25 C-6.03 25 -3.06 25 0 25 C0 22.36 0 19.72 0 17 C2.97 17 5.94 17 9 17 C9 14.36 9 11.72 9 9 C6.03 9 3.06 9 0 9 C0 6.03 0 3.06 0 0 Z " fill="#D17750" transform="translate(237,60)"/>
<path d="M0 0 C19.47 0 38.94 0 59 0 C59 2.64 59 5.28 59 8 C39.53 8 20.06 8 0 8 C0 5.36 0 2.72 0 0 Z " fill="#FCA825" transform="translate(132,234)"/>
<path d="M0 0 C2.97 0 5.94 0 9 0 C9 2.64 9 5.28 9 8 C22.2 8 35.4 8 49 8 C49 10.64 49 13.28 49 16 C32.83 16 16.66 16 0 16 C0 10.72 0 5.44 0 0 Z " fill="#FEFCF1" transform="translate(132,160)"/>
<path d="M0 0 C2.97 0 5.94 0 9 0 C9 5.94 9 11.88 9 18 C14.94 18 20.88 18 27 18 C27 20.64 27 23.28 27 26 C21.06 26 15.12 26 9 26 C9 28.97 9 31.94 9 35 C6.03 35 3.06 35 0 35 C0 23.45 0 11.9 0 0 Z " fill="#39213A" transform="translate(201,59)"/>
<path d="M0 0 C2.97 0 5.94 0 9 0 C9 16.5 9 33 9 50 C6.03 50 3.06 50 0 50 C0 33.5 0 17 0 0 Z " fill="#6B7C9C" transform="translate(228,184)"/>
<path d="M0 0 C2.97 0 5.94 0 9 0 C9 10.56 9 21.12 9 32 C6.03 32 3.06 32 0 32 C0 29.69 0 27.38 0 25 C-2.97 25 -5.94 25 -9 25 C-9 19.39 -9 13.78 -9 8 C-6.03 8 -3.06 8 0 8 C0 5.36 0 2.72 0 0 Z " fill="#38203A" transform="translate(141,135)"/>
<path d="M0 0 C8.58 0 17.16 0 26 0 C26 5.28 26 10.56 26 16 C17.09 16 8.18 16 -1 16 C-0.67 10.72 -0.34 5.44 0 0 Z " fill="#AA473F" transform="translate(87,94)"/>
<path d="M0 0 C2.64 0 5.28 0 8 0 C8 16.17 8 32.34 8 49 C5.36 49 2.72 49 0 49 C0 32.83 0 16.66 0 0 Z " fill="#9AB3C3" transform="translate(87,135)"/>
<path d="M0 0 C2.97 0 5.94 0 9 0 C9 2.97 9 5.94 9 9 C11.97 9 14.94 9 18 9 C18 14.61 18 20.22 18 26 C12.06 26 6.12 26 0 26 C0 17.42 0 8.84 0 0 Z " fill="#DCE8E5" transform="translate(210,51)"/>
<path d="M0 0 C2.64 0 5.28 0 8 0 C8 8.58 8 17.16 8 26 C2.39 26 -3.22 26 -9 26 C-9 20.39 -9 14.78 -9 9 C-6.03 9 -3.06 9 0 9 C0 6.03 0 3.06 0 0 Z " fill="#DCE8E5" transform="translate(105,51)"/>
<path d="M0 0 C6.27 0 12.54 0 19 0 C19 2.64 19 5.28 19 8 C21.64 8 24.28 8 27 8 C27 14.27 27 20.54 27 27 C24.03 27 21.06 27 18 27 C18 20.73 18 14.46 18 8 C12.06 8 6.12 8 0 8 C0 5.36 0 2.72 0 0 Z " fill="#3B223B" transform="translate(174,32)"/>
<path d="M0 0 C5.94 0 11.88 0 18 0 C18 2.97 18 5.94 18 9 C15.03 9 12.06 9 9 9 C9 11.64 9 14.28 9 17 C3.06 17 -2.88 17 -9 17 C-9 14.36 -9 11.72 -9 9 C-6.03 9 -3.06 9 0 9 C0 6.03 0 3.06 0 0 Z " fill="#FAE0BF" transform="translate(210,85)"/>
<path d="M0 0 C5.94 0 11.88 0 18 0 C18 5.61 18 11.22 18 17 C12.06 17 6.12 17 0 17 C0 11.39 0 5.78 0 0 Z " fill="#697695" transform="translate(174,77)"/>
<path d="M0 0 C5.94 0 11.88 0 18 0 C18 5.61 18 11.22 18 17 C12.06 17 6.12 17 0 17 C0 11.39 0 5.78 0 0 Z " fill="#677391" transform="translate(131,77)"/>
<path d="M0 0 C9.24 0 18.48 0 28 0 C28 5.61 28 11.22 28 17 C25.03 17 22.06 17 19 17 C19 14.03 19 11.06 19 8 C12.73 8 6.46 8 0 8 C0 5.36 0 2.72 0 0 Z " fill="#FCF7E6" transform="translate(182,176)"/>
<path d="M0 0 C2.97 0 5.94 0 9 0 C9 10.89 9 21.78 9 33 C6.03 33 3.06 33 0 33 C0 22.11 0 11.22 0 0 Z " fill="#39223B" transform="translate(255,69)"/>
<path d="M0 0 C8.25 0 16.5 0 25 0 C25 2.97 25 5.94 25 9 C22.36 9 19.72 9 17 9 C17 11.64 17 14.28 17 17 C14.03 17 11.06 17 8 17 C8 14.36 8 11.72 8 9 C5.36 9 2.72 9 0 9 C0 6.03 0 3.06 0 0 Z " fill="#FEFCF3" transform="translate(149,68)"/>
<path d="M0 0 C2.97 0 5.94 0 9 0 C9 10.89 9 21.78 9 33 C6.03 33 3.06 33 0 33 C0 22.11 0 11.22 0 0 Z " fill="#39203B" transform="translate(59,69)"/>
<path d="M0 0 C0.33 0 0.66 0 1 0 C1 2.31 1 4.62 1 7 C10.24 7 19.48 7 29 7 C29 9.97 29 12.94 29 16 C19.43 16 9.86 16 0 16 C0 13.36 0 10.72 0 8 C-2.97 8 -5.94 8 -9 8 C-9 7.67 -9 7.34 -9 7 C-6.03 7 -3.06 7 0 7 C0 4.69 0 2.38 0 0 Z " fill="#3A203C" transform="translate(181,160)"/>
<path d="M0 0 C2.64 0 5.28 0 8 0 C8 10.89 8 21.78 8 33 C5.36 33 2.72 33 0 33 C0 22.11 0 11.22 0 0 Z " fill="#6A7A9B" transform="translate(87,201)"/>
<path d="M0 0 C5.94 0 11.88 0 18 0 C18 2.97 18 5.94 18 9 C15.03 9 12.06 9 9 9 C9 11.64 9 14.28 9 17 C6.03 17 3.06 17 0 17 C0 11.39 0 5.78 0 0 Z " fill="#37223B" transform="translate(201,242)"/>
<path d="M0 0 C2.97 0 5.94 0 9 0 C9 8.25 9 16.5 9 25 C6.03 25 3.06 25 0 25 C0 16.75 0 8.5 0 0 Z " fill="#9DB5C4" transform="translate(228,135)"/>
<path d="M0 0 C8.25 0 16.5 0 25 0 C25 2.97 25 5.94 25 9 C16.75 9 8.5 9 0 9 C0 6.03 0 3.06 0 0 Z " fill="#3B223B" transform="translate(149,40)"/>
<path d="M0 0 C7.26 0 14.52 0 22 0 C22 2.64 22 5.28 22 8 C14.74 8 7.48 8 0 8 C0 5.36 0 2.72 0 0 Z " fill="#C24F20" transform="translate(150,193)"/>
<path d="M0 0 C6.27 0 12.54 0 19 0 C19 2.97 19 5.94 19 9 C12.73 9 6.46 9 0 9 C0 6.03 0 3.06 0 0 Z " fill="#37213C" transform="translate(68,60)"/>
<path d="M0 0 C2.97 0 5.94 0 9 0 C9 6.27 9 12.54 9 19 C6.03 19 3.06 19 0 19 C0 12.73 0 6.46 0 0 Z " fill="#39223A" transform="translate(122,40)"/>
<path d="M0 0 C5.94 0 11.88 0 18 0 C18 2.97 18 5.94 18 9 C12.06 9 6.12 9 0 9 C0 6.03 0 3.06 0 0 Z " fill="#F8DFBE" transform="translate(95,85)"/>
<path d="M0 0 C5.94 0 11.88 0 18 0 C18 2.97 18 5.94 18 9 C12.06 9 6.12 9 0 9 C0 6.03 0 3.06 0 0 Z " fill="#371F38" transform="translate(237,60)"/>
<path d="M0 0 C2.97 0 5.94 0 9 0 C9 5.94 9 11.88 9 18 C6.03 18 3.06 18 0 18 C0 12.06 0 6.12 0 0 Z " fill="#A6473F" transform="translate(122,59)"/>
<path d="M0 0 C2.97 0 5.94 0 9 0 C9 5.94 9 11.88 9 18 C6.03 18 3.06 18 0 18 C0 12.06 0 6.12 0 0 Z " fill="#A7473E" transform="translate(192,59)"/>
<path d="M0 0 C2.97 0 5.94 0 9 0 C9 5.61 9 11.22 9 17 C6.03 17 3.06 17 0 17 C0 11.39 0 5.78 0 0 Z " fill="#473352" transform="translate(192,77)"/>
<path d="M0 0 C2.97 0 5.94 0 9 0 C9 5.61 9 11.22 9 17 C6.03 17 3.06 17 0 17 C0 11.39 0 5.78 0 0 Z " fill="#5A5A7D" transform="translate(131,77)"/>
<path d="M0 0 C6.27 0 12.54 0 19 0 C19 2.64 19 5.28 19 8 C12.73 8 6.46 8 0 8 C0 5.36 0 2.72 0 0 Z " fill="#FDFCF5" transform="translate(113,209)"/>
<path d="M0 0 C6.27 0 12.54 0 19 0 C19 2.64 19 5.28 19 8 C12.73 8 6.46 8 0 8 C0 5.36 0 2.72 0 0 Z " fill="#FEFDF1" transform="translate(182,176)"/>
<path d="M0 0 C3.3 0 6.6 0 10 0 C10 2.64 10 5.28 10 8 C12.64 8 15.28 8 18 8 C18 10.64 18 13.28 18 16 C15.03 16 12.06 16 9 16 C9 13.36 9 10.72 9 8 C6.03 8 3.06 8 0 8 C0 5.36 0 2.72 0 0 Z " fill="#F1D9B8" transform="translate(77,69)"/>
<path d="M0 0 C8.25 0 16.5 0 25 0 C25 1.98 25 3.96 25 6 C16.75 6 8.5 6 0 6 C0 4.02 0 2.04 0 0 Z " fill="#F8DFBE" transform="translate(149,49)"/>
<path d="M0 0 C5.94 0 11.88 0 18 0 C18 2.64 18 5.28 18 8 C12.06 8 6.12 8 0 8 C0 5.36 0 2.72 0 0 Z " fill="#A7463D" transform="translate(192,110)"/>
<path d="M0 0 C5.94 0 11.88 0 18 0 C18 2.64 18 5.28 18 8 C12.06 8 6.12 8 0 8 C0 5.36 0 2.72 0 0 Z " fill="#A4443F" transform="translate(113,110)"/>
<path d="M0 0 C2.97 0 5.94 0 9 0 C9 5.28 9 10.56 9 16 C6.03 16 3.06 16 0 16 C0 10.72 0 5.44 0 0 Z " fill="#DA8B5E" transform="translate(113,94)"/>
<path d="M0 0 C5.94 0 11.88 0 18 0 C18 2.64 18 5.28 18 8 C12.06 8 6.12 8 0 8 C0 5.36 0 2.72 0 0 Z " fill="#C36447" transform="translate(201,102)"/>
<path d="M0 0 C5.94 0 11.88 0 18 0 C18 2.64 18 5.28 18 8 C12.06 8 6.12 8 0 8 C0 5.36 0 2.72 0 0 Z " fill="#E09563" transform="translate(201,94)"/>
<path d="M0 0 C5.94 0 11.88 0 18 0 C18 2.64 18 5.28 18 8 C12.06 8 6.12 8 0 8 C0 5.36 0 2.72 0 0 Z " fill="#39233D" transform="translate(131,32)"/>
<path d="M0 0 C2.97 0 5.94 0 9 0 C9.02684679 2.64590014 9.04676357 5.29153096 9.0625 7.9375 C9.07087891 8.69224609 9.07925781 9.44699219 9.08789062 10.22460938 C9.09652441 12.14994313 9.05224333 14.07535581 9 16 C8.67 16.33 8.34 16.66 8 17 C5.69 17 3.38 17 1 17 C0.67 11.39 0.34 5.78 0 0 Z " fill="#473657" transform="translate(122,77)"/>
<path d="M0 0 C2.64 0 5.28 0 8 0 C8 5.61 8 11.22 8 17 C5.36 17 2.72 17 0 17 C0 11.39 0 5.78 0 0 Z " fill="#FBA92A" transform="translate(105,135)"/>
<path d="M0 0 C5.61 0 11.22 0 17 0 C17 2.64 17 5.28 17 8 C11.39 8 5.78 8 0 8 C0 5.36 0 2.72 0 0 Z " fill="#D07950" transform="translate(96,94)"/>
<path d="M0 0 C2.64 0 5.28 0 8 0 C8 5.61 8 11.22 8 17 C5.36 17 2.72 17 0 17 C0 11.39 0 5.78 0 0 Z " fill="#5B5A7D" transform="translate(184,77)"/>
<path d="M0 0 C3.3 0 6.6 0 10 0 C10 5.61 10 11.22 10 17 C9.67 17 9.34 17 9 17 C9 14.36 9 11.72 9 9 C6.03 9 3.06 9 0 9 C0 6.03 0 3.06 0 0 Z " fill="#B6CAD2" transform="translate(59,225)"/>
<path d="M0 0 C3.3 0 6.6 0 10 0 C10 2.97 10 5.94 10 9 C6.7 9 3.4 9 0 9 C0 6.03 0 3.06 0 0 Z " fill="#F7EEE4" transform="translate(174,40)"/>
<path d="M0 0 C3.3 0 6.6 0 10 0 C10 2.97 10 5.94 10 9 C7.03 9 4.06 9 1 9 C0.67 6.03 0.34 3.06 0 0 Z " fill="#B3C9D1" transform="translate(49,208)"/>
<path d="M0 0 C2.97 0 5.94 0 9 0 C9 2.97 9 5.94 9 9 C6.03 9 3.06 9 0 9 C0 6.03 0 3.06 0 0 Z " fill="#6A7B9C" transform="translate(59,277)"/>
<path d="M0 0 C2.97 0 5.94 0 9 0 C9 2.97 9 5.94 9 9 C6.03 9 3.06 9 0 9 C0 6.03 0 3.06 0 0 Z " fill="#849BB2" transform="translate(201,268)"/>
<path d="M0 0 C2.97 0 5.94 0 9 0 C9 2.97 9 5.94 9 9 C6.03 9 3.06 9 0 9 C0 6.03 0 3.06 0 0 Z " fill="#8098B0" transform="translate(113,268)"/>
<path d="M0 0 C2.97 0 5.94 0 9 0 C9 2.97 9 5.94 9 9 C6.03 9 3.06 9 0 9 C0 6.03 0 3.06 0 0 Z " fill="#657495" transform="translate(210,242)"/>
<path d="M0 0 C2.97 0 5.94 0 9 0 C9 2.97 9 5.94 9 9 C6.03 9 3.06 9 0 9 C0 6.03 0 3.06 0 0 Z " fill="#6B7694" transform="translate(104,242)"/>
<path d="M0 0 C2.97 0 5.94 0 9 0 C9 2.97 9 5.94 9 9 C6.03 9 3.06 9 0 9 C0 6.03 0 3.06 0 0 Z " fill="#372039" transform="translate(113,242)"/>
<path d="M0 0 C2.97 0 5.94 0 9 0 C9 2.97 9 5.94 9 9 C6.03 9 3.06 9 0 9 C0 6.03 0 3.06 0 0 Z " fill="#B7CBD1" transform="translate(255,225)"/>
<path d="M0 0 C2.97 0 5.94 0 9 0 C9 2.97 9 5.94 9 9 C6.03 9 3.06 9 0 9 C0 6.03 0 3.06 0 0 Z " fill="#B3C9D2" transform="translate(264,208)"/>
<path d="M0 0 C2.97 0 5.94 0 9 0 C9 2.97 9 5.94 9 9 C6.03 9 3.06 9 0 9 C0 6.03 0 3.06 0 0 Z " fill="#A4BBC9" transform="translate(210,167)"/>
<path d="M0 0 C2.97 0 5.94 0 9 0 C9 2.97 9 5.94 9 9 C6.03 9 3.06 9 0 9 C0 6.03 0 3.06 0 0 Z " fill="#B0C5CE" transform="translate(264,118)"/>
<path d="M0 0 C2.97 0 5.94 0 9 0 C9 2.97 9 5.94 9 9 C6.03 9 3.06 9 0 9 C0 6.03 0 3.06 0 0 Z " fill="#B2C7CF" transform="translate(50,118)"/>
<path d="M0 0 C2.97 0 5.94 0 9 0 C9 2.97 9 5.94 9 9 C6.03 9 3.06 9 0 9 C0 6.03 0 3.06 0 0 Z " fill="#D8875E" transform="translate(228,85)"/>
<path d="M0 0 C2.97 0 5.94 0 9 0 C9 2.97 9 5.94 9 9 C6.03 9 3.06 9 0 9 C0 6.03 0 3.06 0 0 Z " fill="#D6855C" transform="translate(86,85)"/>
<path d="M0 0 C2.97 0 5.94 0 9 0 C9 2.97 9 5.94 9 9 C6.03 9 3.06 9 0 9 C0 6.03 0 3.06 0 0 Z " fill="#C26547" transform="translate(237,85)"/>
<path d="M0 0 C2.97 0 5.94 0 9 0 C9 2.97 9 5.94 9 9 C6.03 9 3.06 9 0 9 C0 6.03 0 3.06 0 0 Z " fill="#FEF9EE" transform="translate(140,40)"/>
<path d="M0 0 C0.33 0 0.66 0 1 0 C1 5.28 1 10.56 1 16 C-1.97 16 -4.94 16 -8 16 C-8 13.36 -8 10.72 -8 8 C-5.36 8 -2.72 8 0 8 C0 5.36 0 2.72 0 0 Z " fill="#DA711F" transform="translate(218,135)"/>
<path d="M0 0 C2.97 0 5.94 0 9 0 C9 5.28 9 10.56 9 16 C8.67 16 8.34 16 8 16 C8 13.36 8 10.72 8 8 C5.36 8 2.72 8 0 8 C0 5.36 0 2.72 0 0 Z " fill="#442F44" transform="translate(87,69)"/>
<path d="M0 0 C2.97 0 5.94 0 9 0 C9 2.64 9 5.28 9 8 C6.03 8 3.06 8 0 8 C0 5.36 0 2.72 0 0 Z " fill="#677493" transform="translate(113,251)"/>
<path d="M0 0 C2.97 0 5.94 0 9 0 C9 2.64 9 5.28 9 8 C6.03 8 3.06 8 0 8 C0 5.36 0 2.72 0 0 Z " fill="#677495" transform="translate(201,251)"/>
<path d="M0 0 C2.97 0 5.94 0 9 0 C9 2.64 9 5.28 9 8 C6.03 8 3.06 8 0 8 C0 5.36 0 2.72 0 0 Z " fill="#FDCC61" transform="translate(182,218)"/>
<path d="M0 0 C2.97 0 5.94 0 9 0 C9 2.64 9 5.28 9 8 C6.03 8 3.06 8 0 8 C0 5.36 0 2.72 0 0 Z " fill="#FDFAEC" transform="translate(132,218)"/>
<path d="M0 0 C2.64 0 5.28 0 8 0 C8 2.97 8 5.94 8 9 C5.36 9 2.72 9 0 9 C0 6.03 0 3.06 0 0 Z " fill="#E57921" transform="translate(210,184)"/>
<path d="M0 0 C2.97 0 5.94 0 9 0 C9 2.64 9 5.28 9 8 C6.03 8 3.06 8 0 8 C0 5.36 0 2.72 0 0 Z " fill="#9DB5C1" transform="translate(219,176)"/>
<path d="M0 0 C2.97 0 5.94 0 9 0 C9 2.64 9 5.28 9 8 C6.03 8 3.06 8 0 8 C0 5.36 0 2.72 0 0 Z " fill="#382142" transform="translate(210,176)"/>
<path d="M0 0 C2.97 0 5.94 0 9 0 C9 2.64 9 5.28 9 8 C6.03 8 3.06 8 0 8 C0 5.36 0 2.72 0 0 Z " fill="#F8A72A" transform="translate(201,176)"/>
<path d="M0 0 C2.97 0 5.94 0 9 0 C9 2.64 9 5.28 9 8 C6.03 8 3.06 8 0 8 C0 5.36 0 2.72 0 0 Z " fill="#39213A" transform="translate(246,102)"/>
<path d="M0 0 C2.97 0 5.94 0 9 0 C9 2.64 9 5.28 9 8 C6.03 8 3.06 8 0 8 C0 5.36 0 2.72 0 0 Z " fill="#D98759" transform="translate(201,102)"/>
<path d="M0 0 C2.97 0 5.94 0 9 0 C9 2.64 9 5.28 9 8 C6.03 8 3.06 8 0 8 C0 5.36 0 2.72 0 0 Z " fill="#3B1E3A" transform="translate(68,102)"/>
<path d="M0 0 C2.97 0 5.94 0 9 0 C9 2.64 9 5.28 9 8 C6.03 8 3.06 8 0 8 C0 5.36 0 2.72 0 0 Z " fill="#D37D53" transform="translate(219,94)"/>
<path d="M0 0 C2.97 0 5.94 0 9 0 C9 2.64 9 5.28 9 8 C6.03 8 3.06 8 0 8 C0 5.36 0 2.72 0 0 Z " fill="#FCFAF2" transform="translate(201,94)"/>
<path d="M0 0 C2.97 0 5.94 0 9 0 C9 2.64 9 5.28 9 8 C6.03 8 3.06 8 0 8 C0 5.36 0 2.72 0 0 Z " fill="#FEFCF2" transform="translate(113,94)"/>
<path d="M0 0 C2.97 0 5.94 0 9 0 C9 2.64 9 5.28 9 8 C6.03 8 3.06 8 0 8 C0 5.36 0 2.72 0 0 Z " fill="#DA8D5E" transform="translate(237,77)"/>
<path d="M0 0 C2.97 0 5.94 0 9 0 C9 2.64 9 5.28 9 8 C6.03 8 3.06 8 0 8 C0 5.36 0 2.72 0 0 Z " fill="#F9DFBE" transform="translate(228,77)"/>
<path d="M0 0 C2.97 0 5.94 0 9 0 C9 2.64 9 5.28 9 8 C6.03 8 3.06 8 0 8 C0 5.36 0 2.72 0 0 Z " fill="#FEFBF3" transform="translate(237,69)"/>
<path d="M0 0 C2.97 0 5.94 0 9 0 C9 2.64 9 5.28 9 8 C6.03 8 3.06 8 0 8 C0 5.36 0 2.72 0 0 Z " fill="#382236" transform="translate(228,69)"/>
<path d="M0 0 C2.97 0 5.94 0 9 0 C9 2.64 9 5.28 9 8 C6.03 8 3.06 8 0 8 C0 5.36 0 2.72 0 0 Z " fill="#FEFAEF" transform="translate(77,69)"/>
<path d="M0 0 C2.97 0 5.94 0 9 0 C9 2.64 9 5.28 9 8 C6.03 8 3.06 8 0 8 C0 5.36 0 2.72 0 0 Z " fill="#CE7A4F" transform="translate(68,69)"/>
<path d="M0 0 C2.97 0 5.94 0 9 0 C9 2.64 9 5.28 9 8 C6.36 8 3.72 8 1 8 C0.67 5.36 0.34 2.72 0 0 Z " fill="#D5865A" transform="translate(77,77)"/>
<path d="M0 0 C2.64 0 5.28 0 8 0 C8 2.64 8 5.28 8 8 C5.36 8 2.72 8 0 8 C0 5.36 0 2.72 0 0 Z " fill="#FBBD3B" transform="translate(105,209)"/>
<path d="M0 0 C2.64 0 5.28 0 8 0 C8 2.64 8 5.28 8 8 C5.36 8 2.72 8 0 8 C0 5.36 0 2.72 0 0 Z " fill="#FCA92A" transform="translate(210,193)"/>
<path d="M0 0 C2.64 0 5.28 0 8 0 C8 2.64 8 5.28 8 8 C5.36 8 2.72 8 0 8 C0 5.36 0 2.72 0 0 Z " fill="#FAA324" transform="translate(210,135)"/>
<path d="M0 0 C2.64 0 5.28 0 8 0 C8 2.64 8 5.28 8 8 C5.36 8 2.72 8 0 8 C0 5.36 0 2.72 0 0 Z " fill="#E3721E" transform="translate(105,135)"/>
<path d="M0 0 C2.64 0 5.28 0 8 0 C8 2.64 8 5.28 8 8 C5.36 8 2.72 8 0 8 C0 5.36 0 2.72 0 0 Z " fill="#BB5842" transform="translate(105,102)"/>
<path d="M0 0 C2.64 0 5.28 0 8 0 C8 2.64 8 5.28 8 8 C5.36 8 2.72 8 0 8 C0 5.36 0 2.72 0 0 Z " fill="#E09462" transform="translate(105,94)"/>
<path d="M0 0 C2.97 0 5.94 0 9 0 C9 2.31 9 4.62 9 7 C6.03 7 3.06 7 0 7 C0 4.69 0 2.38 0 0 Z " fill="#E3741B" transform="translate(182,193)"/>
<path d="M0 0 C0.33 0 0.66 0 1 0 C1 2.31 1 4.62 1 7 C10.24 7 19.48 7 29 7 C29 7.33 29 7.66 29 8 C19.76 8 10.52 8 1 8 C1 10.64 1 13.28 1 16 C0.67 16 0.34 16 0 16 C0 13.36 0 10.72 0 8 C-2.97 8 -5.94 8 -9 8 C-9 7.67 -9 7.34 -9 7 C-6.03 7 -3.06 7 0 7 C0 4.69 0 2.38 0 0 Z " fill="#6F636D" transform="translate(181,160)"/>
<path d="M0 0 C4.29 0 8.58 0 13 0 C13 0.33 13 0.66 13 1 C9.04 1 5.08 1 1 1 C1.33 2.32 1.66 3.64 2 5 C2.62648438 5.04898438 3.25296875 5.09796875 3.8984375 5.1484375 C4.71570313 5.22320312 5.53296875 5.29796875 6.375 5.375 C7.59316406 5.47941406 7.59316406 5.47941406 8.8359375 5.5859375 C11 6 11 6 13 8 C8.71 8 4.42 8 0 8 C0 5.36 0 2.72 0 0 Z " fill="#FBF7E6" transform="translate(113,209)"/>
<path d="M0 0 C2.31 0 4.62 0 7 0 C6.1875 1.9375 6.1875 1.9375 5 4 C4.01 4.33 3.02 4.66 2 5 C2 5.99 2 6.98 2 8 C1.34 7.67 0.68 7.34 0 7 C0 4.69 0 2.38 0 0 Z " fill="#412E4E" transform="translate(122,77)"/>
<path d="M0 0 C0.33 1.32 0.66 2.64 1 4 C-0.32 3.34 -1.64 2.68 -3 2 C-2.01 1.34 -1.02 0.68 0 0 Z M-1 4 C-0.01 4.99 0.98 5.98 2 7 C1.01 7.495 1.01 7.495 0 8 C-0.99 7.01 -1.98 6.02 -3 5 C-2.34 4.67 -1.68 4.34 -1 4 Z " fill="#3F2F50" transform="translate(129,81)"/>
</svg>
